<?xml version="1.0" encoding="utf-8" standalone="no"?>
<!DOCTYPE svg PUBLIC "-//W3C//DTD SVG 1.1//EN"
  "http://www.w3.org/Graphics/SVG/1.1/DTD/svg11.dtd">
<svg xmlns:xlink="http://www.w3.org/1999/xlink" width="792pt" height="720pt" viewBox="0 0 792 720" xmlns="http://www.w3.org/2000/svg" version="1.1">
 <metadata>
  <rdf:RDF xmlns:dc="http://purl.org/dc/elements/1.1/" xmlns:cc="http://creativecommons.org/ns#" xmlns:rdf="http://www.w3.org/1999/02/22-rdf-syntax-ns#">
   <cc:Work>
    <dc:type rdf:resource="http://purl.org/dc/dcmitype/StillImage"/>
    <dc:date>2026-08-27T10:00:56.017341</dc:date>
    <dc:format>image/svg+xml</dc:format>
    <dc:creator>
     <cc:Agent>
      <dc:title>Matplotlib v3.11.1, https://matplotlib.org/</dc:title>
     </cc:Agent>
    </dc:creator>
   </cc:Work>
  </rdf:RDF>
 </metadata>
 <defs>
  <style type="text/css">*{stroke-linejoin: round; stroke-linecap: butt}</style>
 </defs>
 <g id="figure_1">
  <g id="patch_1">
   <path d="M 0 720 
L 792 720 
L 792 0 
L 0 0 
z
" style="fill: #ffffff"/>
  </g>
  <g id="axes_1">
   <g id="patch_2">
    <path d="M 210.511311 509.203303 
L 433.853752 638.150122 
L 433.853752 375.891634 
L 148.837265 211.337288 
L 148.837265 408.854818 
L 210.511311 509.203303 
z
" clip-path="url(#p2798223074)" style="fill: none; stroke: #333333; stroke-width: 1.6; stroke-linejoin: miter"/>
   </g>
   <g id="patch_3">
    <path d="M 419.820294 388.358706 
L 643.162735 517.305524 
L 643.162735 255.047036 
L 358.146248 90.492691 
L 358.146248 288.010221 
L 419.820294 388.358706 
z
" clip-path="url(#p2798223074)" style="fill: none; stroke: #333333; stroke-width: 0.9; stroke-linejoin: miter"/>
   </g>
   <g id="line2d_1">
    <path d="M 210.511311 509.203303 
L 419.820294 388.358706 
" clip-path="url(#p2798223074)" style="fill: none; stroke: #333333; stroke-opacity: 0.6; stroke-width: 0.8; stroke-linecap: square"/>
   </g>
   <g id="line2d_2">
    <path d="M 433.853752 638.150122 
L 643.162735 517.305524 
" clip-path="url(#p2798223074)" style="fill: none; stroke: #333333; stroke-opacity: 0.6; stroke-width: 0.8; stroke-linecap: square"/>
   </g>
   <g id="line2d_3">
    <path d="M 433.853752 375.891634 
L 643.162735 255.047036 
" clip-path="url(#p2798223074)" style="fill: none; stroke: #333333; stroke-opacity: 0.6; stroke-width: 0.8; stroke-linecap: square"/>
   </g>
   <g id="line2d_4">
    <path d="M 148.837265 211.337288 
L 358.146248 90.492691 
" clip-path="url(#p2798223074)" style="fill: none; stroke: #333333; stroke-opacity: 0.6; stroke-width: 0.8; stroke-linecap: square"/>
   </g>
   <g id="line2d_5">
    <path d="M 148.837265 408.854818 
L 358.146248 288.010221 
" clip-path="url(#p2798223074)" style="fill: none; stroke: #333333; stroke-opacity: 0.6; stroke-width: 0.8; stroke-linecap: square"/>
   </g>
   <g id="patch_4">
    <path d="M 154.775109 332.181886 
L 220.091387 369.892256 
L 423.462526 252.475874 
L 358.146248 214.765504 
z
" clip-path="url(#p2798223074)" style="fill: #7d3cbd; opacity: 0.45; stroke: #4b2273; stroke-width: 0.8; stroke-linejoin: miter"/>
   </g>
   <g id="patch_5">
    <path d="M 154.775109 339.038317 
L 220.091387 376.748688 
L 220.091387 369.892256 
L 154.775109 332.181886 
z
" clip-path="url(#p2798223074)" style="fill: #622f93; opacity: 0.45; stroke: #4b2273; stroke-width: 0.8; stroke-linejoin: miter"/>
   </g>
   <g id="patch_6">
    <path d="M 220.091387 376.748688 
L 423.462526 259.332306 
L 423.462526 252.475874 
L 220.091387 369.892256 
z
" clip-path="url(#p2798223074)" style="fill: #48236e; opacity: 0.45; stroke: #4b2273; stroke-width: 0.8; stroke-linejoin: miter"/>
   </g>
   <g id="patch_7">
    <path d="M 373.653561 361.532919 
L 483.800557 425.126317 
L 529.96729 398.471942 
L 419.820294 334.878544 
z
" clip-path="url(#p2798223074)" style="fill: #c8a06a; stroke: #c0392b; stroke-width: 2.4; stroke-linejoin: miter"/>
   </g>
   <g id="patch_8">
    <path d="M 373.653561 417.755654 
L 483.800557 481.349052 
L 483.800557 425.126317 
L 373.653561 361.532919 
z
" clip-path="url(#p2798223074)" style="fill: #9c7d53; stroke: #c0392b; stroke-width: 2.4; stroke-linejoin: miter"/>
   </g>
   <g id="patch_9">
    <path d="M 483.800557 481.349052 
L 529.96729 454.694676 
L 529.96729 398.471942 
L 483.800557 425.126317 
z
" clip-path="url(#p2798223074)" style="fill: #745d3d; stroke: #c0392b; stroke-width: 2.4; stroke-linejoin: miter"/>
   </g>
   <g id="patch_10">
    <path d="M 368.457948 319.794395 
L 473.557777 380.47381 
L 527.443707 349.362754 
L 422.343877 288.683339 
z
" clip-path="url(#p2798223074)" style="fill: #c8a06a; stroke: #00a2a2; stroke-width: 2.6; stroke-linejoin: miter"/>
   </g>
   <g id="patch_11">
    <path d="M 368.457948 367.446591 
L 473.557777 428.126006 
L 473.557777 380.47381 
L 368.457948 319.794395 
z
" clip-path="url(#p2798223074)" style="fill: #9c7d53; stroke: #00a2a2; stroke-width: 2.6; stroke-linejoin: miter"/>
   </g>
   <g id="patch_12">
    <path d="M 473.557777 428.126006 
L 527.443707 397.01495 
L 527.443707 349.362754 
L 473.557777 380.47381 
z
" clip-path="url(#p2798223074)" style="fill: #745d3d; stroke: #00a2a2; stroke-width: 2.6; stroke-linejoin: miter"/>
   </g>
   <g id="patch_13">
    <path d="M 328.822842 378.673997 
L 410.022852 425.554844 
L 443.274775 406.356837 
L 362.074766 359.47599 
z
" clip-path="url(#p2798223074)" style="fill: #c8a06a; stroke: #c0392b; stroke-width: 2.4; stroke-linejoin: miter"/>
   </g>
   <g id="patch_14">
    <path d="M 328.822842 443.638681 
L 410.022852 490.519529 
L 410.022852 425.554844 
L 328.822842 378.673997 
z
" clip-path="url(#p2798223074)" style="fill: #9c7d53; stroke: #c0392b; stroke-width: 2.4; stroke-linejoin: miter"/>
   </g>
   <g id="patch_15">
    <path d="M 410.022852 490.519529 
L 443.274775 471.321522 
L 443.274775 406.356837 
L 410.022852 425.554844 
z
" clip-path="url(#p2798223074)" style="fill: #745d3d; stroke: #c0392b; stroke-width: 2.4; stroke-linejoin: miter"/>
   </g>
   <g id="patch_16">
    <path d="M 338.323392 290.911679 
L 414.030896 334.621427 
L 512.747544 277.627344 
L 437.04004 233.917596 
z
" clip-path="url(#p2798223074)" style="fill: #c8a06a; stroke: #00a2a2; stroke-width: 2.6; stroke-linejoin: miter"/>
   </g>
   <g id="patch_17">
    <path d="M 338.323392 354.162256 
L 414.030896 397.872004 
L 414.030896 334.621427 
L 338.323392 290.911679 
z
" clip-path="url(#p2798223074)" style="fill: #9c7d53; stroke: #00a2a2; stroke-width: 2.6; stroke-linejoin: miter"/>
   </g>
   <g id="patch_18">
    <path d="M 414.030896 397.872004 
L 512.747544 340.877921 
L 512.747544 277.627344 
L 414.030896 334.621427 
z
" clip-path="url(#p2798223074)" style="fill: #745d3d; stroke: #00a2a2; stroke-width: 2.6; stroke-linejoin: miter"/>
   </g>
   <g id="patch_19">
    <path d="M 231.224843 475.567 
L 294.165984 511.906085 
L 403.719197 448.655508 
L 340.778056 412.316424 
z
" clip-path="url(#p2798223074)" style="fill: #5fbf6a; stroke: #3a3a3a; stroke-linejoin: miter"/>
   </g>
   <g id="patch_20">
    <path d="M 231.224843 518.419694 
L 294.165984 554.758779 
L 294.165984 511.906085 
L 231.224843 475.567 
z
" clip-path="url(#p2798223074)" style="fill: #4a9553; stroke: #3a3a3a; stroke-linejoin: miter"/>
   </g>
   <g id="patch_21">
    <path d="M 294.165984 554.758779 
L 403.719197 491.508203 
L 403.719197 448.655508 
L 294.165984 511.906085 
z
" clip-path="url(#p2798223074)" style="fill: #376f3d; stroke: #3a3a3a; stroke-linejoin: miter"/>
   </g>
   <g id="patch_22">
    <path d="M 491.896172 434.599825 
L 580.815378 485.937352 
L 638.41246 452.683662 
L 549.493254 401.346134 
z
" clip-path="url(#p2798223074)" style="fill: #c8a06a; stroke: #3a3a3a; stroke-linejoin: miter"/>
   </g>
   <g id="patch_23">
    <path d="M 491.896172 499.221687 
L 580.815378 550.559215 
L 580.815378 485.937352 
L 491.896172 434.599825 
z
" clip-path="url(#p2798223074)" style="fill: #9c7d53; stroke: #3a3a3a; stroke-linejoin: miter"/>
   </g>
   <g id="patch_24">
    <path d="M 580.815378 550.559215 
L 638.41246 517.305524 
L 638.41246 452.683662 
L 580.815378 485.937352 
z
" clip-path="url(#p2798223074)" style="fill: #745d3d; stroke: #3a3a3a; stroke-linejoin: miter"/>
   </g>
   <g id="patch_25">
    <path d="M 340.846975 214.719589 
L 437.04004 270.256681 
L 512.747544 226.546933 
L 416.55448 171.009841 
z
" clip-path="url(#p2798223074)" style="fill: #c8a06a; stroke: #00a2a2; stroke-width: 2.6; stroke-linejoin: miter"/>
   </g>
   <g id="patch_26">
    <path d="M 340.846975 265.800001 
L 437.04004 321.337092 
L 437.04004 270.256681 
L 340.846975 214.719589 
z
" clip-path="url(#p2798223074)" style="fill: #9c7d53; stroke: #00a2a2; stroke-width: 2.6; stroke-linejoin: miter"/>
   </g>
   <g id="patch_27">
    <path d="M 437.04004 321.337092 
L 512.747544 277.627344 
L 512.747544 226.546933 
L 437.04004 270.256681 
z
" clip-path="url(#p2798223074)" style="fill: #745d3d; stroke: #00a2a2; stroke-width: 2.6; stroke-linejoin: miter"/>
   </g>
   <g id="patch_28">
    <path d="M 401.344059 418.14439 
L 459.683371 451.826608 
L 504.068751 426.200697 
L 445.729439 392.518479 
z
" clip-path="url(#p2798223074)" style="fill: #c8a06a; stroke: #3a3a3a; stroke-linejoin: miter"/>
   </g>
   <g id="patch_29">
    <path d="M 401.344059 502.649903 
L 459.683371 536.332121 
L 459.683371 451.826608 
L 401.344059 418.14439 
z
" clip-path="url(#p2798223074)" style="fill: #9c7d53; stroke: #3a3a3a; stroke-linejoin: miter"/>
   </g>
   <g id="patch_30">
    <path d="M 459.683371 536.332121 
L 504.068751 510.70621 
L 504.068751 426.200697 
L 459.683371 451.826608 
z
" clip-path="url(#p2798223074)" style="fill: #745d3d; stroke: #3a3a3a; stroke-linejoin: miter"/>
   </g>
   <g id="patch_31">
    <path d="M 312.620848 497.651538 
L 408.665467 553.102924 
L 488.677907 506.90772 
L 392.633289 451.456334 
z
" clip-path="url(#p2798223074)" style="fill: #5fbf6a; stroke: #3a3a3a; stroke-linejoin: miter"/>
   </g>
   <g id="patch_32">
    <path d="M 312.620848 548.560539 
L 408.665467 604.011925 
L 408.665467 553.102924 
L 312.620848 497.651538 
z
" clip-path="url(#p2798223074)" style="fill: #4a9553; stroke: #3a3a3a; stroke-linejoin: miter"/>
   </g>
   <g id="patch_33">
    <path d="M 408.665467 604.011925 
L 488.677907 557.816721 
L 488.677907 506.90772 
L 408.665467 553.102924 
z
" clip-path="url(#p2798223074)" style="fill: #376f3d; stroke: #3a3a3a; stroke-linejoin: miter"/>
   </g>
   <g id="patch_34">
    <path d="M 486.849005 407.345511 
L 555.876436 447.198517 
L 638.41246 399.546321 
L 569.38503 359.693315 
z
" clip-path="url(#p2798223074)" style="fill: #c8a06a; stroke: #00a2a2; stroke-width: 2.6; stroke-linejoin: miter"/>
   </g>
   <g id="patch_35">
    <path d="M 486.849005 460.482852 
L 555.876436 500.335858 
L 555.876436 447.198517 
L 486.849005 407.345511 
z
" clip-path="url(#p2798223074)" style="fill: #9c7d53; stroke: #00a2a2; stroke-width: 2.6; stroke-linejoin: miter"/>
   </g>
   <g id="patch_36">
    <path d="M 555.876436 500.335858 
L 638.41246 452.683662 
L 638.41246 399.546321 
L 555.876436 447.198517 
z
" clip-path="url(#p2798223074)" style="fill: #745d3d; stroke: #00a2a2; stroke-width: 2.6; stroke-linejoin: miter"/>
   </g>
   <g id="patch_37">
    <path d="M 456.566004 308.784315 
L 567.752123 372.97765 
L 638.41246 332.181886 
L 527.226341 267.98855 
z
" clip-path="url(#p2798223074)" style="fill: #c8a06a; stroke: #00a2a2; stroke-width: 2.6; stroke-linejoin: miter"/>
   </g>
   <g id="patch_38">
    <path d="M 456.566004 376.14875 
L 567.752123 440.342086 
L 567.752123 372.97765 
L 456.566004 308.784315 
z
" clip-path="url(#p2798223074)" style="fill: #9c7d53; stroke: #00a2a2; stroke-width: 2.6; stroke-linejoin: miter"/>
   </g>
   <g id="patch_39">
    <path d="M 567.752123 440.342086 
L 638.41246 399.546321 
L 638.41246 332.181886 
L 567.752123 372.97765 
z
" clip-path="url(#p2798223074)" style="fill: #745d3d; stroke: #00a2a2; stroke-width: 2.6; stroke-linejoin: miter"/>
   </g>
   <g id="patch_40">
    <path d="M 462.503847 243.133987 
L 568.939691 304.584751 
L 633.662185 267.217201 
L 527.226341 205.766438 
z
" clip-path="url(#p2798223074)" style="fill: #c8a06a; stroke: #00a2a2; stroke-width: 2.6; stroke-linejoin: miter"/>
   </g>
   <g id="patch_41">
    <path d="M 462.503847 305.356099 
L 568.939691 366.806863 
L 568.939691 304.584751 
L 462.503847 243.133987 
z
" clip-path="url(#p2798223074)" style="fill: #9c7d53; stroke: #00a2a2; stroke-width: 2.6; stroke-linejoin: miter"/>
   </g>
   <g id="patch_42">
    <path d="M 568.939691 366.806863 
L 633.662185 329.439313 
L 633.662185 267.217201 
L 568.939691 304.584751 
z
" clip-path="url(#p2798223074)" style="fill: #745d3d; stroke: #00a2a2; stroke-width: 2.6; stroke-linejoin: miter"/>
   </g>
   <g id="patch_43">
    <path d="M 438.735077 471.291774 
L 474.65903 492.032478 
L 551.850995 447.465677 
L 515.927042 426.724973 
z
" clip-path="url(#p2798223074)" style="fill: #5fbf6a; stroke: #1f7a8c; stroke-width: 2.2; stroke-linejoin: miter"/>
   </g>
   <g id="patch_44">
    <path d="M 438.735077 591.107907 
L 474.65903 611.848611 
L 474.65903 492.032478 
L 438.735077 471.291774 
z
" clip-path="url(#p2798223074)" style="fill: #4a9553; stroke: #1f7a8c; stroke-width: 2.2; stroke-linejoin: miter"/>
   </g>
   <g id="patch_45">
    <path d="M 474.65903 611.848611 
L 551.850995 567.281809 
L 551.850995 447.465677 
L 474.65903 492.032478 
z
" clip-path="url(#p2798223074)" style="fill: #376f3d; stroke: #1f7a8c; stroke-width: 2.2; stroke-linejoin: miter"/>
   </g>
   <g id="text_1">
    <path d="M 427.368621 422.678564 
L 428.496278 422.678564 
L 428.496278 418.784814 
L 427.26909 419.030908 
L 427.26909 418.402001 
L 428.489715 418.155908 
L 429.179871 418.155908 
L 429.179871 422.678564 
L 430.307528 422.678564 
L 430.307528 423.259345 
L 427.368621 423.259345 
L 427.368621 422.678564 
z
" style="fill: #ffffff; stroke: #000000; stroke-opacity: 0.666667; stroke-width: 2"/>
    <path d="M 427.368621 422.678564 
L 428.496278 422.678564 
L 428.496278 418.784814 
L 427.26909 419.030908 
L 427.26909 418.402001 
L 428.489715 418.155908 
L 429.179871 418.155908 
L 429.179871 422.678564 
L 430.307528 422.678564 
L 430.307528 423.259345 
L 427.368621 423.259345 
L 427.368621 422.678564 
z
" style="fill: #ffffff"/>
   </g>
   <g id="text_2">
    <path d="M 420.124112 375.197779 
L 422.533644 375.197779 
L 422.533644 375.77856 
L 419.293956 375.77856 
L 419.293956 375.197779 
Q 419.686612 374.790904 420.364737 374.106216 
Q 421.043956 373.420435 421.217862 373.221372 
Q 421.549269 372.849497 421.680519 372.591372 
Q 421.812862 372.333247 421.812862 372.083872 
Q 421.812862 371.676997 421.527394 371.42106 
Q 421.241925 371.164029 420.783644 371.164029 
Q 420.4588 371.164029 420.097862 371.276685 
Q 419.738019 371.389341 419.327862 371.619029 
L 419.327862 370.921216 
Q 419.744581 370.753872 420.106612 370.66856 
Q 420.469737 370.583247 420.770519 370.583247 
Q 421.563487 370.583247 422.034894 370.980279 
Q 422.5063 371.376216 422.5063 372.039029 
Q 422.5063 372.354029 422.388175 372.636216 
Q 422.271144 372.91731 421.959425 373.300122 
Q 421.874112 373.399654 421.415831 373.873247 
Q 420.958644 374.346841 420.124112 375.197779 
z
" style="fill: #ffffff; stroke: #000000; stroke-opacity: 0.666667; stroke-width: 2"/>
    <path d="M 420.124112 375.197779 
L 422.533644 375.197779 
L 422.533644 375.77856 
L 419.293956 375.77856 
L 419.293956 375.197779 
Q 419.686612 374.790904 420.364737 374.106216 
Q 421.043956 373.420435 421.217862 373.221372 
Q 421.549269 372.849497 421.680519 372.591372 
Q 421.812862 372.333247 421.812862 372.083872 
Q 421.812862 371.676997 421.527394 371.42106 
Q 421.241925 371.164029 420.783644 371.164029 
Q 420.4588 371.164029 420.097862 371.276685 
Q 419.738019 371.389341 419.327862 371.619029 
L 419.327862 370.921216 
Q 419.744581 370.753872 420.106612 370.66856 
Q 420.469737 370.583247 420.770519 370.583247 
Q 421.563487 370.583247 422.034894 370.980279 
Q 422.5063 371.376216 422.5063 372.039029 
Q 422.5063 372.354029 422.388175 372.636216 
Q 422.271144 372.91731 421.959425 373.300122 
Q 421.874112 373.399654 421.415831 373.873247 
Q 420.958644 374.346841 420.124112 375.197779 
z
" style="fill: #ffffff"/>
   </g>
   <g id="text_3">
    <path d="M 367.951753 431.311685 
L 370.662066 431.311685 
L 370.662066 431.89356 
L 368.583941 431.89356 
L 368.583941 433.143716 
Q 368.733785 433.09231 368.883628 433.067153 
Q 369.034566 433.041997 369.185503 433.041997 
Q 370.039722 433.041997 370.538472 433.510122 
Q 371.038316 433.978247 371.038316 434.777778 
Q 371.038316 435.601372 370.525347 436.05856 
Q 370.012378 436.514653 369.07941 436.514653 
Q 368.757847 436.514653 368.424253 436.459966 
Q 368.091753 436.405278 367.736285 436.295903 
L 367.736285 435.601372 
Q 368.043628 435.768716 368.371753 435.850747 
Q 368.699878 435.932778 369.065191 435.932778 
Q 369.65691 435.932778 370.001441 435.622153 
Q 370.347066 435.311528 370.347066 434.777778 
Q 370.347066 434.245122 370.001441 433.934497 
Q 369.65691 433.622778 369.065191 433.622778 
Q 368.788472 433.622778 368.512847 433.684028 
Q 368.238316 433.745278 367.951753 433.875435 
L 367.951753 431.311685 
z
" style="fill: #ffffff; stroke: #000000; stroke-opacity: 0.666667; stroke-width: 2"/>
    <path d="M 367.951753 431.311685 
L 370.662066 431.311685 
L 370.662066 431.89356 
L 368.583941 431.89356 
L 368.583941 433.143716 
Q 368.733785 433.09231 368.883628 433.067153 
Q 369.034566 433.041997 369.185503 433.041997 
Q 370.039722 433.041997 370.538472 433.510122 
Q 371.038316 433.978247 371.038316 434.777778 
Q 371.038316 435.601372 370.525347 436.05856 
Q 370.012378 436.514653 369.07941 436.514653 
Q 368.757847 436.514653 368.424253 436.459966 
Q 368.091753 436.405278 367.736285 436.295903 
L 367.736285 435.601372 
Q 368.043628 435.768716 368.371753 435.850747 
Q 368.699878 435.932778 369.065191 435.932778 
Q 369.65691 435.932778 370.001441 435.622153 
Q 370.347066 435.311528 370.347066 434.777778 
Q 370.347066 434.245122 370.001441 433.934497 
Q 369.65691 433.622778 369.065191 433.622778 
Q 368.788472 433.622778 368.512847 433.684028 
Q 368.238316 433.745278 367.951753 433.875435 
L 367.951753 431.311685 
z
" style="fill: #ffffff"/>
   </g>
   <g id="text_4">
    <path d="M 376.174957 343.786451 
Q 375.682769 343.786451 375.400582 344.050045 
Q 375.119488 344.313639 375.119488 344.774107 
Q 375.119488 345.23567 375.400582 345.499264 
Q 375.682769 345.762857 376.174957 345.762857 
Q 376.667144 345.762857 376.950425 345.49817 
Q 377.2348 345.232389 377.2348 344.774107 
Q 377.2348 344.313639 376.952613 344.050045 
Q 376.671519 343.786451 376.174957 343.786451 
z
M 375.4848 343.493326 
Q 375.040738 343.383951 374.792457 343.079889 
Q 374.545269 342.774732 374.545269 342.337232 
Q 374.545269 341.725826 374.980582 341.370357 
Q 375.416988 341.014889 376.174957 341.014889 
Q 376.9373 341.014889 377.371519 341.370357 
Q 377.805738 341.725826 377.805738 342.337232 
Q 377.805738 342.774732 377.557457 343.079889 
Q 377.310269 343.383951 376.869488 343.493326 
Q 377.368238 343.609264 377.64605 343.948326 
Q 377.924957 344.286295 377.924957 344.774107 
Q 377.924957 345.516764 377.472144 345.913795 
Q 377.019332 346.309732 376.174957 346.309732 
Q 375.331675 346.309732 374.877769 345.913795 
Q 374.424957 345.516764 374.424957 344.774107 
Q 374.424957 344.286295 374.704957 343.948326 
Q 374.98605 343.609264 375.4848 343.493326 
z
M 375.232144 342.402857 
Q 375.232144 342.798795 375.479332 343.020826 
Q 375.727613 343.242857 376.174957 343.242857 
Q 376.620113 343.242857 376.870582 343.020826 
Q 377.122144 342.798795 377.122144 342.402857 
Q 377.122144 342.005826 376.870582 341.783795 
Q 376.620113 341.561764 376.174957 341.561764 
Q 375.727613 341.561764 375.479332 341.783795 
Q 375.232144 342.005826 375.232144 342.402857 
z
" style="fill: #ffffff; stroke: #000000; stroke-opacity: 0.666667; stroke-width: 2"/>
    <path d="M 376.174957 343.786451 
Q 375.682769 343.786451 375.400582 344.050045 
Q 375.119488 344.313639 375.119488 344.774107 
Q 375.119488 345.23567 375.400582 345.499264 
Q 375.682769 345.762857 376.174957 345.762857 
Q 376.667144 345.762857 376.950425 345.49817 
Q 377.2348 345.232389 377.2348 344.774107 
Q 377.2348 344.313639 376.952613 344.050045 
Q 376.671519 343.786451 376.174957 343.786451 
z
M 375.4848 343.493326 
Q 375.040738 343.383951 374.792457 343.079889 
Q 374.545269 342.774732 374.545269 342.337232 
Q 374.545269 341.725826 374.980582 341.370357 
Q 375.416988 341.014889 376.174957 341.014889 
Q 376.9373 341.014889 377.371519 341.370357 
Q 377.805738 341.725826 377.805738 342.337232 
Q 377.805738 342.774732 377.557457 343.079889 
Q 377.310269 343.383951 376.869488 343.493326 
Q 377.368238 343.609264 377.64605 343.948326 
Q 377.924957 344.286295 377.924957 344.774107 
Q 377.924957 345.516764 377.472144 345.913795 
Q 377.019332 346.309732 376.174957 346.309732 
Q 375.331675 346.309732 374.877769 345.913795 
Q 374.424957 345.516764 374.424957 344.774107 
Q 374.424957 344.286295 374.704957 343.948326 
Q 374.98605 343.609264 375.4848 343.493326 
z
M 375.232144 342.402857 
Q 375.232144 342.798795 375.479332 343.020826 
Q 375.727613 343.242857 376.174957 343.242857 
Q 376.620113 343.242857 376.870582 343.020826 
Q 377.122144 342.798795 377.122144 342.402857 
Q 377.122144 342.005826 376.870582 341.783795 
Q 376.620113 341.561764 376.174957 341.561764 
Q 375.727613 341.561764 375.479332 341.783795 
Q 375.232144 342.005826 375.232144 342.402857 
z
" style="fill: #ffffff"/>
   </g>
   <g id="text_5">
    <path d="M 259.110101 516.400468 
L 260.237758 516.400468 
L 260.237758 512.506718 
L 259.01057 512.752812 
L 259.01057 512.123905 
L 260.231195 511.877812 
L 260.921351 511.877812 
L 260.921351 516.400468 
L 262.049008 516.400468 
L 262.049008 516.981249 
L 259.110101 516.981249 
L 259.110101 516.400468 
z
M 265.535883 514.229374 
Q 266.031351 514.335468 266.309164 514.671249 
Q 266.58807 515.005937 266.58807 515.498124 
Q 266.58807 516.252812 266.068539 516.667343 
Q 265.549008 517.08078 264.591976 517.08078 
Q 264.271508 517.08078 263.931351 517.017343 
Q 263.591195 516.953905 263.229164 516.82703 
L 263.229164 516.160937 
Q 263.515726 516.32828 263.856976 516.413593 
Q 264.19932 516.498905 264.572289 516.498905 
Q 265.220883 516.498905 265.561039 516.242968 
Q 265.901195 515.98703 265.901195 515.498124 
Q 265.901195 515.046405 265.585101 514.792655 
Q 265.269008 514.537812 264.705726 514.537812 
L 264.110726 514.537812 
L 264.110726 513.970155 
L 264.73307 513.970155 
Q 265.241664 513.970155 265.51182 513.766718 
Q 265.781976 513.56328 265.781976 513.180468 
Q 265.781976 512.787812 265.50307 512.577812 
Q 265.225258 512.366718 264.705726 512.366718 
Q 264.421351 512.366718 264.096508 512.429062 
Q 263.771664 512.490312 263.382289 512.619374 
L 263.382289 512.004687 
Q 263.776039 511.895312 264.119476 511.840624 
Q 264.462914 511.785937 264.766976 511.785937 
Q 265.553383 511.785937 266.01057 512.143593 
Q 266.468851 512.500155 266.468851 513.10828 
Q 266.468851 513.532655 266.226039 513.824687 
Q 265.983226 514.116718 265.535883 514.229374 
z
" style="fill: #ffffff; stroke: #000000; stroke-opacity: 0.666667; stroke-width: 2"/>
    <path d="M 259.110101 516.400468 
L 260.237758 516.400468 
L 260.237758 512.506718 
L 259.01057 512.752812 
L 259.01057 512.123905 
L 260.231195 511.877812 
L 260.921351 511.877812 
L 260.921351 516.400468 
L 262.049008 516.400468 
L 262.049008 516.981249 
L 259.110101 516.981249 
L 259.110101 516.400468 
z
M 265.535883 514.229374 
Q 266.031351 514.335468 266.309164 514.671249 
Q 266.58807 515.005937 266.58807 515.498124 
Q 266.58807 516.252812 266.068539 516.667343 
Q 265.549008 517.08078 264.591976 517.08078 
Q 264.271508 517.08078 263.931351 517.017343 
Q 263.591195 516.953905 263.229164 516.82703 
L 263.229164 516.160937 
Q 263.515726 516.32828 263.856976 516.413593 
Q 264.19932 516.498905 264.572289 516.498905 
Q 265.220883 516.498905 265.561039 516.242968 
Q 265.901195 515.98703 265.901195 515.498124 
Q 265.901195 515.046405 265.585101 514.792655 
Q 265.269008 514.537812 264.705726 514.537812 
L 264.110726 514.537812 
L 264.110726 513.970155 
L 264.73307 513.970155 
Q 265.241664 513.970155 265.51182 513.766718 
Q 265.781976 513.56328 265.781976 513.180468 
Q 265.781976 512.787812 265.50307 512.577812 
Q 265.225258 512.366718 264.705726 512.366718 
Q 264.421351 512.366718 264.096508 512.429062 
Q 263.771664 512.490312 263.382289 512.619374 
L 263.382289 512.004687 
Q 263.776039 511.895312 264.119476 511.840624 
Q 264.462914 511.785937 264.766976 511.785937 
Q 265.553383 511.785937 266.01057 512.143593 
Q 266.468851 512.500155 266.468851 513.10828 
Q 266.468851 513.532655 266.226039 513.824687 
Q 265.983226 514.116718 265.535883 514.229374 
z
" style="fill: #ffffff"/>
   </g>
   <g id="text_6">
    <path d="M 536.969369 491.646004 
Q 537.464838 491.752098 537.74265 492.087879 
Q 538.021557 492.422567 538.021557 492.914754 
Q 538.021557 493.669442 537.502025 494.083973 
Q 536.982494 494.497411 536.025463 494.497411 
Q 535.704994 494.497411 535.364838 494.433973 
Q 535.024682 494.370536 534.66265 494.243661 
L 534.66265 493.577567 
Q 534.949213 493.744911 535.290463 493.830223 
Q 535.632807 493.915536 536.005775 493.915536 
Q 536.654369 493.915536 536.994525 493.659598 
Q 537.334682 493.403661 537.334682 492.914754 
Q 537.334682 492.463036 537.018588 492.209286 
Q 536.702494 491.954442 536.139213 491.954442 
L 535.544213 491.954442 
L 535.544213 491.386786 
L 536.166557 491.386786 
Q 536.67515 491.386786 536.945307 491.183348 
Q 537.215463 490.979911 537.215463 490.597098 
Q 537.215463 490.204442 536.936557 489.994442 
Q 536.658744 489.783348 536.139213 489.783348 
Q 535.854838 489.783348 535.529994 489.845692 
Q 535.20515 489.906942 534.815775 490.036004 
L 534.815775 489.421317 
Q 535.209525 489.311942 535.552963 489.257254 
Q 535.8964 489.202567 536.200463 489.202567 
Q 536.986869 489.202567 537.444057 489.560223 
Q 537.902338 489.916786 537.902338 490.524911 
Q 537.902338 490.949286 537.659525 491.241317 
Q 537.416713 491.533348 536.969369 491.646004 
z
" style="fill: #ffffff; stroke: #000000; stroke-opacity: 0.666667; stroke-width: 2"/>
    <path d="M 536.969369 491.646004 
Q 537.464838 491.752098 537.74265 492.087879 
Q 538.021557 492.422567 538.021557 492.914754 
Q 538.021557 493.669442 537.502025 494.083973 
Q 536.982494 494.497411 536.025463 494.497411 
Q 535.704994 494.497411 535.364838 494.433973 
Q 535.024682 494.370536 534.66265 494.243661 
L 534.66265 493.577567 
Q 534.949213 493.744911 535.290463 493.830223 
Q 535.632807 493.915536 536.005775 493.915536 
Q 536.654369 493.915536 536.994525 493.659598 
Q 537.334682 493.403661 537.334682 492.914754 
Q 537.334682 492.463036 537.018588 492.209286 
Q 536.702494 491.954442 536.139213 491.954442 
L 535.544213 491.954442 
L 535.544213 491.386786 
L 536.166557 491.386786 
Q 536.67515 491.386786 536.945307 491.183348 
Q 537.215463 490.979911 537.215463 490.597098 
Q 537.215463 490.204442 536.936557 489.994442 
Q 536.658744 489.783348 536.139213 489.783348 
Q 535.854838 489.783348 535.529994 489.845692 
Q 535.20515 489.906942 534.815775 490.036004 
L 534.815775 489.421317 
Q 535.209525 489.311942 535.552963 489.257254 
Q 535.8964 489.202567 536.200463 489.202567 
Q 536.986869 489.202567 537.444057 489.560223 
Q 537.902338 489.916786 537.902338 490.524911 
Q 537.902338 490.949286 537.659525 491.241317 
Q 537.416713 491.533348 536.969369 491.646004 
z
" style="fill: #ffffff"/>
   </g>
   <g id="text_7">
    <path d="M 387.485539 269.740606 
L 387.485539 269.1117 
Q 387.745851 269.235294 388.011633 269.299825 
Q 388.278508 269.364356 388.535539 269.364356 
Q 389.219133 269.364356 389.578976 268.904981 
Q 389.939914 268.445606 389.99132 267.508263 
Q 389.793351 267.802481 389.488195 267.959981 
Q 389.184133 268.117481 388.815539 268.117481 
Q 388.049914 268.117481 387.603664 267.654825 
Q 387.157414 267.191075 387.157414 266.387169 
Q 387.157414 265.601856 387.622258 265.127169 
Q 388.087101 264.651388 388.859289 264.651388 
Q 389.745226 264.651388 390.211164 265.330606 
Q 390.678195 266.008731 390.678195 267.30045 
Q 390.678195 268.506856 390.10507 269.226544 
Q 389.533039 269.946231 388.566164 269.946231 
Q 388.305851 269.946231 388.038976 269.894825 
Q 387.773195 269.843419 387.485539 269.740606 
z
M 388.859289 267.577169 
Q 389.324133 267.577169 389.595383 267.259981 
Q 389.867726 266.9417 389.867726 266.387169 
Q 389.867726 265.837013 389.595383 265.517638 
Q 389.324133 265.198263 388.859289 265.198263 
Q 388.394445 265.198263 388.123195 265.517638 
Q 387.851945 265.837013 387.851945 266.387169 
Q 387.851945 266.9417 388.123195 267.259981 
Q 388.394445 267.577169 388.859289 267.577169 
z
" style="fill: #ffffff; stroke: #000000; stroke-opacity: 0.666667; stroke-width: 2"/>
    <path d="M 387.485539 269.740606 
L 387.485539 269.1117 
Q 387.745851 269.235294 388.011633 269.299825 
Q 388.278508 269.364356 388.535539 269.364356 
Q 389.219133 269.364356 389.578976 268.904981 
Q 389.939914 268.445606 389.99132 267.508263 
Q 389.793351 267.802481 389.488195 267.959981 
Q 389.184133 268.117481 388.815539 268.117481 
Q 388.049914 268.117481 387.603664 267.654825 
Q 387.157414 267.191075 387.157414 266.387169 
Q 387.157414 265.601856 387.622258 265.127169 
Q 388.087101 264.651388 388.859289 264.651388 
Q 389.745226 264.651388 390.211164 265.330606 
Q 390.678195 266.008731 390.678195 267.30045 
Q 390.678195 268.506856 390.10507 269.226544 
Q 389.533039 269.946231 388.566164 269.946231 
Q 388.305851 269.946231 388.038976 269.894825 
Q 387.773195 269.843419 387.485539 269.740606 
z
M 388.859289 267.577169 
Q 389.324133 267.577169 389.595383 267.259981 
Q 389.867726 266.9417 389.867726 266.387169 
Q 389.867726 265.837013 389.595383 265.517638 
Q 389.324133 265.198263 388.859289 265.198263 
Q 388.394445 265.198263 388.123195 265.517638 
Q 387.851945 265.837013 387.851945 266.387169 
Q 387.851945 266.9417 388.123195 267.259981 
Q 388.394445 267.577169 388.859289 267.577169 
z
" style="fill: #ffffff"/>
   </g>
   <g id="text_8">
    <path d="M 430.597934 476.230365 
Q 430.13309 476.230365 429.860746 476.548646 
Q 429.589496 476.865834 429.589496 477.419271 
Q 429.589496 477.969427 429.860746 478.289896 
Q 430.13309 478.609271 430.597934 478.609271 
Q 431.062778 478.609271 431.334028 478.289896 
Q 431.605278 477.969427 431.605278 477.419271 
Q 431.605278 476.865834 431.334028 476.548646 
Q 431.062778 476.230365 430.597934 476.230365 
z
M 431.968403 474.065834 
L 431.968403 474.69474 
Q 431.70809 474.57224 431.443403 474.507709 
Q 431.178715 474.442084 430.918403 474.442084 
Q 430.234809 474.442084 429.873871 474.903646 
Q 429.514028 475.365209 429.462621 476.298177 
Q 429.663871 476.000677 429.967934 475.842084 
Q 430.27309 475.68349 430.638403 475.68349 
Q 431.407309 475.68349 431.853559 476.150521 
Q 432.299809 476.616459 432.299809 477.419271 
Q 432.299809 478.205677 431.834965 478.681459 
Q 431.370121 479.156146 430.597934 479.156146 
Q 429.711996 479.156146 429.243871 478.478021 
Q 428.775746 477.798802 428.775746 476.510365 
Q 428.775746 475.300677 429.349965 474.58099 
Q 429.924184 473.861302 430.891059 473.861302 
Q 431.151371 473.861302 431.416059 473.912709 
Q 431.680746 473.964115 431.968403 474.065834 
z
" style="fill: #ffffff; stroke: #000000; stroke-opacity: 0.666667; stroke-width: 2"/>
    <path d="M 430.597934 476.230365 
Q 430.13309 476.230365 429.860746 476.548646 
Q 429.589496 476.865834 429.589496 477.419271 
Q 429.589496 477.969427 429.860746 478.289896 
Q 430.13309 478.609271 430.597934 478.609271 
Q 431.062778 478.609271 431.334028 478.289896 
Q 431.605278 477.969427 431.605278 477.419271 
Q 431.605278 476.865834 431.334028 476.548646 
Q 431.062778 476.230365 430.597934 476.230365 
z
M 431.968403 474.065834 
L 431.968403 474.69474 
Q 431.70809 474.57224 431.443403 474.507709 
Q 431.178715 474.442084 430.918403 474.442084 
Q 430.234809 474.442084 429.873871 474.903646 
Q 429.514028 475.365209 429.462621 476.298177 
Q 429.663871 476.000677 429.967934 475.842084 
Q 430.27309 475.68349 430.638403 475.68349 
Q 431.407309 475.68349 431.853559 476.150521 
Q 432.299809 476.616459 432.299809 477.419271 
Q 432.299809 478.205677 431.834965 478.681459 
Q 431.370121 479.156146 430.597934 479.156146 
Q 429.711996 479.156146 429.243871 478.478021 
Q 428.775746 477.798802 428.775746 476.510365 
Q 428.775746 475.300677 429.349965 474.58099 
Q 429.924184 473.861302 430.891059 473.861302 
Q 431.151371 473.861302 431.416059 473.912709 
Q 431.680746 473.964115 431.968403 474.065834 
z
" style="fill: #ffffff"/>
   </g>
   <g id="text_9">
    <path d="M 357.057845 552.06931 
L 358.185501 552.06931 
L 358.185501 548.17556 
L 356.958314 548.421653 
L 356.958314 547.792747 
L 358.178939 547.546653 
L 358.869095 547.546653 
L 358.869095 552.06931 
L 359.996751 552.06931 
L 359.996751 552.650091 
L 357.057845 552.650091 
L 357.057845 552.06931 
z
M 361.986282 552.06931 
L 364.395814 552.06931 
L 364.395814 552.650091 
L 361.156126 552.650091 
L 361.156126 552.06931 
Q 361.548782 551.662435 362.226907 550.977747 
Q 362.906126 550.291966 363.080032 550.092903 
Q 363.411439 549.721028 363.542689 549.462903 
Q 363.675032 549.204778 363.675032 548.955403 
Q 363.675032 548.548528 363.389564 548.292591 
Q 363.104095 548.03556 362.645814 548.03556 
Q 362.32097 548.03556 361.960032 548.148216 
Q 361.600189 548.260872 361.190032 548.49056 
L 361.190032 547.792747 
Q 361.606751 547.625403 361.968782 547.540091 
Q 362.331907 547.454778 362.632689 547.454778 
Q 363.425657 547.454778 363.897064 547.85181 
Q 364.36847 548.247747 364.36847 548.91056 
Q 364.36847 549.22556 364.250345 549.507747 
Q 364.133314 549.788841 363.821595 550.171653 
Q 363.736282 550.271185 363.278001 550.744778 
Q 362.820814 551.218372 361.986282 552.06931 
z
" style="fill: #ffffff; stroke: #000000; stroke-opacity: 0.666667; stroke-width: 2"/>
    <path d="M 357.057845 552.06931 
L 358.185501 552.06931 
L 358.185501 548.17556 
L 356.958314 548.421653 
L 356.958314 547.792747 
L 358.178939 547.546653 
L 358.869095 547.546653 
L 358.869095 552.06931 
L 359.996751 552.06931 
L 359.996751 552.650091 
L 357.057845 552.650091 
L 357.057845 552.06931 
z
M 361.986282 552.06931 
L 364.395814 552.06931 
L 364.395814 552.650091 
L 361.156126 552.650091 
L 361.156126 552.06931 
Q 361.548782 551.662435 362.226907 550.977747 
Q 362.906126 550.291966 363.080032 550.092903 
Q 363.411439 549.721028 363.542689 549.462903 
Q 363.675032 549.204778 363.675032 548.955403 
Q 363.675032 548.548528 363.389564 548.292591 
Q 363.104095 548.03556 362.645814 548.03556 
Q 362.32097 548.03556 361.960032 548.148216 
Q 361.600189 548.260872 361.190032 548.49056 
L 361.190032 547.792747 
Q 361.606751 547.625403 361.968782 547.540091 
Q 362.331907 547.454778 362.632689 547.454778 
Q 363.425657 547.454778 363.897064 547.85181 
Q 364.36847 548.247747 364.36847 548.91056 
Q 364.36847 549.22556 364.250345 549.507747 
Q 364.133314 549.788841 363.821595 550.171653 
Q 363.736282 550.271185 363.278001 550.744778 
Q 362.820814 551.218372 361.986282 552.06931 
z
" style="fill: #ffffff"/>
   </g>
   <g id="text_10">
    <path d="M 521.781627 451.157169 
L 520.038189 453.8817 
L 521.781627 453.8817 
L 521.781627 451.157169 
z
M 521.600064 450.555606 
L 522.468502 450.555606 
L 522.468502 453.8817 
L 523.196939 453.8817 
L 523.196939 454.455919 
L 522.468502 454.455919 
L 522.468502 455.659044 
L 521.781627 455.659044 
L 521.781627 454.455919 
L 519.478189 454.455919 
L 519.478189 453.789825 
L 521.600064 450.555606 
z
" style="fill: #ffffff; stroke: #000000; stroke-opacity: 0.666667; stroke-width: 2"/>
    <path d="M 521.781627 451.157169 
L 520.038189 453.8817 
L 521.781627 453.8817 
L 521.781627 451.157169 
z
M 521.600064 450.555606 
L 522.468502 450.555606 
L 522.468502 453.8817 
L 523.196939 453.8817 
L 523.196939 454.455919 
L 522.468502 454.455919 
L 522.468502 455.659044 
L 521.781627 455.659044 
L 521.781627 454.455919 
L 519.478189 454.455919 
L 519.478189 453.789825 
L 521.600064 450.555606 
z
" style="fill: #ffffff"/>
   </g>
   <g id="text_11">
    <path d="M 510.506407 371.278122 
L 513.787657 371.278122 
L 513.787657 371.572341 
L 511.934844 376.38156 
L 511.214063 376.38156 
L 512.957501 371.859997 
L 510.506407 371.859997 
L 510.506407 371.278122 
z
" style="fill: #ffffff; stroke: #000000; stroke-opacity: 0.666667; stroke-width: 2"/>
    <path d="M 510.506407 371.278122 
L 513.787657 371.278122 
L 513.787657 371.572341 
L 511.934844 376.38156 
L 511.214063 376.38156 
L 512.957501 371.859997 
L 510.506407 371.859997 
L 510.506407 371.278122 
z
" style="fill: #ffffff"/>
   </g>
   <g id="text_12">
    <path d="M 512.136457 306.208003 
L 513.264113 306.208003 
L 513.264113 302.314253 
L 512.036925 302.560347 
L 512.036925 301.93144 
L 513.25755 301.685347 
L 513.947707 301.685347 
L 513.947707 306.208003 
L 515.075363 306.208003 
L 515.075363 306.788784 
L 512.136457 306.788784 
L 512.136457 306.208003 
z
M 517.946457 302.140347 
Q 517.4138 302.140347 517.144738 302.665347 
Q 516.876769 303.189253 516.876769 304.242534 
Q 516.876769 305.29144 517.144738 305.81644 
Q 517.4138 306.34144 517.946457 306.34144 
Q 518.483488 306.34144 518.751457 305.81644 
Q 519.020519 305.29144 519.020519 304.242534 
Q 519.020519 303.189253 518.751457 302.665347 
Q 518.483488 302.140347 517.946457 302.140347 
z
M 517.946457 301.593472 
Q 518.80505 301.593472 519.257863 302.27269 
Q 519.710675 302.950815 519.710675 304.242534 
Q 519.710675 305.530972 519.257863 306.21019 
Q 518.80505 306.888315 517.946457 306.888315 
Q 517.088957 306.888315 516.636144 306.21019 
Q 516.183332 305.530972 516.183332 304.242534 
Q 516.183332 302.950815 516.636144 302.27269 
Q 517.088957 301.593472 517.946457 301.593472 
z
" style="fill: #ffffff; stroke: #000000; stroke-opacity: 0.666667; stroke-width: 2"/>
    <path d="M 512.136457 306.208003 
L 513.264113 306.208003 
L 513.264113 302.314253 
L 512.036925 302.560347 
L 512.036925 301.93144 
L 513.25755 301.685347 
L 513.947707 301.685347 
L 513.947707 306.208003 
L 515.075363 306.208003 
L 515.075363 306.788784 
L 512.136457 306.788784 
L 512.136457 306.208003 
z
M 517.946457 302.140347 
Q 517.4138 302.140347 517.144738 302.665347 
Q 516.876769 303.189253 516.876769 304.242534 
Q 516.876769 305.29144 517.144738 305.81644 
Q 517.4138 306.34144 517.946457 306.34144 
Q 518.483488 306.34144 518.751457 305.81644 
Q 519.020519 305.29144 519.020519 304.242534 
Q 519.020519 303.189253 518.751457 302.665347 
Q 518.483488 302.140347 517.946457 302.140347 
z
M 517.946457 301.593472 
Q 518.80505 301.593472 519.257863 302.27269 
Q 519.710675 302.950815 519.710675 304.242534 
Q 519.710675 305.530972 519.257863 306.21019 
Q 518.80505 306.888315 517.946457 306.888315 
Q 517.088957 306.888315 516.636144 306.21019 
Q 516.183332 305.530972 516.183332 304.242534 
Q 516.183332 302.950815 516.636144 302.27269 
Q 517.088957 301.593472 517.946457 301.593472 
z
" style="fill: #ffffff"/>
   </g>
   <g id="text_13">
    <path d="M 453.111741 542.807771 
L 454.239397 542.807771 
L 454.239397 538.914021 
L 453.01221 539.160115 
L 453.01221 538.531209 
L 454.232835 538.285115 
L 454.922991 538.285115 
L 454.922991 542.807771 
L 456.050647 542.807771 
L 456.050647 543.388552 
L 453.111741 543.388552 
L 453.111741 542.807771 
z
M 457.565491 542.807771 
L 458.693147 542.807771 
L 458.693147 538.914021 
L 457.46596 539.160115 
L 457.46596 538.531209 
L 458.686585 538.285115 
L 459.376741 538.285115 
L 459.376741 542.807771 
L 460.504397 542.807771 
L 460.504397 543.388552 
L 457.565491 543.388552 
L 457.565491 542.807771 
z
" style="fill: #ffffff; stroke: #000000; stroke-opacity: 0.666667; stroke-width: 2"/>
    <path d="M 453.111741 542.807771 
L 454.239397 542.807771 
L 454.239397 538.914021 
L 453.01221 539.160115 
L 453.01221 538.531209 
L 454.232835 538.285115 
L 454.922991 538.285115 
L 454.922991 542.807771 
L 456.050647 542.807771 
L 456.050647 543.388552 
L 453.111741 543.388552 
L 453.111741 542.807771 
z
M 457.565491 542.807771 
L 458.693147 542.807771 
L 458.693147 538.914021 
L 457.46596 539.160115 
L 457.46596 538.531209 
L 458.686585 538.285115 
L 459.376741 538.285115 
L 459.376741 542.807771 
L 460.504397 542.807771 
L 460.504397 543.388552 
L 457.565491 543.388552 
L 457.565491 542.807771 
z
" style="fill: #ffffff"/>
   </g>
  </g>
  <g id="text_14">
   <!-- 05-priority-heavy-no-priority-uld — container 0 — how it is stacked (Layer 1 + Layer 2) -->
   <g transform="translate(135.169688 23.518125) scale(0.12 -0.12)">
    <defs>
     <path id="DejaVuSans-13" d="M 2034 4250 
Q 1547 4250 1301 3770 
Q 1056 3291 1056 2328 
Q 1056 1369 1301 889 
Q 1547 409 2034 409 
Q 2525 409 2770 889 
Q 3016 1369 3016 2328 
Q 3016 3291 2770 3770 
Q 2525 4250 2034 4250 
z
M 2034 4750 
Q 2819 4750 3233 4129 
Q 3647 3509 3647 2328 
Q 3647 1150 3233 529 
Q 2819 -91 2034 -91 
Q 1250 -91 836 529 
Q 422 1150 422 2328 
Q 422 3509 836 4129 
Q 1250 4750 2034 4750 
z
" transform="scale(0.015625)"/>
     <path id="DejaVuSans-18" d="M 691 4666 
L 3169 4666 
L 3169 4134 
L 1269 4134 
L 1269 2991 
Q 1406 3038 1543 3061 
Q 1681 3084 1819 3084 
Q 2600 3084 3056 2656 
Q 3513 2228 3513 1497 
Q 3513 744 3044 326 
Q 2575 -91 1722 -91 
Q 1428 -91 1123 -41 
Q 819 9 494 109 
L 494 744 
Q 775 591 1075 516 
Q 1375 441 1709 441 
Q 2250 441 2565 725 
Q 2881 1009 2881 1497 
Q 2881 1984 2565 2268 
Q 2250 2553 1709 2553 
Q 1456 2553 1204 2497 
Q 953 2441 691 2322 
L 691 4666 
z
" transform="scale(0.015625)"/>
     <path id="DejaVuSans-10" d="M 313 2009 
L 1997 2009 
L 1997 1497 
L 313 1497 
L 313 2009 
z
" transform="scale(0.015625)"/>
     <path id="DejaVuSans-53" d="M 1159 525 
L 1159 -1331 
L 581 -1331 
L 581 3500 
L 1159 3500 
L 1159 2969 
Q 1341 3281 1617 3432 
Q 1894 3584 2278 3584 
Q 2916 3584 3314 3078 
Q 3713 2572 3713 1747 
Q 3713 922 3314 415 
Q 2916 -91 2278 -91 
Q 1894 -91 1617 61 
Q 1341 213 1159 525 
z
M 3116 1747 
Q 3116 2381 2855 2742 
Q 2594 3103 2138 3103 
Q 1681 3103 1420 2742 
Q 1159 2381 1159 1747 
Q 1159 1113 1420 752 
Q 1681 391 2138 391 
Q 2594 391 2855 752 
Q 3116 1113 3116 1747 
z
" transform="scale(0.015625)"/>
     <path id="DejaVuSans-55" d="M 2631 2963 
Q 2534 3019 2420 3045 
Q 2306 3072 2169 3072 
Q 1681 3072 1420 2755 
Q 1159 2438 1159 1844 
L 1159 0 
L 581 0 
L 581 3500 
L 1159 3500 
L 1159 2956 
Q 1341 3275 1631 3429 
Q 1922 3584 2338 3584 
Q 2397 3584 2469 3576 
Q 2541 3569 2628 3553 
L 2631 2963 
z
" transform="scale(0.015625)"/>
     <path id="DejaVuSans-4c" d="M 603 3500 
L 1178 3500 
L 1178 0 
L 603 0 
L 603 3500 
z
M 603 4863 
L 1178 4863 
L 1178 4134 
L 603 4134 
L 603 4863 
z
" transform="scale(0.015625)"/>
     <path id="DejaVuSans-52" d="M 1959 3097 
Q 1497 3097 1228 2736 
Q 959 2375 959 1747 
Q 959 1119 1226 758 
Q 1494 397 1959 397 
Q 2419 397 2687 759 
Q 2956 1122 2956 1747 
Q 2956 2369 2687 2733 
Q 2419 3097 1959 3097 
z
M 1959 3584 
Q 2709 3584 3137 3096 
Q 3566 2609 3566 1747 
Q 3566 888 3137 398 
Q 2709 -91 1959 -91 
Q 1206 -91 779 398 
Q 353 888 353 1747 
Q 353 2609 779 3096 
Q 1206 3584 1959 3584 
z
" transform="scale(0.015625)"/>
     <path id="DejaVuSans-57" d="M 1172 4494 
L 1172 3500 
L 2356 3500 
L 2356 3053 
L 1172 3053 
L 1172 1153 
Q 1172 725 1289 603 
Q 1406 481 1766 481 
L 2356 481 
L 2356 0 
L 1766 0 
Q 1100 0 847 248 
Q 594 497 594 1153 
L 594 3053 
L 172 3053 
L 172 3500 
L 594 3500 
L 594 4494 
L 1172 4494 
z
" transform="scale(0.015625)"/>
     <path id="DejaVuSans-5c" d="M 2059 -325 
Q 1816 -950 1584 -1140 
Q 1353 -1331 966 -1331 
L 506 -1331 
L 506 -850 
L 844 -850 
Q 1081 -850 1212 -737 
Q 1344 -625 1503 -206 
L 1606 56 
L 191 3500 
L 800 3500 
L 1894 763 
L 2988 3500 
L 3597 3500 
L 2059 -325 
z
" transform="scale(0.015625)"/>
     <path id="DejaVuSans-4b" d="M 3513 2113 
L 3513 0 
L 2938 0 
L 2938 2094 
Q 2938 2591 2744 2837 
Q 2550 3084 2163 3084 
Q 1697 3084 1428 2787 
Q 1159 2491 1159 1978 
L 1159 0 
L 581 0 
L 581 4863 
L 1159 4863 
L 1159 2956 
Q 1366 3272 1645 3428 
Q 1925 3584 2291 3584 
Q 2894 3584 3203 3211 
Q 3513 2838 3513 2113 
z
" transform="scale(0.015625)"/>
     <path id="DejaVuSans-48" d="M 3597 1894 
L 3597 1613 
L 953 1613 
Q 991 1019 1311 708 
Q 1631 397 2203 397 
Q 2534 397 2845 478 
Q 3156 559 3463 722 
L 3463 178 
Q 3153 47 2828 -22 
Q 2503 -91 2169 -91 
Q 1331 -91 842 396 
Q 353 884 353 1716 
Q 353 2575 817 3079 
Q 1281 3584 2069 3584 
Q 2775 3584 3186 3129 
Q 3597 2675 3597 1894 
z
M 3022 2063 
Q 3016 2534 2758 2815 
Q 2500 3097 2075 3097 
Q 1594 3097 1305 2825 
Q 1016 2553 972 2059 
L 3022 2063 
z
" transform="scale(0.015625)"/>
     <path id="DejaVuSans-44" d="M 2194 1759 
Q 1497 1759 1228 1600 
Q 959 1441 959 1056 
Q 959 750 1161 570 
Q 1363 391 1709 391 
Q 2188 391 2477 730 
Q 2766 1069 2766 1631 
L 2766 1759 
L 2194 1759 
z
M 3341 1997 
L 3341 0 
L 2766 0 
L 2766 531 
Q 2569 213 2275 61 
Q 1981 -91 1556 -91 
Q 1019 -91 701 211 
Q 384 513 384 1019 
Q 384 1609 779 1909 
Q 1175 2209 1959 2209 
L 2766 2209 
L 2766 2266 
Q 2766 2663 2505 2880 
Q 2244 3097 1772 3097 
Q 1472 3097 1187 3025 
Q 903 2953 641 2809 
L 641 3341 
Q 956 3463 1253 3523 
Q 1550 3584 1831 3584 
Q 2591 3584 2966 3190 
Q 3341 2797 3341 1997 
z
" transform="scale(0.015625)"/>
     <path id="DejaVuSans-59" d="M 191 3500 
L 800 3500 
L 1894 563 
L 2988 3500 
L 3597 3500 
L 2284 0 
L 1503 0 
L 191 3500 
z
" transform="scale(0.015625)"/>
     <path id="DejaVuSans-51" d="M 3513 2113 
L 3513 0 
L 2938 0 
L 2938 2094 
Q 2938 2591 2744 2837 
Q 2550 3084 2163 3084 
Q 1697 3084 1428 2787 
Q 1159 2491 1159 1978 
L 1159 0 
L 581 0 
L 581 3500 
L 1159 3500 
L 1159 2956 
Q 1366 3272 1645 3428 
Q 1925 3584 2291 3584 
Q 2894 3584 3203 3211 
Q 3513 2838 3513 2113 
z
" transform="scale(0.015625)"/>
     <path id="DejaVuSans-58" d="M 544 1381 
L 544 3500 
L 1119 3500 
L 1119 1403 
Q 1119 906 1312 657 
Q 1506 409 1894 409 
Q 2359 409 2629 706 
Q 2900 1003 2900 1516 
L 2900 3500 
L 3475 3500 
L 3475 0 
L 2900 0 
L 2900 538 
Q 2691 219 2414 64 
Q 2138 -91 1772 -91 
Q 1169 -91 856 284 
Q 544 659 544 1381 
z
M 1991 3584 
L 1991 3584 
z
" transform="scale(0.015625)"/>
     <path id="DejaVuSans-4f" d="M 603 4863 
L 1178 4863 
L 1178 0 
L 603 0 
L 603 4863 
z
" transform="scale(0.015625)"/>
     <path id="DejaVuSans-47" d="M 2906 2969 
L 2906 4863 
L 3481 4863 
L 3481 0 
L 2906 0 
L 2906 525 
Q 2725 213 2448 61 
Q 2172 -91 1784 -91 
Q 1150 -91 751 415 
Q 353 922 353 1747 
Q 353 2572 751 3078 
Q 1150 3584 1784 3584 
Q 2172 3584 2448 3432 
Q 2725 3281 2906 2969 
z
M 947 1747 
Q 947 1113 1208 752 
Q 1469 391 1925 391 
Q 2381 391 2643 752 
Q 2906 1113 2906 1747 
Q 2906 2381 2643 2742 
Q 2381 3103 1925 3103 
Q 1469 3103 1208 2742 
Q 947 2381 947 1747 
z
" transform="scale(0.015625)"/>
     <path id="DejaVuSans-3" transform="scale(0.015625)"/>
     <path id="DejaVuSans-af6" d="M 313 1978 
L 6088 1978 
L 6088 1528 
L 313 1528 
L 313 1978 
z
" transform="scale(0.015625)"/>
     <path id="DejaVuSans-46" d="M 3122 3366 
L 3122 2828 
Q 2878 2963 2633 3030 
Q 2388 3097 2138 3097 
Q 1578 3097 1268 2742 
Q 959 2388 959 1747 
Q 959 1106 1268 751 
Q 1578 397 2138 397 
Q 2388 397 2633 464 
Q 2878 531 3122 666 
L 3122 134 
Q 2881 22 2623 -34 
Q 2366 -91 2075 -91 
Q 1284 -91 818 406 
Q 353 903 353 1747 
Q 353 2603 823 3093 
Q 1294 3584 2113 3584 
Q 2378 3584 2631 3529 
Q 2884 3475 3122 3366 
z
" transform="scale(0.015625)"/>
     <path id="DejaVuSans-5a" d="M 269 3500 
L 844 3500 
L 1563 769 
L 2278 3500 
L 2956 3500 
L 3675 769 
L 4391 3500 
L 4966 3500 
L 4050 0 
L 3372 0 
L 2619 2869 
L 1863 0 
L 1184 0 
L 269 3500 
z
" transform="scale(0.015625)"/>
     <path id="DejaVuSans-56" d="M 2834 3397 
L 2834 2853 
Q 2591 2978 2328 3040 
Q 2066 3103 1784 3103 
Q 1356 3103 1142 2972 
Q 928 2841 928 2578 
Q 928 2378 1081 2264 
Q 1234 2150 1697 2047 
L 1894 2003 
Q 2506 1872 2764 1633 
Q 3022 1394 3022 966 
Q 3022 478 2636 193 
Q 2250 -91 1575 -91 
Q 1294 -91 989 -36 
Q 684 19 347 128 
L 347 722 
Q 666 556 975 473 
Q 1284 391 1588 391 
Q 1994 391 2212 530 
Q 2431 669 2431 922 
Q 2431 1156 2273 1281 
Q 2116 1406 1581 1522 
L 1381 1569 
Q 847 1681 609 1914 
Q 372 2147 372 2553 
Q 372 3047 722 3315 
Q 1072 3584 1716 3584 
Q 2034 3584 2315 3537 
Q 2597 3491 2834 3397 
z
" transform="scale(0.015625)"/>
     <path id="DejaVuSans-4e" d="M 581 4863 
L 1159 4863 
L 1159 1991 
L 2875 3500 
L 3609 3500 
L 1753 1863 
L 3688 0 
L 2938 0 
L 1159 1709 
L 1159 0 
L 581 0 
L 581 4863 
z
" transform="scale(0.015625)"/>
     <path id="DejaVuSans-b" d="M 1984 4856 
Q 1566 4138 1362 3434 
Q 1159 2731 1159 2009 
Q 1159 1288 1364 580 
Q 1569 -128 1984 -844 
L 1484 -844 
Q 1016 -109 783 600 
Q 550 1309 550 2009 
Q 550 2706 781 3412 
Q 1013 4119 1484 4856 
L 1984 4856 
z
" transform="scale(0.015625)"/>
     <path id="DejaVuSans-2f" d="M 628 4666 
L 1259 4666 
L 1259 531 
L 3531 531 
L 3531 0 
L 628 0 
L 628 4666 
z
" transform="scale(0.015625)"/>
     <path id="DejaVuSans-14" d="M 794 531 
L 1825 531 
L 1825 4091 
L 703 3866 
L 703 4441 
L 1819 4666 
L 2450 4666 
L 2450 531 
L 3481 531 
L 3481 0 
L 794 0 
L 794 531 
z
" transform="scale(0.015625)"/>
     <path id="DejaVuSans-e" d="M 2944 4013 
L 2944 2272 
L 4684 2272 
L 4684 1741 
L 2944 1741 
L 2944 0 
L 2419 0 
L 2419 1741 
L 678 1741 
L 678 2272 
L 2419 2272 
L 2419 4013 
L 2944 4013 
z
" transform="scale(0.015625)"/>
     <path id="DejaVuSans-15" d="M 1228 531 
L 3431 531 
L 3431 0 
L 469 0 
L 469 531 
Q 828 903 1448 1529 
Q 2069 2156 2228 2338 
Q 2531 2678 2651 2914 
Q 2772 3150 2772 3378 
Q 2772 3750 2511 3984 
Q 2250 4219 1831 4219 
Q 1534 4219 1204 4116 
Q 875 4013 500 3803 
L 500 4441 
Q 881 4594 1212 4672 
Q 1544 4750 1819 4750 
Q 2544 4750 2975 4387 
Q 3406 4025 3406 3419 
Q 3406 3131 3298 2873 
Q 3191 2616 2906 2266 
Q 2828 2175 2409 1742 
Q 1991 1309 1228 531 
z
" transform="scale(0.015625)"/>
     <path id="DejaVuSans-c" d="M 513 4856 
L 1013 4856 
Q 1481 4119 1714 3412 
Q 1947 2706 1947 2009 
Q 1947 1309 1714 600 
Q 1481 -109 1013 -844 
L 513 -844 
Q 928 -128 1133 580 
Q 1338 1288 1338 2009 
Q 1338 2731 1133 3434 
Q 928 4138 513 4856 
z
" transform="scale(0.015625)"/>
    </defs>
    <use xlink:href="#DejaVuSans-13"/>
    <use xlink:href="#DejaVuSans-18" transform="translate(63.625 0)"/>
    <use xlink:href="#DejaVuSans-10" transform="translate(127.25 0)"/>
    <use xlink:href="#DejaVuSans-53" transform="translate(163.328125 0)"/>
    <use xlink:href="#DejaVuSans-55" transform="translate(226.8125 0)"/>
    <use xlink:href="#DejaVuSans-4c" transform="translate(267.921875 0)"/>
    <use xlink:href="#DejaVuSans-52" transform="translate(295.703125 0)"/>
    <use xlink:href="#DejaVuSans-55" transform="translate(356.890625 0)"/>
    <use xlink:href="#DejaVuSans-4c" transform="translate(398 0)"/>
    <use xlink:href="#DejaVuSans-57" transform="translate(425.78125 0)"/>
    <use xlink:href="#DejaVuSans-5c" transform="translate(464.984375 0)"/>
    <use xlink:href="#DejaVuSans-10" transform="translate(522.421875 0)"/>
    <use xlink:href="#DejaVuSans-4b" transform="translate(558.5 0)"/>
    <use xlink:href="#DejaVuSans-48" transform="translate(621.875 0)"/>
    <use xlink:href="#DejaVuSans-44" transform="translate(683.40625 0)"/>
    <use xlink:href="#DejaVuSans-59" transform="translate(744.6875 0)"/>
    <use xlink:href="#DejaVuSans-5c" transform="translate(803.875 0)"/>
    <use xlink:href="#DejaVuSans-10" transform="translate(861.3125 0)"/>
    <use xlink:href="#DejaVuSans-51" transform="translate(897.390625 0)"/>
    <use xlink:href="#DejaVuSans-52" transform="translate(960.765625 0)"/>
    <use xlink:href="#DejaVuSans-10" transform="translate(1023.8125 0)"/>
    <use xlink:href="#DejaVuSans-53" transform="translate(1059.890625 0)"/>
    <use xlink:href="#DejaVuSans-55" transform="translate(1123.375 0)"/>
    <use xlink:href="#DejaVuSans-4c" transform="translate(1164.484375 0)"/>
    <use xlink:href="#DejaVuSans-52" transform="translate(1192.265625 0)"/>
    <use xlink:href="#DejaVuSans-55" transform="translate(1253.453125 0)"/>
    <use xlink:href="#DejaVuSans-4c" transform="translate(1294.5625 0)"/>
    <use xlink:href="#DejaVuSans-57" transform="translate(1322.34375 0)"/>
    <use xlink:href="#DejaVuSans-5c" transform="translate(1361.546875 0)"/>
    <use xlink:href="#DejaVuSans-10" transform="translate(1418.984375 0)"/>
    <use xlink:href="#DejaVuSans-58" transform="translate(1455.0625 0)"/>
    <use xlink:href="#DejaVuSans-4f" transform="translate(1518.4375 0)"/>
    <use xlink:href="#DejaVuSans-47" transform="translate(1546.21875 0)"/>
    <use xlink:href="#DejaVuSans-3" transform="translate(1609.703125 0)"/>
    <use xlink:href="#DejaVuSans-af6" transform="translate(1641.484375 0)"/>
    <use xlink:href="#DejaVuSans-3" transform="translate(1741.484375 0)"/>
    <use xlink:href="#DejaVuSans-46" transform="translate(1773.265625 0)"/>
    <use xlink:href="#DejaVuSans-52" transform="translate(1828.25 0)"/>
    <use xlink:href="#DejaVuSans-51" transform="translate(1889.4375 0)"/>
    <use xlink:href="#DejaVuSans-57" transform="translate(1952.8125 0)"/>
    <use xlink:href="#DejaVuSans-44" transform="translate(1992.015625 0)"/>
    <use xlink:href="#DejaVuSans-4c" transform="translate(2053.296875 0)"/>
    <use xlink:href="#DejaVuSans-51" transform="translate(2081.078125 0)"/>
    <use xlink:href="#DejaVuSans-48" transform="translate(2144.453125 0)"/>
    <use xlink:href="#DejaVuSans-55" transform="translate(2205.984375 0)"/>
    <use xlink:href="#DejaVuSans-3" transform="translate(2247.09375 0)"/>
    <use xlink:href="#DejaVuSans-13" transform="translate(2278.875 0)"/>
    <use xlink:href="#DejaVuSans-3" transform="translate(2342.5 0)"/>
    <use xlink:href="#DejaVuSans-af6" transform="translate(2374.28125 0)"/>
    <use xlink:href="#DejaVuSans-3" transform="translate(2474.28125 0)"/>
    <use xlink:href="#DejaVuSans-4b" transform="translate(2506.0625 0)"/>
    <use xlink:href="#DejaVuSans-52" transform="translate(2569.4375 0)"/>
    <use xlink:href="#DejaVuSans-5a" transform="translate(2630.625 0)"/>
    <use xlink:href="#DejaVuSans-3" transform="translate(2712.40625 0)"/>
    <use xlink:href="#DejaVuSans-4c" transform="translate(2744.1875 0)"/>
    <use xlink:href="#DejaVuSans-57" transform="translate(2771.96875 0)"/>
    <use xlink:href="#DejaVuSans-3" transform="translate(2811.171875 0)"/>
    <use xlink:href="#DejaVuSans-4c" transform="translate(2842.953125 0)"/>
    <use xlink:href="#DejaVuSans-56" transform="translate(2870.734375 0)"/>
    <use xlink:href="#DejaVuSans-3" transform="translate(2922.828125 0)"/>
    <use xlink:href="#DejaVuSans-56" transform="translate(2954.609375 0)"/>
    <use xlink:href="#DejaVuSans-57" transform="translate(3006.703125 0)"/>
    <use xlink:href="#DejaVuSans-44" transform="translate(3045.90625 0)"/>
    <use xlink:href="#DejaVuSans-46" transform="translate(3107.1875 0)"/>
    <use xlink:href="#DejaVuSans-4e" transform="translate(3162.171875 0)"/>
    <use xlink:href="#DejaVuSans-48" transform="translate(3216.515625 0)"/>
    <use xlink:href="#DejaVuSans-47" transform="translate(3278.046875 0)"/>
    <use xlink:href="#DejaVuSans-3" transform="translate(3341.53125 0)"/>
    <use xlink:href="#DejaVuSans-b" transform="translate(3373.3125 0)"/>
    <use xlink:href="#DejaVuSans-2f" transform="translate(3412.328125 0)"/>
    <use xlink:href="#DejaVuSans-44" transform="translate(3468.046875 0)"/>
    <use xlink:href="#DejaVuSans-5c" transform="translate(3529.328125 0)"/>
    <use xlink:href="#DejaVuSans-48" transform="translate(3588.515625 0)"/>
    <use xlink:href="#DejaVuSans-55" transform="translate(3650.046875 0)"/>
    <use xlink:href="#DejaVuSans-3" transform="translate(3691.15625 0)"/>
    <use xlink:href="#DejaVuSans-14" transform="translate(3722.9375 0)"/>
    <use xlink:href="#DejaVuSans-3" transform="translate(3786.5625 0)"/>
    <use xlink:href="#DejaVuSans-e" transform="translate(3818.34375 0)"/>
    <use xlink:href="#DejaVuSans-3" transform="translate(3902.140625 0)"/>
    <use xlink:href="#DejaVuSans-2f" transform="translate(3933.921875 0)"/>
    <use xlink:href="#DejaVuSans-44" transform="translate(3989.640625 0)"/>
    <use xlink:href="#DejaVuSans-5c" transform="translate(4050.921875 0)"/>
    <use xlink:href="#DejaVuSans-48" transform="translate(4110.109375 0)"/>
    <use xlink:href="#DejaVuSans-55" transform="translate(4171.640625 0)"/>
    <use xlink:href="#DejaVuSans-3" transform="translate(4212.75 0)"/>
    <use xlink:href="#DejaVuSans-15" transform="translate(4244.53125 0)"/>
    <use xlink:href="#DejaVuSans-c" transform="translate(4308.15625 0)"/>
   </g>
  </g>
  <g id="legend_1">
   <g id="patch_46">
    <path d="M 140.942422 691.017266 
L 154.942422 691.017266 
L 154.942422 686.117266 
L 140.942422 686.117266 
z
" style="fill: #c8a06a; stroke: #333333; stroke-linejoin: miter"/>
   </g>
   <g id="text_15">
    <!-- normal-hard -->
    <g transform="translate(160.542422 691.017266) scale(0.07 -0.07)">
     <defs>
      <path id="DejaVuSans-50" d="M 3328 2828 
Q 3544 3216 3844 3400 
Q 4144 3584 4550 3584 
Q 5097 3584 5394 3201 
Q 5691 2819 5691 2113 
L 5691 0 
L 5113 0 
L 5113 2094 
Q 5113 2597 4934 2840 
Q 4756 3084 4391 3084 
Q 3944 3084 3684 2787 
Q 3425 2491 3425 1978 
L 3425 0 
L 2847 0 
L 2847 2094 
Q 2847 2600 2669 2842 
Q 2491 3084 2119 3084 
Q 1678 3084 1418 2786 
Q 1159 2488 1159 1978 
L 1159 0 
L 581 0 
L 581 3500 
L 1159 3500 
L 1159 2956 
Q 1356 3278 1631 3431 
Q 1906 3584 2284 3584 
Q 2666 3584 2933 3390 
Q 3200 3197 3328 2828 
z
" transform="scale(0.015625)"/>
     </defs>
     <use xlink:href="#DejaVuSans-51"/>
     <use xlink:href="#DejaVuSans-52" transform="translate(63.375 0)"/>
     <use xlink:href="#DejaVuSans-55" transform="translate(124.5625 0)"/>
     <use xlink:href="#DejaVuSans-50" transform="translate(163.921875 0)"/>
     <use xlink:href="#DejaVuSans-44" transform="translate(261.328125 0)"/>
     <use xlink:href="#DejaVuSans-4f" transform="translate(322.609375 0)"/>
     <use xlink:href="#DejaVuSans-10" transform="translate(350.390625 0)"/>
     <use xlink:href="#DejaVuSans-4b" transform="translate(386.46875 0)"/>
     <use xlink:href="#DejaVuSans-44" transform="translate(449.84375 0)"/>
     <use xlink:href="#DejaVuSans-55" transform="translate(511.125 0)"/>
     <use xlink:href="#DejaVuSans-47" transform="translate(550.484375 0)"/>
    </g>
   </g>
   <g id="patch_47">
    <path d="M 140.942422 701.517812 
L 154.942422 701.517812 
L 154.942422 696.617813 
L 140.942422 696.617813 
z
" style="fill: #5b8dd9; stroke: #333333; stroke-linejoin: miter"/>
   </g>
   <g id="text_16">
    <!-- soft -->
    <g transform="translate(160.542422 701.517812) scale(0.07 -0.07)">
     <defs>
      <path id="DejaVuSans-49" d="M 2375 4863 
L 2375 4384 
L 1825 4384 
Q 1516 4384 1395 4259 
Q 1275 4134 1275 3809 
L 1275 3500 
L 2222 3500 
L 2222 3053 
L 1275 3053 
L 1275 0 
L 697 0 
L 697 3053 
L 147 3053 
L 147 3500 
L 697 3500 
L 697 3744 
Q 697 4328 969 4595 
Q 1241 4863 1831 4863 
L 2375 4863 
z
" transform="scale(0.015625)"/>
     </defs>
     <use xlink:href="#DejaVuSans-56"/>
     <use xlink:href="#DejaVuSans-52" transform="translate(52.09375 0)"/>
     <use xlink:href="#DejaVuSans-49" transform="translate(113.28125 0)"/>
     <use xlink:href="#DejaVuSans-57" transform="translate(146.734375 0)"/>
    </g>
   </g>
   <g id="patch_48">
    <path d="M 140.942422 712.018359 
L 154.942422 712.018359 
L 154.942422 707.118359 
L 140.942422 707.118359 
z
" style="fill: #5fbf6a; stroke: #333333; stroke-linejoin: miter"/>
   </g>
   <g id="text_17">
    <!-- priority -->
    <g transform="translate(160.542422 712.018359) scale(0.07 -0.07)">
     <use xlink:href="#DejaVuSans-53"/>
     <use xlink:href="#DejaVuSans-55" transform="translate(63.484375 0)"/>
     <use xlink:href="#DejaVuSans-4c" transform="translate(104.59375 0)"/>
     <use xlink:href="#DejaVuSans-52" transform="translate(132.375 0)"/>
     <use xlink:href="#DejaVuSans-55" transform="translate(193.5625 0)"/>
     <use xlink:href="#DejaVuSans-4c" transform="translate(234.671875 0)"/>
     <use xlink:href="#DejaVuSans-57" transform="translate(262.453125 0)"/>
     <use xlink:href="#DejaVuSans-5c" transform="translate(301.65625 0)"/>
    </g>
   </g>
   <g id="patch_49">
    <path d="M 217.520234 691.017266 
L 231.520234 691.017266 
L 231.520234 686.117266 
L 217.520234 686.117266 
z
" style="fill: #9b6fd0; stroke: #333333; stroke-linejoin: miter"/>
   </g>
   <g id="text_18">
    <!-- soft-priority -->
    <g transform="translate(237.120234 691.017266) scale(0.07 -0.07)">
     <use xlink:href="#DejaVuSans-56"/>
     <use xlink:href="#DejaVuSans-52" transform="translate(52.09375 0)"/>
     <use xlink:href="#DejaVuSans-49" transform="translate(113.28125 0)"/>
     <use xlink:href="#DejaVuSans-57" transform="translate(146.734375 0)"/>
     <use xlink:href="#DejaVuSans-10" transform="translate(185.9375 0)"/>
     <use xlink:href="#DejaVuSans-53" transform="translate(222.015625 0)"/>
     <use xlink:href="#DejaVuSans-55" transform="translate(285.5 0)"/>
     <use xlink:href="#DejaVuSans-4c" transform="translate(326.609375 0)"/>
     <use xlink:href="#DejaVuSans-52" transform="translate(354.390625 0)"/>
     <use xlink:href="#DejaVuSans-55" transform="translate(415.578125 0)"/>
     <use xlink:href="#DejaVuSans-4c" transform="translate(456.6875 0)"/>
     <use xlink:href="#DejaVuSans-57" transform="translate(484.46875 0)"/>
     <use xlink:href="#DejaVuSans-5c" transform="translate(523.671875 0)"/>
    </g>
   </g>
   <g id="line2d_6">
    <path d="M 217.520234 699.067812 
L 224.520234 699.067812 
L 231.520234 699.067812 
" style="fill: none; stroke: #c0392b; stroke-width: 2.4; stroke-linecap: square"/>
   </g>
   <g id="text_19">
    <!-- role: wall-front -->
    <g transform="translate(237.120234 701.517812) scale(0.07 -0.07)">
     <defs>
      <path id="DejaVuSans-1d" d="M 750 794 
L 1409 794 
L 1409 0 
L 750 0 
L 750 794 
z
M 750 3309 
L 1409 3309 
L 1409 2516 
L 750 2516 
L 750 3309 
z
" transform="scale(0.015625)"/>
     </defs>
     <use xlink:href="#DejaVuSans-55"/>
     <use xlink:href="#DejaVuSans-52" transform="translate(38.90625 0)"/>
     <use xlink:href="#DejaVuSans-4f" transform="translate(100.09375 0)"/>
     <use xlink:href="#DejaVuSans-48" transform="translate(127.875 0)"/>
     <use xlink:href="#DejaVuSans-1d" transform="translate(189.40625 0)"/>
     <use xlink:href="#DejaVuSans-3" transform="translate(223.09375 0)"/>
     <use xlink:href="#DejaVuSans-5a" transform="translate(254.875 0)"/>
     <use xlink:href="#DejaVuSans-44" transform="translate(336.65625 0)"/>
     <use xlink:href="#DejaVuSans-4f" transform="translate(397.9375 0)"/>
     <use xlink:href="#DejaVuSans-4f" transform="translate(425.71875 0)"/>
     <use xlink:href="#DejaVuSans-10" transform="translate(453.5 0)"/>
     <use xlink:href="#DejaVuSans-49" transform="translate(489.578125 0)"/>
     <use xlink:href="#DejaVuSans-55" transform="translate(524.78125 0)"/>
     <use xlink:href="#DejaVuSans-52" transform="translate(563.6875 0)"/>
     <use xlink:href="#DejaVuSans-51" transform="translate(624.875 0)"/>
     <use xlink:href="#DejaVuSans-57" transform="translate(688.25 0)"/>
    </g>
   </g>
   <g id="line2d_7">
    <path d="M 302.041953 688.567266 
L 309.041953 688.567266 
L 316.041953 688.567266 
" style="fill: none; stroke-dasharray: 7.4,3.2; stroke-dashoffset: 0; stroke: #e07b00; stroke-width: 2"/>
   </g>
   <g id="text_20">
    <!-- role: elongated -->
    <g transform="translate(321.641953 691.017266) scale(0.07 -0.07)">
     <defs>
      <path id="DejaVuSans-4a" d="M 2906 1791 
Q 2906 2416 2648 2759 
Q 2391 3103 1925 3103 
Q 1463 3103 1205 2759 
Q 947 2416 947 1791 
Q 947 1169 1205 825 
Q 1463 481 1925 481 
Q 2391 481 2648 825 
Q 2906 1169 2906 1791 
z
M 3481 434 
Q 3481 -459 3084 -895 
Q 2688 -1331 1869 -1331 
Q 1566 -1331 1297 -1286 
Q 1028 -1241 775 -1147 
L 775 -588 
Q 1028 -725 1275 -790 
Q 1522 -856 1778 -856 
Q 2344 -856 2625 -561 
Q 2906 -266 2906 331 
L 2906 616 
Q 2728 306 2450 153 
Q 2172 0 1784 0 
Q 1141 0 747 490 
Q 353 981 353 1791 
Q 353 2603 747 3093 
Q 1141 3584 1784 3584 
Q 2172 3584 2450 3431 
Q 2728 3278 2906 2969 
L 2906 3500 
L 3481 3500 
L 3481 434 
z
" transform="scale(0.015625)"/>
     </defs>
     <use xlink:href="#DejaVuSans-55"/>
     <use xlink:href="#DejaVuSans-52" transform="translate(38.90625 0)"/>
     <use xlink:href="#DejaVuSans-4f" transform="translate(100.09375 0)"/>
     <use xlink:href="#DejaVuSans-48" transform="translate(127.875 0)"/>
     <use xlink:href="#DejaVuSans-1d" transform="translate(189.40625 0)"/>
     <use xlink:href="#DejaVuSans-3" transform="translate(223.09375 0)"/>
     <use xlink:href="#DejaVuSans-48" transform="translate(254.875 0)"/>
     <use xlink:href="#DejaVuSans-4f" transform="translate(316.40625 0)"/>
     <use xlink:href="#DejaVuSans-52" transform="translate(344.1875 0)"/>
     <use xlink:href="#DejaVuSans-51" transform="translate(405.375 0)"/>
     <use xlink:href="#DejaVuSans-4a" transform="translate(468.75 0)"/>
     <use xlink:href="#DejaVuSans-44" transform="translate(532.234375 0)"/>
     <use xlink:href="#DejaVuSans-57" transform="translate(593.515625 0)"/>
     <use xlink:href="#DejaVuSans-48" transform="translate(632.71875 0)"/>
     <use xlink:href="#DejaVuSans-47" transform="translate(694.25 0)"/>
    </g>
   </g>
   <g id="line2d_8">
    <path d="M 302.041953 699.067812 
L 309.041953 699.067812 
L 316.041953 699.067812 
" style="fill: none; stroke-dasharray: 14.08,3.52,2.2,3.52; stroke-dashoffset: 0; stroke: #b52ea8; stroke-width: 2.2"/>
   </g>
   <g id="text_21">
    <!-- role: slope-infill -->
    <g transform="translate(321.641953 701.517812) scale(0.07 -0.07)">
     <defs>
      <path id="DejaVuSans-13af" d="M 3431 3500 
L 3431 0 
L 2853 0 
L 2853 3053 
L 1275 3053 
L 1275 0 
L 697 0 
L 697 3053 
L 147 3053 
L 147 3500 
L 697 3500 
L 697 3744 
Q 697 4316 967 4589 
Q 1238 4863 1797 4863 
L 2375 4863 
L 2375 4384 
L 1825 4384 
Q 1516 4384 1395 4259 
Q 1275 4134 1275 3809 
L 1275 3500 
L 3431 3500 
z
M 2853 4856 
L 3431 4856 
L 3431 4128 
L 2853 4128 
L 2853 4856 
z
" transform="scale(0.015625)"/>
     </defs>
     <use xlink:href="#DejaVuSans-55"/>
     <use xlink:href="#DejaVuSans-52" transform="translate(38.90625 0)"/>
     <use xlink:href="#DejaVuSans-4f" transform="translate(100.09375 0)"/>
     <use xlink:href="#DejaVuSans-48" transform="translate(127.875 0)"/>
     <use xlink:href="#DejaVuSans-1d" transform="translate(189.40625 0)"/>
     <use xlink:href="#DejaVuSans-3" transform="translate(223.09375 0)"/>
     <use xlink:href="#DejaVuSans-56" transform="translate(254.875 0)"/>
     <use xlink:href="#DejaVuSans-4f" transform="translate(306.96875 0)"/>
     <use xlink:href="#DejaVuSans-52" transform="translate(334.75 0)"/>
     <use xlink:href="#DejaVuSans-53" transform="translate(395.9375 0)"/>
     <use xlink:href="#DejaVuSans-48" transform="translate(459.421875 0)"/>
     <use xlink:href="#DejaVuSans-10" transform="translate(520.953125 0)"/>
     <use xlink:href="#DejaVuSans-4c" transform="translate(557.03125 0)"/>
     <use xlink:href="#DejaVuSans-51" transform="translate(584.8125 0)"/>
     <use xlink:href="#DejaVuSans-13af" transform="translate(648.1875 0)"/>
     <use xlink:href="#DejaVuSans-4f" transform="translate(711.171875 0)"/>
     <use xlink:href="#DejaVuSans-4f" transform="translate(738.953125 0)"/>
    </g>
   </g>
   <g id="line2d_9">
    <path d="M 389.313359 688.567266 
L 396.313359 688.567266 
L 403.313359 688.567266 
" style="fill: none; stroke: #1f7a8c; stroke-width: 2.2; stroke-linecap: square"/>
   </g>
   <g id="text_22">
    <!-- role: tall-perimeter -->
    <g transform="translate(408.913359 691.017266) scale(0.07 -0.07)">
     <use xlink:href="#DejaVuSans-55"/>
     <use xlink:href="#DejaVuSans-52" transform="translate(38.90625 0)"/>
     <use xlink:href="#DejaVuSans-4f" transform="translate(100.09375 0)"/>
     <use xlink:href="#DejaVuSans-48" transform="translate(127.875 0)"/>
     <use xlink:href="#DejaVuSans-1d" transform="translate(189.40625 0)"/>
     <use xlink:href="#DejaVuSans-3" transform="translate(223.09375 0)"/>
     <use xlink:href="#DejaVuSans-57" transform="translate(254.875 0)"/>
     <use xlink:href="#DejaVuSans-44" transform="translate(294.078125 0)"/>
     <use xlink:href="#DejaVuSans-4f" transform="translate(355.359375 0)"/>
     <use xlink:href="#DejaVuSans-4f" transform="translate(383.140625 0)"/>
     <use xlink:href="#DejaVuSans-10" transform="translate(410.921875 0)"/>
     <use xlink:href="#DejaVuSans-53" transform="translate(447 0)"/>
     <use xlink:href="#DejaVuSans-48" transform="translate(510.484375 0)"/>
     <use xlink:href="#DejaVuSans-55" transform="translate(572.015625 0)"/>
     <use xlink:href="#DejaVuSans-4c" transform="translate(613.125 0)"/>
     <use xlink:href="#DejaVuSans-50" transform="translate(640.90625 0)"/>
     <use xlink:href="#DejaVuSans-48" transform="translate(738.3125 0)"/>
     <use xlink:href="#DejaVuSans-57" transform="translate(799.84375 0)"/>
     <use xlink:href="#DejaVuSans-48" transform="translate(839.046875 0)"/>
     <use xlink:href="#DejaVuSans-55" transform="translate(900.578125 0)"/>
    </g>
   </g>
   <g id="line2d_10">
    <path d="M 389.313359 699.067812 
L 396.313359 699.067812 
L 403.313359 699.067812 
" style="fill: none; stroke-dasharray: 14.08,3.52,2.2,3.52; stroke-dashoffset: 0; stroke: #7a5c00; stroke-width: 2.2"/>
   </g>
   <g id="text_23">
    <!-- role: wedge-step -->
    <g transform="translate(408.913359 701.517812) scale(0.07 -0.07)">
     <use xlink:href="#DejaVuSans-55"/>
     <use xlink:href="#DejaVuSans-52" transform="translate(38.90625 0)"/>
     <use xlink:href="#DejaVuSans-4f" transform="translate(100.09375 0)"/>
     <use xlink:href="#DejaVuSans-48" transform="translate(127.875 0)"/>
     <use xlink:href="#DejaVuSans-1d" transform="translate(189.40625 0)"/>
     <use xlink:href="#DejaVuSans-3" transform="translate(223.09375 0)"/>
     <use xlink:href="#DejaVuSans-5a" transform="translate(254.875 0)"/>
     <use xlink:href="#DejaVuSans-48" transform="translate(336.65625 0)"/>
     <use xlink:href="#DejaVuSans-47" transform="translate(398.1875 0)"/>
     <use xlink:href="#DejaVuSans-4a" transform="translate(461.671875 0)"/>
     <use xlink:href="#DejaVuSans-48" transform="translate(525.15625 0)"/>
     <use xlink:href="#DejaVuSans-10" transform="translate(586.6875 0)"/>
     <use xlink:href="#DejaVuSans-56" transform="translate(622.765625 0)"/>
     <use xlink:href="#DejaVuSans-57" transform="translate(674.859375 0)"/>
     <use xlink:href="#DejaVuSans-48" transform="translate(714.0625 0)"/>
     <use xlink:href="#DejaVuSans-53" transform="translate(775.59375 0)"/>
    </g>
   </g>
   <g id="line2d_11">
    <path d="M 488.831484 688.567266 
L 495.831484 688.567266 
L 502.831484 688.567266 
" style="fill: none; stroke: #00a2a2; stroke-width: 2.6; stroke-linecap: square"/>
   </g>
   <g id="text_24">
    <!-- role: terrace -->
    <g transform="translate(508.431484 691.017266) scale(0.07 -0.07)">
     <use xlink:href="#DejaVuSans-55"/>
     <use xlink:href="#DejaVuSans-52" transform="translate(38.90625 0)"/>
     <use xlink:href="#DejaVuSans-4f" transform="translate(100.09375 0)"/>
     <use xlink:href="#DejaVuSans-48" transform="translate(127.875 0)"/>
     <use xlink:href="#DejaVuSans-1d" transform="translate(189.40625 0)"/>
     <use xlink:href="#DejaVuSans-3" transform="translate(223.09375 0)"/>
     <use xlink:href="#DejaVuSans-57" transform="translate(254.875 0)"/>
     <use xlink:href="#DejaVuSans-48" transform="translate(294.078125 0)"/>
     <use xlink:href="#DejaVuSans-55" transform="translate(355.609375 0)"/>
     <use xlink:href="#DejaVuSans-55" transform="translate(394.96875 0)"/>
     <use xlink:href="#DejaVuSans-44" transform="translate(436.078125 0)"/>
     <use xlink:href="#DejaVuSans-46" transform="translate(497.359375 0)"/>
     <use xlink:href="#DejaVuSans-48" transform="translate(552.34375 0)"/>
    </g>
   </g>
   <g id="line2d_12">
    <path d="M 488.831484 699.067812 
L 495.831484 699.067812 
L 502.831484 699.067812 
" style="fill: none; stroke: #d81b60; stroke-width: 3; stroke-linecap: square"/>
   </g>
   <g id="text_25">
    <!-- role: bridge -->
    <g transform="translate(508.431484 701.517812) scale(0.07 -0.07)">
     <defs>
      <path id="DejaVuSans-45" d="M 3116 1747 
Q 3116 2381 2855 2742 
Q 2594 3103 2138 3103 
Q 1681 3103 1420 2742 
Q 1159 2381 1159 1747 
Q 1159 1113 1420 752 
Q 1681 391 2138 391 
Q 2594 391 2855 752 
Q 3116 1113 3116 1747 
z
M 1159 2969 
Q 1341 3281 1617 3432 
Q 1894 3584 2278 3584 
Q 2916 3584 3314 3078 
Q 3713 2572 3713 1747 
Q 3713 922 3314 415 
Q 2916 -91 2278 -91 
Q 1894 -91 1617 61 
Q 1341 213 1159 525 
L 1159 0 
L 581 0 
L 581 4863 
L 1159 4863 
L 1159 2969 
z
" transform="scale(0.015625)"/>
     </defs>
     <use xlink:href="#DejaVuSans-55"/>
     <use xlink:href="#DejaVuSans-52" transform="translate(38.90625 0)"/>
     <use xlink:href="#DejaVuSans-4f" transform="translate(100.09375 0)"/>
     <use xlink:href="#DejaVuSans-48" transform="translate(127.875 0)"/>
     <use xlink:href="#DejaVuSans-1d" transform="translate(189.40625 0)"/>
     <use xlink:href="#DejaVuSans-3" transform="translate(223.09375 0)"/>
     <use xlink:href="#DejaVuSans-45" transform="translate(254.875 0)"/>
     <use xlink:href="#DejaVuSans-55" transform="translate(318.359375 0)"/>
     <use xlink:href="#DejaVuSans-4c" transform="translate(359.46875 0)"/>
     <use xlink:href="#DejaVuSans-47" transform="translate(387.25 0)"/>
     <use xlink:href="#DejaVuSans-4a" transform="translate(450.734375 0)"/>
     <use xlink:href="#DejaVuSans-48" transform="translate(514.21875 0)"/>
    </g>
   </g>
   <g id="line2d_13">
    <path d="M 565.402734 688.567266 
L 572.402734 688.567266 
L 579.402734 688.567266 
" style="fill: none; stroke-dasharray: 11.1,4.8; stroke-dashoffset: 0; stroke: #8e24aa; stroke-width: 3"/>
   </g>
   <g id="text_26">
    <!-- role: wedge-bridge -->
    <g transform="translate(585.002734 691.017266) scale(0.07 -0.07)">
     <use xlink:href="#DejaVuSans-55"/>
     <use xlink:href="#DejaVuSans-52" transform="translate(38.90625 0)"/>
     <use xlink:href="#DejaVuSans-4f" transform="translate(100.09375 0)"/>
     <use xlink:href="#DejaVuSans-48" transform="translate(127.875 0)"/>
     <use xlink:href="#DejaVuSans-1d" transform="translate(189.40625 0)"/>
     <use xlink:href="#DejaVuSans-3" transform="translate(223.09375 0)"/>
     <use xlink:href="#DejaVuSans-5a" transform="translate(254.875 0)"/>
     <use xlink:href="#DejaVuSans-48" transform="translate(336.65625 0)"/>
     <use xlink:href="#DejaVuSans-47" transform="translate(398.1875 0)"/>
     <use xlink:href="#DejaVuSans-4a" transform="translate(461.671875 0)"/>
     <use xlink:href="#DejaVuSans-48" transform="translate(525.15625 0)"/>
     <use xlink:href="#DejaVuSans-10" transform="translate(586.6875 0)"/>
     <use xlink:href="#DejaVuSans-45" transform="translate(622.765625 0)"/>
     <use xlink:href="#DejaVuSans-55" transform="translate(686.25 0)"/>
     <use xlink:href="#DejaVuSans-4c" transform="translate(727.359375 0)"/>
     <use xlink:href="#DejaVuSans-47" transform="translate(755.140625 0)"/>
     <use xlink:href="#DejaVuSans-4a" transform="translate(818.625 0)"/>
     <use xlink:href="#DejaVuSans-48" transform="translate(882.109375 0)"/>
    </g>
   </g>
   <g id="line2d_14">
    <path d="M 565.402734 699.067812 
L 572.402734 699.067812 
L 579.402734 699.067812 
" style="fill: none; stroke: #7d3cbd; stroke-width: 1.4; stroke-linecap: square"/>
   </g>
   <g id="text_27">
    <!-- shelf -->
    <g transform="translate(585.002734 701.517812) scale(0.07 -0.07)">
     <use xlink:href="#DejaVuSans-56"/>
     <use xlink:href="#DejaVuSans-4b" transform="translate(52.09375 0)"/>
     <use xlink:href="#DejaVuSans-48" transform="translate(115.46875 0)"/>
     <use xlink:href="#DejaVuSans-4f" transform="translate(177 0)"/>
     <use xlink:href="#DejaVuSans-49" transform="translate(204.78125 0)"/>
    </g>
   </g>
  </g>
 </g>
 <defs>
  <clipPath id="p2798223074">
   <rect x="127.843818" y="62.642812" width="536.312364" height="603.357188"/>
  </clipPath>
 </defs>
</svg>
