<?xml version="1.0" encoding="utf-8" standalone="no"?>
<!DOCTYPE svg PUBLIC "-//W3C//DTD SVG 1.1//EN"
  "http://www.w3.org/Graphics/SVG/1.1/DTD/svg11.dtd">
<svg xmlns:xlink="http://www.w3.org/1999/xlink" width="792pt" height="720pt" viewBox="0 0 792 720" xmlns="http://www.w3.org/2000/svg" version="1.1">
 <metadata>
  <rdf:RDF xmlns:dc="http://purl.org/dc/elements/1.1/" xmlns:cc="http://creativecommons.org/ns#" xmlns:rdf="http://www.w3.org/1999/02/22-rdf-syntax-ns#">
   <cc:Work>
    <dc:type rdf:resource="http://purl.org/dc/dcmitype/StillImage"/>
    <dc:date>2026-08-27T10:00:06.213530</dc:date>
    <dc:format>image/svg+xml</dc:format>
    <dc:creator>
     <cc:Agent>
      <dc:title>Matplotlib v3.11.1, https://matplotlib.org/</dc:title>
     </cc:Agent>
    </dc:creator>
   </cc:Work>
  </rdf:RDF>
 </metadata>
 <defs>
  <style type="text/css">*{stroke-linejoin: round; stroke-linecap: butt}</style>
 </defs>
 <g id="figure_1">
  <g id="patch_1">
   <path d="M 0 720 
L 792 720 
L 792 0 
L 0 0 
z
" style="fill: #ffffff"/>
  </g>
  <g id="axes_1">
   <g id="patch_2">
    <path d="M 206.295647 510.35863 
L 428.245899 638.501668 
L 428.245899 377.861172 
L 146.827147 215.38398 
L 146.827147 412.146979 
L 206.295647 510.35863 
z
" clip-path="url(#p2a445d60f5)" style="fill: none; stroke: #333333; stroke-width: 1.6; stroke-linejoin: miter"/>
   </g>
   <g id="patch_3">
    <path d="M 423.222601 385.115795 
L 645.172853 513.258833 
L 645.172853 252.618337 
L 363.754101 90.141144 
L 363.754101 286.904143 
L 423.222601 385.115795 
z
" clip-path="url(#p2a445d60f5)" style="fill: none; stroke: #333333; stroke-width: 0.9; stroke-linejoin: miter"/>
   </g>
   <g id="line2d_1">
    <path d="M 206.295647 510.35863 
L 423.222601 385.115795 
" clip-path="url(#p2a445d60f5)" style="fill: none; stroke: #333333; stroke-opacity: 0.6; stroke-width: 0.8; stroke-linecap: square"/>
   </g>
   <g id="line2d_2">
    <path d="M 428.245899 638.501668 
L 645.172853 513.258833 
" clip-path="url(#p2a445d60f5)" style="fill: none; stroke: #333333; stroke-opacity: 0.6; stroke-width: 0.8; stroke-linecap: square"/>
   </g>
   <g id="line2d_3">
    <path d="M 428.245899 377.861172 
L 645.172853 252.618337 
" clip-path="url(#p2a445d60f5)" style="fill: none; stroke: #333333; stroke-opacity: 0.6; stroke-width: 0.8; stroke-linecap: square"/>
   </g>
   <g id="line2d_4">
    <path d="M 146.827147 215.38398 
L 363.754101 90.141144 
" clip-path="url(#p2a445d60f5)" style="fill: none; stroke: #333333; stroke-opacity: 0.6; stroke-width: 0.8; stroke-linecap: square"/>
   </g>
   <g id="line2d_5">
    <path d="M 146.827147 412.146979 
L 363.754101 286.904143 
" clip-path="url(#p2a445d60f5)" style="fill: none; stroke: #333333; stroke-opacity: 0.6; stroke-width: 0.8; stroke-linecap: square"/>
   </g>
   <g id="patch_4">
    <path d="M 152.690037 335.549403 
L 215.716112 371.937525 
L 426.780176 250.07963 
L 363.754101 213.691509 
z
" clip-path="url(#p2a445d60f5)" style="fill: #7d3cbd; opacity: 0.45; stroke: #4b2273; stroke-width: 0.8; stroke-linejoin: miter"/>
   </g>
   <g id="patch_5">
    <path d="M 152.690037 342.319286 
L 215.716112 378.707408 
L 215.716112 371.937525 
L 152.690037 335.549403 
z
" clip-path="url(#p2a445d60f5)" style="fill: #622f93; opacity: 0.45; stroke: #4b2273; stroke-width: 0.8; stroke-linejoin: miter"/>
   </g>
   <g id="patch_6">
    <path d="M 215.716112 378.707408 
L 426.780176 256.849513 
L 426.780176 250.07963 
L 215.716112 371.937525 
z
" clip-path="url(#p2a445d60f5)" style="fill: #48236e; opacity: 0.45; stroke: #4b2273; stroke-width: 0.8; stroke-linejoin: miter"/>
   </g>
   <g id="patch_7">
    <path d="M 261.153515 269.543044 
L 548.435157 435.405178 
L 648.104299 377.861172 
L 360.822656 211.999038 
z
" clip-path="url(#p2a445d60f5)" style="fill: #7d3cbd; opacity: 0.45; stroke: #4b2273; stroke-width: 0.8; stroke-linejoin: miter"/>
   </g>
   <g id="patch_8">
    <path d="M 261.153515 276.312927 
L 548.435157 442.175061 
L 548.435157 435.405178 
L 261.153515 269.543044 
z
" clip-path="url(#p2a445d60f5)" style="fill: #622f93; opacity: 0.45; stroke: #4b2273; stroke-width: 0.8; stroke-linejoin: miter"/>
   </g>
   <g id="patch_9">
    <path d="M 548.435157 442.175061 
L 648.104299 384.631055 
L 648.104299 377.861172 
L 548.435157 435.405178 
z
" clip-path="url(#p2a445d60f5)" style="fill: #48236e; opacity: 0.45; stroke: #4b2273; stroke-width: 0.8; stroke-linejoin: miter"/>
   </g>
   <g id="patch_10">
    <path d="M 371.815576 405.871563 
L 446.274287 448.86032 
L 541.546261 393.855021 
L 467.087549 350.866264 
z
" clip-path="url(#p2a445d60f5)" style="fill: #c8a06a; stroke: #3a3a3a; stroke-linejoin: miter"/>
   </g>
   <g id="patch_11">
    <path d="M 371.815576 468.154487 
L 446.274287 511.143244 
L 446.274287 448.86032 
L 371.815576 405.871563 
z
" clip-path="url(#p2a445d60f5)" style="fill: #9c7d53; stroke: #3a3a3a; stroke-linejoin: miter"/>
   </g>
   <g id="patch_12">
    <path d="M 446.274287 511.143244 
L 541.546261 456.137945 
L 541.546261 393.855021 
L 446.274287 448.86032 
z
" clip-path="url(#p2a445d60f5)" style="fill: #745d3d; stroke: #3a3a3a; stroke-linejoin: miter"/>
   </g>
   <g id="patch_13">
    <path d="M 377.385322 332.418333 
L 470.605284 386.238903 
L 541.546261 345.28111 
L 448.326299 291.46054 
z
" clip-path="url(#p2a445d60f5)" style="fill: #c8a06a; stroke: #00a2a2; stroke-width: 2.6; stroke-linejoin: miter"/>
   </g>
   <g id="patch_14">
    <path d="M 377.385322 380.992243 
L 470.605284 434.812813 
L 470.605284 386.238903 
L 377.385322 332.418333 
z
" clip-path="url(#p2a445d60f5)" style="fill: #9c7d53; stroke: #00a2a2; stroke-width: 2.6; stroke-linejoin: miter"/>
   </g>
   <g id="patch_15">
    <path d="M 470.605284 434.812813 
L 541.546261 393.855021 
L 541.546261 345.28111 
L 470.605284 386.238903 
z
" clip-path="url(#p2a445d60f5)" style="fill: #745d3d; stroke: #00a2a2; stroke-width: 2.6; stroke-linejoin: miter"/>
   </g>
   <g id="patch_16">
    <path d="M 255.690501 382.661712 
L 312.56054 415.495645 
L 381.009789 375.976453 
L 324.139749 343.14252 
z
" clip-path="url(#p2a445d60f5)" style="fill: #c8a06a; stroke: #3a3a3a; stroke-linejoin: miter"/>
   </g>
   <g id="patch_17">
    <path d="M 255.690501 484.548452 
L 312.56054 517.382384 
L 312.56054 415.495645 
L 255.690501 382.661712 
z
" clip-path="url(#p2a445d60f5)" style="fill: #9c7d53; stroke: #3a3a3a; stroke-linejoin: miter"/>
   </g>
   <g id="patch_18">
    <path d="M 312.56054 517.382384 
L 381.009789 477.863192 
L 381.009789 375.976453 
L 312.56054 415.495645 
z
" clip-path="url(#p2a445d60f5)" style="fill: #745d3d; stroke: #3a3a3a; stroke-linejoin: miter"/>
   </g>
   <g id="patch_19">
    <path d="M 367.378568 172.287598 
L 416.480277 200.636483 
L 472.324311 168.394915 
L 423.222601 140.04603 
z
" clip-path="url(#p2a445d60f5)" style="fill: #9b6fd0; stroke: #3a3a3a; stroke-linejoin: miter"/>
   </g>
   <g id="patch_20">
    <path d="M 367.378568 282.975185 
L 416.480277 311.32407 
L 416.480277 200.636483 
L 367.378568 172.287598 
z
" clip-path="url(#p2a445d60f5)" style="fill: #7957a2; stroke: #3a3a3a; stroke-linejoin: miter"/>
   </g>
   <g id="patch_21">
    <path d="M 416.480277 311.32407 
L 472.324311 279.082502 
L 472.324311 168.394915 
L 416.480277 200.636483 
z
" clip-path="url(#p2a445d60f5)" style="fill: #5a4079; stroke: #3a3a3a; stroke-linejoin: miter"/>
   </g>
   <g id="patch_22">
    <path d="M 461.224659 490.833595 
L 532.019064 531.706764 
L 640.482541 469.085346 
L 569.688136 428.212177 
z
" clip-path="url(#p2a445d60f5)" style="fill: #c8a06a; stroke: #3a3a3a; stroke-linejoin: miter"/>
   </g>
   <g id="patch_23">
    <path d="M 461.224659 535.007082 
L 532.019064 575.88025 
L 532.019064 531.706764 
L 461.224659 490.833595 
z
" clip-path="url(#p2a445d60f5)" style="fill: #9c7d53; stroke: #3a3a3a; stroke-linejoin: miter"/>
   </g>
   <g id="patch_24">
    <path d="M 532.019064 575.88025 
L 640.482541 513.258833 
L 640.482541 469.085346 
L 532.019064 531.706764 
z
" clip-path="url(#p2a445d60f5)" style="fill: #745d3d; stroke: #3a3a3a; stroke-linejoin: miter"/>
   </g>
   <g id="patch_25">
    <path d="M 465.914971 418.734341 
L 561.040372 473.655017 
L 640.482541 427.789059 
L 545.35714 372.868384 
z
" clip-path="url(#p2a445d60f5)" style="fill: #c8a06a; stroke: #00a2a2; stroke-width: 2.6; stroke-linejoin: miter"/>
   </g>
   <g id="patch_26">
    <path d="M 465.914971 460.030627 
L 561.040372 514.951303 
L 561.040372 473.655017 
L 465.914971 418.734341 
z
" clip-path="url(#p2a445d60f5)" style="fill: #9c7d53; stroke: #00a2a2; stroke-width: 2.6; stroke-linejoin: miter"/>
   </g>
   <g id="patch_27">
    <path d="M 561.040372 514.951303 
L 640.482541 469.085346 
L 640.482541 427.789059 
L 561.040372 473.655017 
z
" clip-path="url(#p2a445d60f5)" style="fill: #745d3d; stroke: #00a2a2; stroke-width: 2.6; stroke-linejoin: miter"/>
   </g>
   <g id="patch_28">
    <path d="M 216.262561 443.506036 
L 311.534534 498.511335 
L 347.151595 477.947816 
L 251.879622 422.942516 
z
" clip-path="url(#p2a445d60f5)" style="fill: #5fbf6a; stroke: #1f7a8c; stroke-width: 2.2; stroke-linejoin: miter"/>
   </g>
   <g id="patch_29">
    <path d="M 216.262561 507.312183 
L 311.534534 562.317483 
L 311.534534 498.511335 
L 216.262561 443.506036 
z
" clip-path="url(#p2a445d60f5)" style="fill: #4a9553; stroke: #1f7a8c; stroke-width: 2.2; stroke-linejoin: miter"/>
   </g>
   <g id="patch_30">
    <path d="M 311.534534 562.317483 
L 347.151595 541.753963 
L 347.151595 477.947816 
L 311.534534 498.511335 
z
" clip-path="url(#p2a445d60f5)" style="fill: #376f3d; stroke: #1f7a8c; stroke-width: 2.2; stroke-linejoin: miter"/>
   </g>
   <g id="patch_31">
    <path d="M 391.269847 277.813149 
L 428.645775 299.392151 
L 513.511118 250.395123 
L 476.13519 228.816121 
z
" clip-path="url(#p2a445d60f5)" style="fill: #9b6fd0; stroke: #3a3a3a; stroke-linejoin: miter"/>
   </g>
   <g id="patch_32">
    <path d="M 391.269847 330.279742 
L 428.645775 351.858744 
L 428.645775 299.392151 
L 391.269847 277.813149 
z
" clip-path="url(#p2a445d60f5)" style="fill: #7957a2; stroke: #3a3a3a; stroke-linejoin: miter"/>
   </g>
   <g id="patch_33">
    <path d="M 428.645775 351.858744 
L 513.511118 302.861716 
L 513.511118 250.395123 
L 428.645775 299.392151 
z
" clip-path="url(#p2a445d60f5)" style="fill: #5a4079; stroke: #3a3a3a; stroke-linejoin: miter"/>
   </g>
   <g id="patch_34">
    <path d="M 342.501123 513.68195 
L 415.347539 555.739848 
L 493.323985 510.720126 
L 420.477569 468.662228 
z
" clip-path="url(#p2a445d60f5)" style="fill: #5fbf6a; stroke: #3a3a3a; stroke-linejoin: miter"/>
   </g>
   <g id="patch_35">
    <path d="M 342.501123 560.901884 
L 415.347539 602.959782 
L 415.347539 555.739848 
L 342.501123 513.68195 
z
" clip-path="url(#p2a445d60f5)" style="fill: #4a9553; stroke: #3a3a3a; stroke-linejoin: miter"/>
   </g>
   <g id="patch_36">
    <path d="M 415.347539 602.959782 
L 493.323985 557.94006 
L 493.323985 510.720126 
L 415.347539 555.739848 
z
" clip-path="url(#p2a445d60f5)" style="fill: #376f3d; stroke: #3a3a3a; stroke-linejoin: miter"/>
   </g>
   <g id="patch_37">
    <path d="M 487.021378 283.505928 
L 587.716525 341.642298 
L 640.482541 311.177825 
L 539.787394 253.041454 
z
" clip-path="url(#p2a445d60f5)" style="fill: #9b6fd0; stroke: #3a3a3a; stroke-linejoin: miter"/>
   </g>
   <g id="patch_38">
    <path d="M 487.021378 348.496805 
L 587.716525 406.633175 
L 587.716525 341.642298 
L 487.021378 283.505928 
z
" clip-path="url(#p2a445d60f5)" style="fill: #7957a2; stroke: #3a3a3a; stroke-linejoin: miter"/>
   </g>
   <g id="patch_39">
    <path d="M 587.716525 406.633175 
L 640.482541 376.168702 
L 640.482541 311.177825 
L 587.716525 341.642298 
z
" clip-path="url(#p2a445d60f5)" style="fill: #5a4079; stroke: #3a3a3a; stroke-linejoin: miter"/>
   </g>
   <g id="patch_40">
    <path d="M 421.21043 502.765514 
L 452.28375 520.705704 
L 528.208185 476.870711 
L 497.134864 458.930521 
z
" clip-path="url(#p2a445d60f5)" style="fill: #5fbf6a; stroke: #1f7a8c; stroke-width: 2.2; stroke-linejoin: miter"/>
   </g>
   <g id="patch_41">
    <path d="M 421.21043 603.975265 
L 452.28375 621.915455 
L 452.28375 520.705704 
L 421.21043 502.765514 
z
" clip-path="url(#p2a445d60f5)" style="fill: #4a9553; stroke: #1f7a8c; stroke-width: 2.2; stroke-linejoin: miter"/>
   </g>
   <g id="patch_42">
    <path d="M 452.28375 621.915455 
L 528.208185 578.080462 
L 528.208185 476.870711 
L 452.28375 520.705704 
z
" clip-path="url(#p2a445d60f5)" style="fill: #376f3d; stroke: #1f7a8c; stroke-width: 2.2; stroke-linejoin: miter"/>
   </g>
   <g id="text_1">
    <path d="M 405.459619 459.744982 
L 406.587275 459.744982 
L 406.587275 455.851232 
L 405.360088 456.097326 
L 405.360088 455.468419 
L 406.580713 455.222326 
L 407.270869 455.222326 
L 407.270869 459.744982 
L 408.398525 459.744982 
L 408.398525 460.325763 
L 405.459619 460.325763 
L 405.459619 459.744982 
z
M 409.61915 455.222326 
L 412.9004 455.222326 
L 412.9004 455.516544 
L 411.047588 460.325763 
L 410.326807 460.325763 
L 412.070244 455.804201 
L 409.61915 455.804201 
L 409.61915 455.222326 
z
" style="fill: #ffffff; stroke: #000000; stroke-opacity: 0.666667; stroke-width: 2"/>
    <path d="M 405.459619 459.744982 
L 406.587275 459.744982 
L 406.587275 455.851232 
L 405.360088 456.097326 
L 405.360088 455.468419 
L 406.580713 455.222326 
L 407.270869 455.222326 
L 407.270869 459.744982 
L 408.398525 459.744982 
L 408.398525 460.325763 
L 405.459619 460.325763 
L 405.459619 459.744982 
z
M 409.61915 455.222326 
L 412.9004 455.222326 
L 412.9004 455.516544 
L 411.047588 460.325763 
L 410.326807 460.325763 
L 412.070244 455.804201 
L 409.61915 455.804201 
L 409.61915 455.222326 
z
" style="fill: #ffffff"/>
   </g>
   <g id="text_2">
    <path d="M 420.40999 384.853151 
L 421.537647 384.853151 
L 421.537647 380.959401 
L 420.310459 381.205495 
L 420.310459 380.576588 
L 421.531084 380.330495 
L 422.22124 380.330495 
L 422.22124 384.853151 
L 423.348897 384.853151 
L 423.348897 385.433932 
L 420.40999 385.433932 
L 420.40999 384.853151 
z
M 426.21999 383.010182 
Q 425.727803 383.010182 425.445615 383.273776 
Q 425.164522 383.53737 425.164522 383.997838 
Q 425.164522 384.459401 425.445615 384.722995 
Q 425.727803 384.986588 426.21999 384.986588 
Q 426.712178 384.986588 426.995459 384.721901 
Q 427.279834 384.45612 427.279834 383.997838 
Q 427.279834 383.53737 426.997647 383.273776 
Q 426.716553 383.010182 426.21999 383.010182 
z
M 425.529834 382.717057 
Q 425.085772 382.607682 424.83749 382.30362 
Q 424.590303 381.998463 424.590303 381.560963 
Q 424.590303 380.949557 425.025615 380.594088 
Q 425.462022 380.23862 426.21999 380.23862 
Q 426.982334 380.23862 427.416553 380.594088 
Q 427.850772 380.949557 427.850772 381.560963 
Q 427.850772 381.998463 427.60249 382.30362 
Q 427.355303 382.607682 426.914522 382.717057 
Q 427.413272 382.832995 427.691084 383.172057 
Q 427.96999 383.510026 427.96999 383.997838 
Q 427.96999 384.740495 427.517178 385.137526 
Q 427.064365 385.533463 426.21999 385.533463 
Q 425.376709 385.533463 424.922803 385.137526 
Q 424.46999 384.740495 424.46999 383.997838 
Q 424.46999 383.510026 424.74999 383.172057 
Q 425.031084 382.832995 425.529834 382.717057 
z
M 425.277178 381.626588 
Q 425.277178 382.022526 425.524365 382.244557 
Q 425.772647 382.466588 426.21999 382.466588 
Q 426.665147 382.466588 426.915615 382.244557 
Q 427.167178 382.022526 427.167178 381.626588 
Q 427.167178 381.229557 426.915615 381.007526 
Q 426.665147 380.785495 426.21999 380.785495 
Q 425.772647 380.785495 425.524365 381.007526 
Q 425.277178 381.229557 425.277178 381.626588 
z
" style="fill: #ffffff; stroke: #000000; stroke-opacity: 0.666667; stroke-width: 2"/>
    <path d="M 420.40999 384.853151 
L 421.537647 384.853151 
L 421.537647 380.959401 
L 420.310459 381.205495 
L 420.310459 380.576588 
L 421.531084 380.330495 
L 422.22124 380.330495 
L 422.22124 384.853151 
L 423.348897 384.853151 
L 423.348897 385.433932 
L 420.40999 385.433932 
L 420.40999 384.853151 
z
M 426.21999 383.010182 
Q 425.727803 383.010182 425.445615 383.273776 
Q 425.164522 383.53737 425.164522 383.997838 
Q 425.164522 384.459401 425.445615 384.722995 
Q 425.727803 384.986588 426.21999 384.986588 
Q 426.712178 384.986588 426.995459 384.721901 
Q 427.279834 384.45612 427.279834 383.997838 
Q 427.279834 383.53737 426.997647 383.273776 
Q 426.716553 383.010182 426.21999 383.010182 
z
M 425.529834 382.717057 
Q 425.085772 382.607682 424.83749 382.30362 
Q 424.590303 381.998463 424.590303 381.560963 
Q 424.590303 380.949557 425.025615 380.594088 
Q 425.462022 380.23862 426.21999 380.23862 
Q 426.982334 380.23862 427.416553 380.594088 
Q 427.850772 380.949557 427.850772 381.560963 
Q 427.850772 381.998463 427.60249 382.30362 
Q 427.355303 382.607682 426.914522 382.717057 
Q 427.413272 382.832995 427.691084 383.172057 
Q 427.96999 383.510026 427.96999 383.997838 
Q 427.96999 384.740495 427.517178 385.137526 
Q 427.064365 385.533463 426.21999 385.533463 
Q 425.376709 385.533463 424.922803 385.137526 
Q 424.46999 384.740495 424.46999 383.997838 
Q 424.46999 383.510026 424.74999 383.172057 
Q 425.031084 382.832995 425.529834 382.717057 
z
M 425.277178 381.626588 
Q 425.277178 382.022526 425.524365 382.244557 
Q 425.772647 382.466588 426.21999 382.466588 
Q 426.665147 382.466588 426.915615 382.244557 
Q 427.167178 382.022526 427.167178 381.626588 
Q 427.167178 381.229557 426.915615 381.007526 
Q 426.665147 380.785495 426.21999 380.785495 
Q 425.772647 380.785495 425.524365 381.007526 
Q 425.277178 381.229557 425.277178 381.626588 
z
" style="fill: #ffffff"/>
   </g>
   <g id="text_3">
    <path d="M 281.014895 451.259626 
L 283.424427 451.259626 
L 283.424427 451.840408 
L 280.184739 451.840408 
L 280.184739 451.259626 
Q 280.577395 450.852751 281.25552 450.168064 
Q 281.934739 449.482283 282.108645 449.28322 
Q 282.440052 448.911345 282.571302 448.65322 
Q 282.703645 448.395095 282.703645 448.14572 
Q 282.703645 447.738845 282.418177 447.482908 
Q 282.132708 447.225876 281.674427 447.225876 
Q 281.349583 447.225876 280.988645 447.338533 
Q 280.628802 447.451189 280.218645 447.680876 
L 280.218645 446.983064 
Q 280.635364 446.81572 280.997395 446.730408 
Q 281.36052 446.645095 281.661302 446.645095 
Q 282.45427 446.645095 282.925677 447.042126 
Q 283.397083 447.438064 283.397083 448.100876 
Q 283.397083 448.415876 283.278958 448.698064 
Q 283.161927 448.979158 282.850208 449.36197 
Q 282.764895 449.461501 282.306614 449.935095 
Q 281.849427 450.408689 281.014895 451.259626 
z
M 286.350208 447.19197 
Q 285.817552 447.19197 285.548489 447.71697 
Q 285.28052 448.240876 285.28052 449.294158 
Q 285.28052 450.343064 285.548489 450.868064 
Q 285.817552 451.393064 286.350208 451.393064 
Q 286.887239 451.393064 287.155208 450.868064 
Q 287.42427 450.343064 287.42427 449.294158 
Q 287.42427 448.240876 287.155208 447.71697 
Q 286.887239 447.19197 286.350208 447.19197 
z
M 286.350208 446.645095 
Q 287.208802 446.645095 287.661614 447.324314 
Q 288.114427 448.002439 288.114427 449.294158 
Q 288.114427 450.582595 287.661614 451.261814 
Q 287.208802 451.939939 286.350208 451.939939 
Q 285.492708 451.939939 285.039895 451.261814 
Q 284.587083 450.582595 284.587083 449.294158 
Q 284.587083 448.002439 285.039895 447.324314 
Q 285.492708 446.645095 286.350208 446.645095 
z
" style="fill: #ffffff; stroke: #000000; stroke-opacity: 0.666667; stroke-width: 2"/>
    <path d="M 281.014895 451.259626 
L 283.424427 451.259626 
L 283.424427 451.840408 
L 280.184739 451.840408 
L 280.184739 451.259626 
Q 280.577395 450.852751 281.25552 450.168064 
Q 281.934739 449.482283 282.108645 449.28322 
Q 282.440052 448.911345 282.571302 448.65322 
Q 282.703645 448.395095 282.703645 448.14572 
Q 282.703645 447.738845 282.418177 447.482908 
Q 282.132708 447.225876 281.674427 447.225876 
Q 281.349583 447.225876 280.988645 447.338533 
Q 280.628802 447.451189 280.218645 447.680876 
L 280.218645 446.983064 
Q 280.635364 446.81572 280.997395 446.730408 
Q 281.36052 446.645095 281.661302 446.645095 
Q 282.45427 446.645095 282.925677 447.042126 
Q 283.397083 447.438064 283.397083 448.100876 
Q 283.397083 448.415876 283.278958 448.698064 
Q 283.161927 448.979158 282.850208 449.36197 
Q 282.764895 449.461501 282.306614 449.935095 
Q 281.849427 450.408689 281.014895 451.259626 
z
M 286.350208 447.19197 
Q 285.817552 447.19197 285.548489 447.71697 
Q 285.28052 448.240876 285.28052 449.294158 
Q 285.28052 450.343064 285.548489 450.868064 
Q 285.817552 451.393064 286.350208 451.393064 
Q 286.887239 451.393064 287.155208 450.868064 
Q 287.42427 450.343064 287.42427 449.294158 
Q 287.42427 448.240876 287.155208 447.71697 
Q 286.887239 447.19197 286.350208 447.19197 
z
M 286.350208 446.645095 
Q 287.208802 446.645095 287.661614 447.324314 
Q 288.114427 448.002439 288.114427 449.294158 
Q 288.114427 450.582595 287.661614 451.261814 
Q 287.208802 451.939939 286.350208 451.939939 
Q 285.492708 451.939939 285.039895 451.261814 
Q 284.587083 450.582595 284.587083 449.294158 
Q 284.587083 448.002439 285.039895 447.324314 
Q 285.492708 446.645095 286.350208 446.645095 
z
" style="fill: #ffffff"/>
   </g>
   <g id="text_4">
    <path d="M 388.818797 243.043412 
L 391.228329 243.043412 
L 391.228329 243.624193 
L 387.988641 243.624193 
L 387.988641 243.043412 
Q 388.381297 242.636537 389.059422 241.951849 
Q 389.738641 241.266068 389.912547 241.067006 
Q 390.243954 240.695131 390.375204 240.437006 
Q 390.507547 240.178881 390.507547 239.929506 
Q 390.507547 239.522631 390.222079 239.266693 
Q 389.93661 239.009662 389.478329 239.009662 
Q 389.153485 239.009662 388.792547 239.122318 
Q 388.432704 239.234974 388.022547 239.464662 
L 388.022547 238.766849 
Q 388.439266 238.599506 388.801297 238.514193 
Q 389.164422 238.428881 389.465204 238.428881 
Q 390.258172 238.428881 390.729579 238.825912 
Q 391.200985 239.221849 391.200985 239.884662 
Q 391.200985 240.199662 391.08286 240.481849 
Q 390.965829 240.762943 390.65411 241.145756 
Q 390.568797 241.245287 390.110516 241.718881 
Q 389.653329 242.192474 388.818797 243.043412 
z
M 392.685204 238.520756 
L 395.395516 238.520756 
L 395.395516 239.102631 
L 393.317391 239.102631 
L 393.317391 240.352787 
Q 393.467235 240.301381 393.617079 240.276224 
Q 393.768016 240.251068 393.918954 240.251068 
Q 394.773172 240.251068 395.271922 240.719193 
Q 395.771766 241.187318 395.771766 241.986849 
Q 395.771766 242.810443 395.258797 243.267631 
Q 394.745829 243.723724 393.81286 243.723724 
Q 393.491297 243.723724 393.157704 243.669037 
Q 392.825204 243.614349 392.469735 243.504974 
L 392.469735 242.810443 
Q 392.777079 242.977787 393.105204 243.059818 
Q 393.433329 243.141849 393.798641 243.141849 
Q 394.39036 243.141849 394.734891 242.831224 
Q 395.080516 242.520599 395.080516 241.986849 
Q 395.080516 241.454193 394.734891 241.143568 
Q 394.39036 240.831849 393.798641 240.831849 
Q 393.521922 240.831849 393.246297 240.893099 
Q 392.971766 240.954349 392.685204 241.084506 
L 392.685204 238.520756 
z
" style="fill: #ffffff; stroke: #000000; stroke-opacity: 0.666667; stroke-width: 2"/>
    <path d="M 388.818797 243.043412 
L 391.228329 243.043412 
L 391.228329 243.624193 
L 387.988641 243.624193 
L 387.988641 243.043412 
Q 388.381297 242.636537 389.059422 241.951849 
Q 389.738641 241.266068 389.912547 241.067006 
Q 390.243954 240.695131 390.375204 240.437006 
Q 390.507547 240.178881 390.507547 239.929506 
Q 390.507547 239.522631 390.222079 239.266693 
Q 389.93661 239.009662 389.478329 239.009662 
Q 389.153485 239.009662 388.792547 239.122318 
Q 388.432704 239.234974 388.022547 239.464662 
L 388.022547 238.766849 
Q 388.439266 238.599506 388.801297 238.514193 
Q 389.164422 238.428881 389.465204 238.428881 
Q 390.258172 238.428881 390.729579 238.825912 
Q 391.200985 239.221849 391.200985 239.884662 
Q 391.200985 240.199662 391.08286 240.481849 
Q 390.965829 240.762943 390.65411 241.145756 
Q 390.568797 241.245287 390.110516 241.718881 
Q 389.653329 242.192474 388.818797 243.043412 
z
M 392.685204 238.520756 
L 395.395516 238.520756 
L 395.395516 239.102631 
L 393.317391 239.102631 
L 393.317391 240.352787 
Q 393.467235 240.301381 393.617079 240.276224 
Q 393.768016 240.251068 393.918954 240.251068 
Q 394.773172 240.251068 395.271922 240.719193 
Q 395.771766 241.187318 395.771766 241.986849 
Q 395.771766 242.810443 395.258797 243.267631 
Q 394.745829 243.723724 393.81286 243.723724 
Q 393.491297 243.723724 393.157704 243.669037 
Q 392.825204 243.614349 392.469735 243.504974 
L 392.469735 242.810443 
Q 392.777079 242.977787 393.105204 243.059818 
Q 393.433329 243.141849 393.798641 243.141849 
Q 394.39036 243.141849 394.734891 242.831224 
Q 395.080516 242.520599 395.080516 241.986849 
Q 395.080516 241.454193 394.734891 241.143568 
Q 394.39036 240.831849 393.798641 240.831849 
Q 393.521922 240.831849 393.246297 240.893099 
Q 392.971766 240.954349 392.685204 241.084506 
L 392.685204 238.520756 
z
" style="fill: #ffffff"/>
   </g>
   <g id="text_5">
    <path d="M 493.036549 534.594501 
L 494.164205 534.594501 
L 494.164205 530.700751 
L 492.937017 530.946845 
L 492.937017 530.317938 
L 494.157642 530.071845 
L 494.847799 530.071845 
L 494.847799 534.594501 
L 495.975455 534.594501 
L 495.975455 535.175282 
L 493.036549 535.175282 
L 493.036549 534.594501 
z
M 497.377642 530.071845 
L 500.087955 530.071845 
L 500.087955 530.65372 
L 498.00983 530.65372 
L 498.00983 531.903876 
Q 498.159674 531.85247 498.309517 531.827313 
Q 498.460455 531.802157 498.611392 531.802157 
Q 499.465611 531.802157 499.964361 532.270282 
Q 500.464205 532.738407 500.464205 533.537938 
Q 500.464205 534.361532 499.951236 534.81872 
Q 499.438267 535.274813 498.505299 535.274813 
Q 498.183736 535.274813 497.850142 535.220126 
Q 497.517642 535.165438 497.162174 535.056063 
L 497.162174 534.361532 
Q 497.469517 534.528876 497.797642 534.610907 
Q 498.125767 534.692938 498.49108 534.692938 
Q 499.082799 534.692938 499.42733 534.382313 
Q 499.772955 534.071688 499.772955 533.537938 
Q 499.772955 533.005282 499.42733 532.694657 
Q 499.082799 532.382938 498.49108 532.382938 
Q 498.214361 532.382938 497.938736 532.444188 
Q 497.664205 532.505438 497.377642 532.635595 
L 497.377642 530.071845 
z
" style="fill: #ffffff; stroke: #000000; stroke-opacity: 0.666667; stroke-width: 2"/>
    <path d="M 493.036549 534.594501 
L 494.164205 534.594501 
L 494.164205 530.700751 
L 492.937017 530.946845 
L 492.937017 530.317938 
L 494.157642 530.071845 
L 494.847799 530.071845 
L 494.847799 534.594501 
L 495.975455 534.594501 
L 495.975455 535.175282 
L 493.036549 535.175282 
L 493.036549 534.594501 
z
M 497.377642 530.071845 
L 500.087955 530.071845 
L 500.087955 530.65372 
L 498.00983 530.65372 
L 498.00983 531.903876 
Q 498.159674 531.85247 498.309517 531.827313 
Q 498.460455 531.802157 498.611392 531.802157 
Q 499.465611 531.802157 499.964361 532.270282 
Q 500.464205 532.738407 500.464205 533.537938 
Q 500.464205 534.361532 499.951236 534.81872 
Q 499.438267 535.274813 498.505299 535.274813 
Q 498.183736 535.274813 497.850142 535.220126 
Q 497.517642 535.165438 497.162174 535.056063 
L 497.162174 534.361532 
Q 497.469517 534.528876 497.797642 534.610907 
Q 498.125767 534.692938 498.49108 534.692938 
Q 499.082799 534.692938 499.42733 534.382313 
Q 499.772955 534.071688 499.772955 533.537938 
Q 499.772955 533.005282 499.42733 532.694657 
Q 499.082799 532.382938 498.49108 532.382938 
Q 498.214361 532.382938 497.938736 532.444188 
Q 497.664205 532.505438 497.377642 532.635595 
L 497.377642 530.071845 
z
" style="fill: #ffffff"/>
   </g>
   <g id="text_6">
    <path d="M 509.892359 468.0804 
L 511.020016 468.0804 
L 511.020016 464.18665 
L 509.792828 464.432744 
L 509.792828 463.803838 
L 511.013453 463.557744 
L 511.703609 463.557744 
L 511.703609 468.0804 
L 512.831266 468.0804 
L 512.831266 468.661181 
L 509.892359 468.661181 
L 509.892359 468.0804 
z
M 515.788766 465.834931 
Q 515.323922 465.834931 515.051578 466.153213 
Q 514.780328 466.4704 514.780328 467.023838 
Q 514.780328 467.573994 515.051578 467.894463 
Q 515.323922 468.213838 515.788766 468.213838 
Q 516.253609 468.213838 516.524859 467.894463 
Q 516.796109 467.573994 516.796109 467.023838 
Q 516.796109 466.4704 516.524859 466.153213 
Q 516.253609 465.834931 515.788766 465.834931 
z
M 517.159234 463.6704 
L 517.159234 464.299306 
Q 516.898922 464.176806 516.634234 464.112275 
Q 516.369547 464.04665 516.109234 464.04665 
Q 515.425641 464.04665 515.064703 464.508213 
Q 514.704859 464.969775 514.653453 465.902744 
Q 514.854703 465.605244 515.158766 465.44665 
Q 515.463922 465.288056 515.829234 465.288056 
Q 516.598141 465.288056 517.044391 465.755088 
Q 517.490641 466.221025 517.490641 467.023838 
Q 517.490641 467.810244 517.025797 468.286025 
Q 516.560953 468.760713 515.788766 468.760713 
Q 514.902828 468.760713 514.434703 468.082588 
Q 513.966578 467.403369 513.966578 466.114931 
Q 513.966578 464.905244 514.540797 464.185556 
Q 515.115016 463.465869 516.081891 463.465869 
Q 516.342203 463.465869 516.606891 463.517275 
Q 516.871578 463.568681 517.159234 463.6704 
z
" style="fill: #ffffff; stroke: #000000; stroke-opacity: 0.666667; stroke-width: 2"/>
    <path d="M 509.892359 468.0804 
L 511.020016 468.0804 
L 511.020016 464.18665 
L 509.792828 464.432744 
L 509.792828 463.803838 
L 511.013453 463.557744 
L 511.703609 463.557744 
L 511.703609 468.0804 
L 512.831266 468.0804 
L 512.831266 468.661181 
L 509.892359 468.661181 
L 509.892359 468.0804 
z
M 515.788766 465.834931 
Q 515.323922 465.834931 515.051578 466.153213 
Q 514.780328 466.4704 514.780328 467.023838 
Q 514.780328 467.573994 515.051578 467.894463 
Q 515.323922 468.213838 515.788766 468.213838 
Q 516.253609 468.213838 516.524859 467.894463 
Q 516.796109 467.573994 516.796109 467.023838 
Q 516.796109 466.4704 516.524859 466.153213 
Q 516.253609 465.834931 515.788766 465.834931 
z
M 517.159234 463.6704 
L 517.159234 464.299306 
Q 516.898922 464.176806 516.634234 464.112275 
Q 516.369547 464.04665 516.109234 464.04665 
Q 515.425641 464.04665 515.064703 464.508213 
Q 514.704859 464.969775 514.653453 465.902744 
Q 514.854703 465.605244 515.158766 465.44665 
Q 515.463922 465.288056 515.829234 465.288056 
Q 516.598141 465.288056 517.044391 465.755088 
Q 517.490641 466.221025 517.490641 467.023838 
Q 517.490641 467.810244 517.025797 468.286025 
Q 516.560953 468.760713 515.788766 468.760713 
Q 514.902828 468.760713 514.434703 468.082588 
Q 513.966578 467.403369 513.966578 466.114931 
Q 513.966578 464.905244 514.540797 464.185556 
Q 515.115016 463.465869 516.081891 463.465869 
Q 516.342203 463.465869 516.606891 463.517275 
Q 516.871578 463.568681 517.159234 463.6704 
z
" style="fill: #ffffff"/>
   </g>
   <g id="text_7">
    <path d="M 260.787922 504.149337 
L 263.197454 504.149337 
L 263.197454 504.730119 
L 259.957766 504.730119 
L 259.957766 504.149337 
Q 260.350422 503.742462 261.028547 503.057775 
Q 261.707766 502.371994 261.881672 502.172931 
Q 262.213079 501.801056 262.344329 501.542931 
Q 262.476672 501.284806 262.476672 501.035431 
Q 262.476672 500.628556 262.191204 500.372619 
Q 261.905735 500.115587 261.447454 500.115587 
Q 261.12261 500.115587 260.761672 500.228244 
Q 260.401829 500.3409 259.991672 500.570587 
L 259.991672 499.872775 
Q 260.408391 499.705431 260.770422 499.620119 
Q 261.133547 499.534806 261.434329 499.534806 
Q 262.227297 499.534806 262.698704 499.931837 
Q 263.17011 500.327775 263.17011 500.990587 
Q 263.17011 501.305587 263.051985 501.587775 
Q 262.934954 501.868869 262.623235 502.251681 
Q 262.537922 502.351212 262.079641 502.824806 
Q 261.622454 503.2984 260.787922 504.149337 
z
M 266.739016 501.978244 
Q 267.234485 502.084337 267.512297 502.420119 
Q 267.791204 502.754806 267.791204 503.246994 
Q 267.791204 504.001681 267.271672 504.416212 
Q 266.752141 504.82965 265.79511 504.82965 
Q 265.474641 504.82965 265.134485 504.766212 
Q 264.794329 504.702775 264.432297 504.5759 
L 264.432297 503.909806 
Q 264.71886 504.07715 265.06011 504.162462 
Q 265.402454 504.247775 265.775422 504.247775 
Q 266.424016 504.247775 266.764172 503.991837 
Q 267.104329 503.7359 267.104329 503.246994 
Q 267.104329 502.795275 266.788235 502.541525 
Q 266.472141 502.286681 265.90886 502.286681 
L 265.31386 502.286681 
L 265.31386 501.719025 
L 265.936204 501.719025 
Q 266.444797 501.719025 266.714954 501.515587 
Q 266.98511 501.31215 266.98511 500.929337 
Q 266.98511 500.536681 266.706204 500.326681 
Q 266.428391 500.115587 265.90886 500.115587 
Q 265.624485 500.115587 265.299641 500.177931 
Q 264.974797 500.239181 264.585422 500.368244 
L 264.585422 499.753556 
Q 264.979172 499.644181 265.32261 499.589494 
Q 265.666047 499.534806 265.97011 499.534806 
Q 266.756516 499.534806 267.213704 499.892462 
Q 267.671985 500.249025 267.671985 500.85715 
Q 267.671985 501.281525 267.429172 501.573556 
Q 267.18636 501.865587 266.739016 501.978244 
z
" style="fill: #ffffff; stroke: #000000; stroke-opacity: 0.666667; stroke-width: 2"/>
    <path d="M 260.787922 504.149337 
L 263.197454 504.149337 
L 263.197454 504.730119 
L 259.957766 504.730119 
L 259.957766 504.149337 
Q 260.350422 503.742462 261.028547 503.057775 
Q 261.707766 502.371994 261.881672 502.172931 
Q 262.213079 501.801056 262.344329 501.542931 
Q 262.476672 501.284806 262.476672 501.035431 
Q 262.476672 500.628556 262.191204 500.372619 
Q 261.905735 500.115587 261.447454 500.115587 
Q 261.12261 500.115587 260.761672 500.228244 
Q 260.401829 500.3409 259.991672 500.570587 
L 259.991672 499.872775 
Q 260.408391 499.705431 260.770422 499.620119 
Q 261.133547 499.534806 261.434329 499.534806 
Q 262.227297 499.534806 262.698704 499.931837 
Q 263.17011 500.327775 263.17011 500.990587 
Q 263.17011 501.305587 263.051985 501.587775 
Q 262.934954 501.868869 262.623235 502.251681 
Q 262.537922 502.351212 262.079641 502.824806 
Q 261.622454 503.2984 260.787922 504.149337 
z
M 266.739016 501.978244 
Q 267.234485 502.084337 267.512297 502.420119 
Q 267.791204 502.754806 267.791204 503.246994 
Q 267.791204 504.001681 267.271672 504.416212 
Q 266.752141 504.82965 265.79511 504.82965 
Q 265.474641 504.82965 265.134485 504.766212 
Q 264.794329 504.702775 264.432297 504.5759 
L 264.432297 503.909806 
Q 264.71886 504.07715 265.06011 504.162462 
Q 265.402454 504.247775 265.775422 504.247775 
Q 266.424016 504.247775 266.764172 503.991837 
Q 267.104329 503.7359 267.104329 503.246994 
Q 267.104329 502.795275 266.788235 502.541525 
Q 266.472141 502.286681 265.90886 502.286681 
L 265.31386 502.286681 
L 265.31386 501.719025 
L 265.936204 501.719025 
Q 266.444797 501.719025 266.714954 501.515587 
Q 266.98511 501.31215 266.98511 500.929337 
Q 266.98511 500.536681 266.706204 500.326681 
Q 266.428391 500.115587 265.90886 500.115587 
Q 265.624485 500.115587 265.299641 500.177931 
Q 264.974797 500.239181 264.585422 500.368244 
L 264.585422 499.753556 
Q 264.979172 499.644181 265.32261 499.589494 
Q 265.666047 499.534806 265.97011 499.534806 
Q 266.756516 499.534806 267.213704 499.892462 
Q 267.671985 500.249025 267.671985 500.85715 
Q 267.671985 501.281525 267.429172 501.573556 
Q 267.18636 501.865587 266.739016 501.978244 
z
" style="fill: #ffffff"/>
   </g>
   <g id="text_8">
    <path d="M 406.847186 316.073525 
L 409.256718 316.073525 
L 409.256718 316.654306 
L 406.01703 316.654306 
L 406.01703 316.073525 
Q 406.409686 315.66665 407.087811 314.981962 
Q 407.76703 314.296181 407.940936 314.097119 
Q 408.272343 313.725244 408.403593 313.467119 
Q 408.535936 313.208994 408.535936 312.959619 
Q 408.535936 312.552744 408.250468 312.296806 
Q 407.964999 312.039775 407.506718 312.039775 
Q 407.181874 312.039775 406.820936 312.152431 
Q 406.461093 312.265087 406.050936 312.494775 
L 406.050936 311.796962 
Q 406.467655 311.629619 406.829686 311.544306 
Q 407.192811 311.458994 407.493593 311.458994 
Q 408.286561 311.458994 408.757968 311.856025 
Q 409.229374 312.251962 409.229374 312.914775 
Q 409.229374 313.229775 409.111249 313.511962 
Q 408.994218 313.793056 408.682499 314.175869 
Q 408.597186 314.2754 408.138905 314.748994 
Q 407.681718 315.222587 406.847186 316.073525 
z
M 412.268905 313.828056 
Q 411.804061 313.828056 411.531718 314.146337 
Q 411.260468 314.463525 411.260468 315.016962 
Q 411.260468 315.567119 411.531718 315.887587 
Q 411.804061 316.206962 412.268905 316.206962 
Q 412.733749 316.206962 413.004999 315.887587 
Q 413.276249 315.567119 413.276249 315.016962 
Q 413.276249 314.463525 413.004999 314.146337 
Q 412.733749 313.828056 412.268905 313.828056 
z
M 413.639374 311.663525 
L 413.639374 312.292431 
Q 413.379061 312.169931 413.114374 312.1054 
Q 412.849686 312.039775 412.589374 312.039775 
Q 411.90578 312.039775 411.544843 312.501337 
Q 411.184999 312.9629 411.133593 313.895869 
Q 411.334843 313.598369 411.638905 313.439775 
Q 411.944061 313.281181 412.309374 313.281181 
Q 413.07828 313.281181 413.52453 313.748212 
Q 413.97078 314.21415 413.97078 315.016962 
Q 413.97078 315.803369 413.505936 316.27915 
Q 413.041093 316.753837 412.268905 316.753837 
Q 411.382968 316.753837 410.914843 316.075712 
Q 410.446718 315.396494 410.446718 314.108056 
Q 410.446718 312.898369 411.020936 312.178681 
Q 411.595155 311.458994 412.56203 311.458994 
Q 412.822343 311.458994 413.08703 311.5104 
Q 413.351718 311.561806 413.639374 311.663525 
z
" style="fill: #ffffff; stroke: #000000; stroke-opacity: 0.666667; stroke-width: 2"/>
    <path d="M 406.847186 316.073525 
L 409.256718 316.073525 
L 409.256718 316.654306 
L 406.01703 316.654306 
L 406.01703 316.073525 
Q 406.409686 315.66665 407.087811 314.981962 
Q 407.76703 314.296181 407.940936 314.097119 
Q 408.272343 313.725244 408.403593 313.467119 
Q 408.535936 313.208994 408.535936 312.959619 
Q 408.535936 312.552744 408.250468 312.296806 
Q 407.964999 312.039775 407.506718 312.039775 
Q 407.181874 312.039775 406.820936 312.152431 
Q 406.461093 312.265087 406.050936 312.494775 
L 406.050936 311.796962 
Q 406.467655 311.629619 406.829686 311.544306 
Q 407.192811 311.458994 407.493593 311.458994 
Q 408.286561 311.458994 408.757968 311.856025 
Q 409.229374 312.251962 409.229374 312.914775 
Q 409.229374 313.229775 409.111249 313.511962 
Q 408.994218 313.793056 408.682499 314.175869 
Q 408.597186 314.2754 408.138905 314.748994 
Q 407.681718 315.222587 406.847186 316.073525 
z
M 412.268905 313.828056 
Q 411.804061 313.828056 411.531718 314.146337 
Q 411.260468 314.463525 411.260468 315.016962 
Q 411.260468 315.567119 411.531718 315.887587 
Q 411.804061 316.206962 412.268905 316.206962 
Q 412.733749 316.206962 413.004999 315.887587 
Q 413.276249 315.567119 413.276249 315.016962 
Q 413.276249 314.463525 413.004999 314.146337 
Q 412.733749 313.828056 412.268905 313.828056 
z
M 413.639374 311.663525 
L 413.639374 312.292431 
Q 413.379061 312.169931 413.114374 312.1054 
Q 412.849686 312.039775 412.589374 312.039775 
Q 411.90578 312.039775 411.544843 312.501337 
Q 411.184999 312.9629 411.133593 313.895869 
Q 411.334843 313.598369 411.638905 313.439775 
Q 411.944061 313.281181 412.309374 313.281181 
Q 413.07828 313.281181 413.52453 313.748212 
Q 413.97078 314.21415 413.97078 315.016962 
Q 413.97078 315.803369 413.505936 316.27915 
Q 413.041093 316.753837 412.268905 316.753837 
Q 411.382968 316.753837 410.914843 316.075712 
Q 410.446718 315.396494 410.446718 314.108056 
Q 410.446718 312.898369 411.020936 312.178681 
Q 411.595155 311.458994 412.56203 311.458994 
Q 412.822343 311.458994 413.08703 311.5104 
Q 413.351718 311.561806 413.639374 311.663525 
z
" style="fill: #ffffff"/>
   </g>
   <g id="text_9">
    <path d="M 375.813706 559.558444 
L 378.223237 559.558444 
L 378.223237 560.139226 
L 374.98355 560.139226 
L 374.98355 559.558444 
Q 375.376206 559.151569 376.054331 558.466882 
Q 376.73355 557.781101 376.907456 557.582038 
Q 377.238862 557.210163 377.370112 556.952038 
Q 377.502456 556.693913 377.502456 556.444538 
Q 377.502456 556.037663 377.216987 555.781726 
Q 376.931518 555.524694 376.473237 555.524694 
Q 376.148393 555.524694 375.787456 555.637351 
Q 375.427612 555.750007 375.017456 555.979694 
L 375.017456 555.281882 
Q 375.434175 555.114538 375.796206 555.029226 
Q 376.159331 554.943913 376.460112 554.943913 
Q 377.253081 554.943913 377.724487 555.340944 
Q 378.195893 555.736882 378.195893 556.399694 
Q 378.195893 556.714694 378.077768 556.996882 
Q 377.960737 557.277976 377.649018 557.660788 
Q 377.563706 557.760319 377.105425 558.233913 
Q 376.648237 558.707507 375.813706 559.558444 
z
M 380.267456 559.558444 
L 382.676987 559.558444 
L 382.676987 560.139226 
L 379.4373 560.139226 
L 379.4373 559.558444 
Q 379.829956 559.151569 380.508081 558.466882 
Q 381.1873 557.781101 381.361206 557.582038 
Q 381.692612 557.210163 381.823862 556.952038 
Q 381.956206 556.693913 381.956206 556.444538 
Q 381.956206 556.037663 381.670737 555.781726 
Q 381.385268 555.524694 380.926987 555.524694 
Q 380.602143 555.524694 380.241206 555.637351 
Q 379.881362 555.750007 379.471206 555.979694 
L 379.471206 555.281882 
Q 379.887925 555.114538 380.249956 555.029226 
Q 380.613081 554.943913 380.913862 554.943913 
Q 381.706831 554.943913 382.178237 555.340944 
Q 382.649643 555.736882 382.649643 556.399694 
Q 382.649643 556.714694 382.531518 556.996882 
Q 382.414487 557.277976 382.102768 557.660788 
Q 382.017456 557.760319 381.559175 558.233913 
Q 381.101987 558.707507 380.267456 559.558444 
z
" style="fill: #ffffff; stroke: #000000; stroke-opacity: 0.666667; stroke-width: 2"/>
    <path d="M 375.813706 559.558444 
L 378.223237 559.558444 
L 378.223237 560.139226 
L 374.98355 560.139226 
L 374.98355 559.558444 
Q 375.376206 559.151569 376.054331 558.466882 
Q 376.73355 557.781101 376.907456 557.582038 
Q 377.238862 557.210163 377.370112 556.952038 
Q 377.502456 556.693913 377.502456 556.444538 
Q 377.502456 556.037663 377.216987 555.781726 
Q 376.931518 555.524694 376.473237 555.524694 
Q 376.148393 555.524694 375.787456 555.637351 
Q 375.427612 555.750007 375.017456 555.979694 
L 375.017456 555.281882 
Q 375.434175 555.114538 375.796206 555.029226 
Q 376.159331 554.943913 376.460112 554.943913 
Q 377.253081 554.943913 377.724487 555.340944 
Q 378.195893 555.736882 378.195893 556.399694 
Q 378.195893 556.714694 378.077768 556.996882 
Q 377.960737 557.277976 377.649018 557.660788 
Q 377.563706 557.760319 377.105425 558.233913 
Q 376.648237 558.707507 375.813706 559.558444 
z
M 380.267456 559.558444 
L 382.676987 559.558444 
L 382.676987 560.139226 
L 379.4373 560.139226 
L 379.4373 559.558444 
Q 379.829956 559.151569 380.508081 558.466882 
Q 381.1873 557.781101 381.361206 557.582038 
Q 381.692612 557.210163 381.823862 556.952038 
Q 381.956206 556.693913 381.956206 556.444538 
Q 381.956206 556.037663 381.670737 555.781726 
Q 381.385268 555.524694 380.926987 555.524694 
Q 380.602143 555.524694 380.241206 555.637351 
Q 379.881362 555.750007 379.471206 555.979694 
L 379.471206 555.281882 
Q 379.887925 555.114538 380.249956 555.029226 
Q 380.613081 554.943913 380.913862 554.943913 
Q 381.706831 554.943913 382.178237 555.340944 
Q 382.649643 555.736882 382.649643 556.399694 
Q 382.649643 556.714694 382.531518 556.996882 
Q 382.414487 557.277976 382.102768 557.660788 
Q 382.017456 557.760319 381.559175 558.233913 
Q 381.101987 558.707507 380.267456 559.558444 
z
" style="fill: #ffffff"/>
   </g>
   <g id="text_10">
    <path d="M 534.258326 346.30713 
L 536.667858 346.30713 
L 536.667858 346.887911 
L 533.42817 346.887911 
L 533.42817 346.30713 
Q 533.820826 345.900255 534.498951 345.215567 
Q 535.17817 344.529786 535.352076 344.330723 
Q 535.683483 343.958848 535.814733 343.700723 
Q 535.947076 343.442598 535.947076 343.193223 
Q 535.947076 342.786348 535.661608 342.530411 
Q 535.376139 342.27338 534.917858 342.27338 
Q 534.593014 342.27338 534.232076 342.386036 
Q 533.872233 342.498692 533.462076 342.72838 
L 533.462076 342.030567 
Q 533.878795 341.863223 534.240826 341.777911 
Q 534.603951 341.692598 534.904733 341.692598 
Q 535.697701 341.692598 536.169108 342.08963 
Q 536.640514 342.485567 536.640514 343.14838 
Q 536.640514 343.46338 536.522389 343.745567 
Q 536.405358 344.026661 536.093639 344.409473 
Q 536.008326 344.509005 535.550045 344.982598 
Q 535.092858 345.456192 534.258326 346.30713 
z
M 540.014733 342.386036 
L 538.271295 345.110567 
L 540.014733 345.110567 
L 540.014733 342.386036 
z
M 539.83317 341.784473 
L 540.701608 341.784473 
L 540.701608 345.110567 
L 541.430045 345.110567 
L 541.430045 345.684786 
L 540.701608 345.684786 
L 540.701608 346.887911 
L 540.014733 346.887911 
L 540.014733 345.684786 
L 537.711295 345.684786 
L 537.711295 345.018692 
L 539.83317 341.784473 
z
" style="fill: #ffffff; stroke: #000000; stroke-opacity: 0.666667; stroke-width: 2"/>
    <path d="M 534.258326 346.30713 
L 536.667858 346.30713 
L 536.667858 346.887911 
L 533.42817 346.887911 
L 533.42817 346.30713 
Q 533.820826 345.900255 534.498951 345.215567 
Q 535.17817 344.529786 535.352076 344.330723 
Q 535.683483 343.958848 535.814733 343.700723 
Q 535.947076 343.442598 535.947076 343.193223 
Q 535.947076 342.786348 535.661608 342.530411 
Q 535.376139 342.27338 534.917858 342.27338 
Q 534.593014 342.27338 534.232076 342.386036 
Q 533.872233 342.498692 533.462076 342.72838 
L 533.462076 342.030567 
Q 533.878795 341.863223 534.240826 341.777911 
Q 534.603951 341.692598 534.904733 341.692598 
Q 535.697701 341.692598 536.169108 342.08963 
Q 536.640514 342.485567 536.640514 343.14838 
Q 536.640514 343.46338 536.522389 343.745567 
Q 536.405358 344.026661 536.093639 344.409473 
Q 536.008326 344.509005 535.550045 344.982598 
Q 535.092858 345.456192 534.258326 346.30713 
z
M 540.014733 342.386036 
L 538.271295 345.110567 
L 540.014733 345.110567 
L 540.014733 342.386036 
z
M 539.83317 341.784473 
L 540.701608 341.784473 
L 540.701608 345.110567 
L 541.430045 345.110567 
L 541.430045 345.684786 
L 540.701608 345.684786 
L 540.701608 346.887911 
L 540.014733 346.887911 
L 540.014733 345.684786 
L 537.711295 345.684786 
L 537.711295 345.018692 
L 539.83317 341.784473 
z
" style="fill: #ffffff"/>
   </g>
   <g id="text_11">
    <path d="M 433.636465 563.578062 
L 436.045996 563.578062 
L 436.045996 564.158844 
L 432.806309 564.158844 
L 432.806309 563.578062 
Q 433.198965 563.171187 433.87709 562.4865 
Q 434.556309 561.800719 434.730215 561.601656 
Q 435.061621 561.229781 435.192871 560.971656 
Q 435.325215 560.713531 435.325215 560.464156 
Q 435.325215 560.057281 435.039746 559.801344 
Q 434.754278 559.544312 434.295996 559.544312 
Q 433.971153 559.544312 433.610215 559.656969 
Q 433.250371 559.769625 432.840215 559.999312 
L 432.840215 559.3015 
Q 433.256934 559.134156 433.618965 559.048844 
Q 433.98209 558.963531 434.282871 558.963531 
Q 435.07584 558.963531 435.547246 559.360562 
Q 436.018653 559.7565 436.018653 560.419312 
Q 436.018653 560.734312 435.900528 561.0165 
Q 435.783496 561.297594 435.471778 561.680406 
Q 435.386465 561.779937 434.928184 562.253531 
Q 434.470996 562.727125 433.636465 563.578062 
z
M 437.615528 563.578062 
L 438.743184 563.578062 
L 438.743184 559.684312 
L 437.515996 559.930406 
L 437.515996 559.3015 
L 438.736621 559.055406 
L 439.426778 559.055406 
L 439.426778 563.578062 
L 440.554434 563.578062 
L 440.554434 564.158844 
L 437.615528 564.158844 
L 437.615528 563.578062 
z
" style="fill: #ffffff; stroke: #000000; stroke-opacity: 0.666667; stroke-width: 2"/>
    <path d="M 433.636465 563.578062 
L 436.045996 563.578062 
L 436.045996 564.158844 
L 432.806309 564.158844 
L 432.806309 563.578062 
Q 433.198965 563.171187 433.87709 562.4865 
Q 434.556309 561.800719 434.730215 561.601656 
Q 435.061621 561.229781 435.192871 560.971656 
Q 435.325215 560.713531 435.325215 560.464156 
Q 435.325215 560.057281 435.039746 559.801344 
Q 434.754278 559.544312 434.295996 559.544312 
Q 433.971153 559.544312 433.610215 559.656969 
Q 433.250371 559.769625 432.840215 559.999312 
L 432.840215 559.3015 
Q 433.256934 559.134156 433.618965 559.048844 
Q 433.98209 558.963531 434.282871 558.963531 
Q 435.07584 558.963531 435.547246 559.360562 
Q 436.018653 559.7565 436.018653 560.419312 
Q 436.018653 560.734312 435.900528 561.0165 
Q 435.783496 561.297594 435.471778 561.680406 
Q 435.386465 561.779937 434.928184 562.253531 
Q 434.470996 562.727125 433.636465 563.578062 
z
M 437.615528 563.578062 
L 438.743184 563.578062 
L 438.743184 559.684312 
L 437.515996 559.930406 
L 437.515996 559.3015 
L 438.736621 559.055406 
L 439.426778 559.055406 
L 439.426778 563.578062 
L 440.554434 563.578062 
L 440.554434 564.158844 
L 437.615528 564.158844 
L 437.615528 563.578062 
z
" style="fill: #ffffff"/>
   </g>
  </g>
  <g id="text_12">
   <!-- 03-priority-plus-normal — container 0 — how it is stacked (Layer 1 + Layer 2) -->
   <g transform="translate(162.649687 23.518125) scale(0.12 -0.12)">
    <defs>
     <path id="DejaVuSans-13" d="M 2034 4250 
Q 1547 4250 1301 3770 
Q 1056 3291 1056 2328 
Q 1056 1369 1301 889 
Q 1547 409 2034 409 
Q 2525 409 2770 889 
Q 3016 1369 3016 2328 
Q 3016 3291 2770 3770 
Q 2525 4250 2034 4250 
z
M 2034 4750 
Q 2819 4750 3233 4129 
Q 3647 3509 3647 2328 
Q 3647 1150 3233 529 
Q 2819 -91 2034 -91 
Q 1250 -91 836 529 
Q 422 1150 422 2328 
Q 422 3509 836 4129 
Q 1250 4750 2034 4750 
z
" transform="scale(0.015625)"/>
     <path id="DejaVuSans-16" d="M 2597 2516 
Q 3050 2419 3304 2112 
Q 3559 1806 3559 1356 
Q 3559 666 3084 287 
Q 2609 -91 1734 -91 
Q 1441 -91 1130 -33 
Q 819 25 488 141 
L 488 750 
Q 750 597 1062 519 
Q 1375 441 1716 441 
Q 2309 441 2620 675 
Q 2931 909 2931 1356 
Q 2931 1769 2642 2001 
Q 2353 2234 1838 2234 
L 1294 2234 
L 1294 2753 
L 1863 2753 
Q 2328 2753 2575 2939 
Q 2822 3125 2822 3475 
Q 2822 3834 2567 4026 
Q 2313 4219 1838 4219 
Q 1578 4219 1281 4162 
Q 984 4106 628 3988 
L 628 4550 
Q 988 4650 1302 4700 
Q 1616 4750 1894 4750 
Q 2613 4750 3031 4423 
Q 3450 4097 3450 3541 
Q 3450 3153 3228 2886 
Q 3006 2619 2597 2516 
z
" transform="scale(0.015625)"/>
     <path id="DejaVuSans-10" d="M 313 2009 
L 1997 2009 
L 1997 1497 
L 313 1497 
L 313 2009 
z
" transform="scale(0.015625)"/>
     <path id="DejaVuSans-53" d="M 1159 525 
L 1159 -1331 
L 581 -1331 
L 581 3500 
L 1159 3500 
L 1159 2969 
Q 1341 3281 1617 3432 
Q 1894 3584 2278 3584 
Q 2916 3584 3314 3078 
Q 3713 2572 3713 1747 
Q 3713 922 3314 415 
Q 2916 -91 2278 -91 
Q 1894 -91 1617 61 
Q 1341 213 1159 525 
z
M 3116 1747 
Q 3116 2381 2855 2742 
Q 2594 3103 2138 3103 
Q 1681 3103 1420 2742 
Q 1159 2381 1159 1747 
Q 1159 1113 1420 752 
Q 1681 391 2138 391 
Q 2594 391 2855 752 
Q 3116 1113 3116 1747 
z
" transform="scale(0.015625)"/>
     <path id="DejaVuSans-55" d="M 2631 2963 
Q 2534 3019 2420 3045 
Q 2306 3072 2169 3072 
Q 1681 3072 1420 2755 
Q 1159 2438 1159 1844 
L 1159 0 
L 581 0 
L 581 3500 
L 1159 3500 
L 1159 2956 
Q 1341 3275 1631 3429 
Q 1922 3584 2338 3584 
Q 2397 3584 2469 3576 
Q 2541 3569 2628 3553 
L 2631 2963 
z
" transform="scale(0.015625)"/>
     <path id="DejaVuSans-4c" d="M 603 3500 
L 1178 3500 
L 1178 0 
L 603 0 
L 603 3500 
z
M 603 4863 
L 1178 4863 
L 1178 4134 
L 603 4134 
L 603 4863 
z
" transform="scale(0.015625)"/>
     <path id="DejaVuSans-52" d="M 1959 3097 
Q 1497 3097 1228 2736 
Q 959 2375 959 1747 
Q 959 1119 1226 758 
Q 1494 397 1959 397 
Q 2419 397 2687 759 
Q 2956 1122 2956 1747 
Q 2956 2369 2687 2733 
Q 2419 3097 1959 3097 
z
M 1959 3584 
Q 2709 3584 3137 3096 
Q 3566 2609 3566 1747 
Q 3566 888 3137 398 
Q 2709 -91 1959 -91 
Q 1206 -91 779 398 
Q 353 888 353 1747 
Q 353 2609 779 3096 
Q 1206 3584 1959 3584 
z
" transform="scale(0.015625)"/>
     <path id="DejaVuSans-57" d="M 1172 4494 
L 1172 3500 
L 2356 3500 
L 2356 3053 
L 1172 3053 
L 1172 1153 
Q 1172 725 1289 603 
Q 1406 481 1766 481 
L 2356 481 
L 2356 0 
L 1766 0 
Q 1100 0 847 248 
Q 594 497 594 1153 
L 594 3053 
L 172 3053 
L 172 3500 
L 594 3500 
L 594 4494 
L 1172 4494 
z
" transform="scale(0.015625)"/>
     <path id="DejaVuSans-5c" d="M 2059 -325 
Q 1816 -950 1584 -1140 
Q 1353 -1331 966 -1331 
L 506 -1331 
L 506 -850 
L 844 -850 
Q 1081 -850 1212 -737 
Q 1344 -625 1503 -206 
L 1606 56 
L 191 3500 
L 800 3500 
L 1894 763 
L 2988 3500 
L 3597 3500 
L 2059 -325 
z
" transform="scale(0.015625)"/>
     <path id="DejaVuSans-4f" d="M 603 4863 
L 1178 4863 
L 1178 0 
L 603 0 
L 603 4863 
z
" transform="scale(0.015625)"/>
     <path id="DejaVuSans-58" d="M 544 1381 
L 544 3500 
L 1119 3500 
L 1119 1403 
Q 1119 906 1312 657 
Q 1506 409 1894 409 
Q 2359 409 2629 706 
Q 2900 1003 2900 1516 
L 2900 3500 
L 3475 3500 
L 3475 0 
L 2900 0 
L 2900 538 
Q 2691 219 2414 64 
Q 2138 -91 1772 -91 
Q 1169 -91 856 284 
Q 544 659 544 1381 
z
M 1991 3584 
L 1991 3584 
z
" transform="scale(0.015625)"/>
     <path id="DejaVuSans-56" d="M 2834 3397 
L 2834 2853 
Q 2591 2978 2328 3040 
Q 2066 3103 1784 3103 
Q 1356 3103 1142 2972 
Q 928 2841 928 2578 
Q 928 2378 1081 2264 
Q 1234 2150 1697 2047 
L 1894 2003 
Q 2506 1872 2764 1633 
Q 3022 1394 3022 966 
Q 3022 478 2636 193 
Q 2250 -91 1575 -91 
Q 1294 -91 989 -36 
Q 684 19 347 128 
L 347 722 
Q 666 556 975 473 
Q 1284 391 1588 391 
Q 1994 391 2212 530 
Q 2431 669 2431 922 
Q 2431 1156 2273 1281 
Q 2116 1406 1581 1522 
L 1381 1569 
Q 847 1681 609 1914 
Q 372 2147 372 2553 
Q 372 3047 722 3315 
Q 1072 3584 1716 3584 
Q 2034 3584 2315 3537 
Q 2597 3491 2834 3397 
z
" transform="scale(0.015625)"/>
     <path id="DejaVuSans-51" d="M 3513 2113 
L 3513 0 
L 2938 0 
L 2938 2094 
Q 2938 2591 2744 2837 
Q 2550 3084 2163 3084 
Q 1697 3084 1428 2787 
Q 1159 2491 1159 1978 
L 1159 0 
L 581 0 
L 581 3500 
L 1159 3500 
L 1159 2956 
Q 1366 3272 1645 3428 
Q 1925 3584 2291 3584 
Q 2894 3584 3203 3211 
Q 3513 2838 3513 2113 
z
" transform="scale(0.015625)"/>
     <path id="DejaVuSans-50" d="M 3328 2828 
Q 3544 3216 3844 3400 
Q 4144 3584 4550 3584 
Q 5097 3584 5394 3201 
Q 5691 2819 5691 2113 
L 5691 0 
L 5113 0 
L 5113 2094 
Q 5113 2597 4934 2840 
Q 4756 3084 4391 3084 
Q 3944 3084 3684 2787 
Q 3425 2491 3425 1978 
L 3425 0 
L 2847 0 
L 2847 2094 
Q 2847 2600 2669 2842 
Q 2491 3084 2119 3084 
Q 1678 3084 1418 2786 
Q 1159 2488 1159 1978 
L 1159 0 
L 581 0 
L 581 3500 
L 1159 3500 
L 1159 2956 
Q 1356 3278 1631 3431 
Q 1906 3584 2284 3584 
Q 2666 3584 2933 3390 
Q 3200 3197 3328 2828 
z
" transform="scale(0.015625)"/>
     <path id="DejaVuSans-44" d="M 2194 1759 
Q 1497 1759 1228 1600 
Q 959 1441 959 1056 
Q 959 750 1161 570 
Q 1363 391 1709 391 
Q 2188 391 2477 730 
Q 2766 1069 2766 1631 
L 2766 1759 
L 2194 1759 
z
M 3341 1997 
L 3341 0 
L 2766 0 
L 2766 531 
Q 2569 213 2275 61 
Q 1981 -91 1556 -91 
Q 1019 -91 701 211 
Q 384 513 384 1019 
Q 384 1609 779 1909 
Q 1175 2209 1959 2209 
L 2766 2209 
L 2766 2266 
Q 2766 2663 2505 2880 
Q 2244 3097 1772 3097 
Q 1472 3097 1187 3025 
Q 903 2953 641 2809 
L 641 3341 
Q 956 3463 1253 3523 
Q 1550 3584 1831 3584 
Q 2591 3584 2966 3190 
Q 3341 2797 3341 1997 
z
" transform="scale(0.015625)"/>
     <path id="DejaVuSans-3" transform="scale(0.015625)"/>
     <path id="DejaVuSans-af6" d="M 313 1978 
L 6088 1978 
L 6088 1528 
L 313 1528 
L 313 1978 
z
" transform="scale(0.015625)"/>
     <path id="DejaVuSans-46" d="M 3122 3366 
L 3122 2828 
Q 2878 2963 2633 3030 
Q 2388 3097 2138 3097 
Q 1578 3097 1268 2742 
Q 959 2388 959 1747 
Q 959 1106 1268 751 
Q 1578 397 2138 397 
Q 2388 397 2633 464 
Q 2878 531 3122 666 
L 3122 134 
Q 2881 22 2623 -34 
Q 2366 -91 2075 -91 
Q 1284 -91 818 406 
Q 353 903 353 1747 
Q 353 2603 823 3093 
Q 1294 3584 2113 3584 
Q 2378 3584 2631 3529 
Q 2884 3475 3122 3366 
z
" transform="scale(0.015625)"/>
     <path id="DejaVuSans-48" d="M 3597 1894 
L 3597 1613 
L 953 1613 
Q 991 1019 1311 708 
Q 1631 397 2203 397 
Q 2534 397 2845 478 
Q 3156 559 3463 722 
L 3463 178 
Q 3153 47 2828 -22 
Q 2503 -91 2169 -91 
Q 1331 -91 842 396 
Q 353 884 353 1716 
Q 353 2575 817 3079 
Q 1281 3584 2069 3584 
Q 2775 3584 3186 3129 
Q 3597 2675 3597 1894 
z
M 3022 2063 
Q 3016 2534 2758 2815 
Q 2500 3097 2075 3097 
Q 1594 3097 1305 2825 
Q 1016 2553 972 2059 
L 3022 2063 
z
" transform="scale(0.015625)"/>
     <path id="DejaVuSans-4b" d="M 3513 2113 
L 3513 0 
L 2938 0 
L 2938 2094 
Q 2938 2591 2744 2837 
Q 2550 3084 2163 3084 
Q 1697 3084 1428 2787 
Q 1159 2491 1159 1978 
L 1159 0 
L 581 0 
L 581 4863 
L 1159 4863 
L 1159 2956 
Q 1366 3272 1645 3428 
Q 1925 3584 2291 3584 
Q 2894 3584 3203 3211 
Q 3513 2838 3513 2113 
z
" transform="scale(0.015625)"/>
     <path id="DejaVuSans-5a" d="M 269 3500 
L 844 3500 
L 1563 769 
L 2278 3500 
L 2956 3500 
L 3675 769 
L 4391 3500 
L 4966 3500 
L 4050 0 
L 3372 0 
L 2619 2869 
L 1863 0 
L 1184 0 
L 269 3500 
z
" transform="scale(0.015625)"/>
     <path id="DejaVuSans-4e" d="M 581 4863 
L 1159 4863 
L 1159 1991 
L 2875 3500 
L 3609 3500 
L 1753 1863 
L 3688 0 
L 2938 0 
L 1159 1709 
L 1159 0 
L 581 0 
L 581 4863 
z
" transform="scale(0.015625)"/>
     <path id="DejaVuSans-47" d="M 2906 2969 
L 2906 4863 
L 3481 4863 
L 3481 0 
L 2906 0 
L 2906 525 
Q 2725 213 2448 61 
Q 2172 -91 1784 -91 
Q 1150 -91 751 415 
Q 353 922 353 1747 
Q 353 2572 751 3078 
Q 1150 3584 1784 3584 
Q 2172 3584 2448 3432 
Q 2725 3281 2906 2969 
z
M 947 1747 
Q 947 1113 1208 752 
Q 1469 391 1925 391 
Q 2381 391 2643 752 
Q 2906 1113 2906 1747 
Q 2906 2381 2643 2742 
Q 2381 3103 1925 3103 
Q 1469 3103 1208 2742 
Q 947 2381 947 1747 
z
" transform="scale(0.015625)"/>
     <path id="DejaVuSans-b" d="M 1984 4856 
Q 1566 4138 1362 3434 
Q 1159 2731 1159 2009 
Q 1159 1288 1364 580 
Q 1569 -128 1984 -844 
L 1484 -844 
Q 1016 -109 783 600 
Q 550 1309 550 2009 
Q 550 2706 781 3412 
Q 1013 4119 1484 4856 
L 1984 4856 
z
" transform="scale(0.015625)"/>
     <path id="DejaVuSans-2f" d="M 628 4666 
L 1259 4666 
L 1259 531 
L 3531 531 
L 3531 0 
L 628 0 
L 628 4666 
z
" transform="scale(0.015625)"/>
     <path id="DejaVuSans-14" d="M 794 531 
L 1825 531 
L 1825 4091 
L 703 3866 
L 703 4441 
L 1819 4666 
L 2450 4666 
L 2450 531 
L 3481 531 
L 3481 0 
L 794 0 
L 794 531 
z
" transform="scale(0.015625)"/>
     <path id="DejaVuSans-e" d="M 2944 4013 
L 2944 2272 
L 4684 2272 
L 4684 1741 
L 2944 1741 
L 2944 0 
L 2419 0 
L 2419 1741 
L 678 1741 
L 678 2272 
L 2419 2272 
L 2419 4013 
L 2944 4013 
z
" transform="scale(0.015625)"/>
     <path id="DejaVuSans-15" d="M 1228 531 
L 3431 531 
L 3431 0 
L 469 0 
L 469 531 
Q 828 903 1448 1529 
Q 2069 2156 2228 2338 
Q 2531 2678 2651 2914 
Q 2772 3150 2772 3378 
Q 2772 3750 2511 3984 
Q 2250 4219 1831 4219 
Q 1534 4219 1204 4116 
Q 875 4013 500 3803 
L 500 4441 
Q 881 4594 1212 4672 
Q 1544 4750 1819 4750 
Q 2544 4750 2975 4387 
Q 3406 4025 3406 3419 
Q 3406 3131 3298 2873 
Q 3191 2616 2906 2266 
Q 2828 2175 2409 1742 
Q 1991 1309 1228 531 
z
" transform="scale(0.015625)"/>
     <path id="DejaVuSans-c" d="M 513 4856 
L 1013 4856 
Q 1481 4119 1714 3412 
Q 1947 2706 1947 2009 
Q 1947 1309 1714 600 
Q 1481 -109 1013 -844 
L 513 -844 
Q 928 -128 1133 580 
Q 1338 1288 1338 2009 
Q 1338 2731 1133 3434 
Q 928 4138 513 4856 
z
" transform="scale(0.015625)"/>
    </defs>
    <use xlink:href="#DejaVuSans-13"/>
    <use xlink:href="#DejaVuSans-16" transform="translate(63.625 0)"/>
    <use xlink:href="#DejaVuSans-10" transform="translate(127.25 0)"/>
    <use xlink:href="#DejaVuSans-53" transform="translate(163.328125 0)"/>
    <use xlink:href="#DejaVuSans-55" transform="translate(226.8125 0)"/>
    <use xlink:href="#DejaVuSans-4c" transform="translate(267.921875 0)"/>
    <use xlink:href="#DejaVuSans-52" transform="translate(295.703125 0)"/>
    <use xlink:href="#DejaVuSans-55" transform="translate(356.890625 0)"/>
    <use xlink:href="#DejaVuSans-4c" transform="translate(398 0)"/>
    <use xlink:href="#DejaVuSans-57" transform="translate(425.78125 0)"/>
    <use xlink:href="#DejaVuSans-5c" transform="translate(464.984375 0)"/>
    <use xlink:href="#DejaVuSans-10" transform="translate(522.421875 0)"/>
    <use xlink:href="#DejaVuSans-53" transform="translate(558.5 0)"/>
    <use xlink:href="#DejaVuSans-4f" transform="translate(621.984375 0)"/>
    <use xlink:href="#DejaVuSans-58" transform="translate(649.765625 0)"/>
    <use xlink:href="#DejaVuSans-56" transform="translate(713.140625 0)"/>
    <use xlink:href="#DejaVuSans-10" transform="translate(765.234375 0)"/>
    <use xlink:href="#DejaVuSans-51" transform="translate(801.3125 0)"/>
    <use xlink:href="#DejaVuSans-52" transform="translate(864.6875 0)"/>
    <use xlink:href="#DejaVuSans-55" transform="translate(925.875 0)"/>
    <use xlink:href="#DejaVuSans-50" transform="translate(965.234375 0)"/>
    <use xlink:href="#DejaVuSans-44" transform="translate(1062.640625 0)"/>
    <use xlink:href="#DejaVuSans-4f" transform="translate(1123.921875 0)"/>
    <use xlink:href="#DejaVuSans-3" transform="translate(1151.703125 0)"/>
    <use xlink:href="#DejaVuSans-af6" transform="translate(1183.484375 0)"/>
    <use xlink:href="#DejaVuSans-3" transform="translate(1283.484375 0)"/>
    <use xlink:href="#DejaVuSans-46" transform="translate(1315.265625 0)"/>
    <use xlink:href="#DejaVuSans-52" transform="translate(1370.25 0)"/>
    <use xlink:href="#DejaVuSans-51" transform="translate(1431.4375 0)"/>
    <use xlink:href="#DejaVuSans-57" transform="translate(1494.8125 0)"/>
    <use xlink:href="#DejaVuSans-44" transform="translate(1534.015625 0)"/>
    <use xlink:href="#DejaVuSans-4c" transform="translate(1595.296875 0)"/>
    <use xlink:href="#DejaVuSans-51" transform="translate(1623.078125 0)"/>
    <use xlink:href="#DejaVuSans-48" transform="translate(1686.453125 0)"/>
    <use xlink:href="#DejaVuSans-55" transform="translate(1747.984375 0)"/>
    <use xlink:href="#DejaVuSans-3" transform="translate(1789.09375 0)"/>
    <use xlink:href="#DejaVuSans-13" transform="translate(1820.875 0)"/>
    <use xlink:href="#DejaVuSans-3" transform="translate(1884.5 0)"/>
    <use xlink:href="#DejaVuSans-af6" transform="translate(1916.28125 0)"/>
    <use xlink:href="#DejaVuSans-3" transform="translate(2016.28125 0)"/>
    <use xlink:href="#DejaVuSans-4b" transform="translate(2048.0625 0)"/>
    <use xlink:href="#DejaVuSans-52" transform="translate(2111.4375 0)"/>
    <use xlink:href="#DejaVuSans-5a" transform="translate(2172.625 0)"/>
    <use xlink:href="#DejaVuSans-3" transform="translate(2254.40625 0)"/>
    <use xlink:href="#DejaVuSans-4c" transform="translate(2286.1875 0)"/>
    <use xlink:href="#DejaVuSans-57" transform="translate(2313.96875 0)"/>
    <use xlink:href="#DejaVuSans-3" transform="translate(2353.171875 0)"/>
    <use xlink:href="#DejaVuSans-4c" transform="translate(2384.953125 0)"/>
    <use xlink:href="#DejaVuSans-56" transform="translate(2412.734375 0)"/>
    <use xlink:href="#DejaVuSans-3" transform="translate(2464.828125 0)"/>
    <use xlink:href="#DejaVuSans-56" transform="translate(2496.609375 0)"/>
    <use xlink:href="#DejaVuSans-57" transform="translate(2548.703125 0)"/>
    <use xlink:href="#DejaVuSans-44" transform="translate(2587.90625 0)"/>
    <use xlink:href="#DejaVuSans-46" transform="translate(2649.1875 0)"/>
    <use xlink:href="#DejaVuSans-4e" transform="translate(2704.171875 0)"/>
    <use xlink:href="#DejaVuSans-48" transform="translate(2758.515625 0)"/>
    <use xlink:href="#DejaVuSans-47" transform="translate(2820.046875 0)"/>
    <use xlink:href="#DejaVuSans-3" transform="translate(2883.53125 0)"/>
    <use xlink:href="#DejaVuSans-b" transform="translate(2915.3125 0)"/>
    <use xlink:href="#DejaVuSans-2f" transform="translate(2954.328125 0)"/>
    <use xlink:href="#DejaVuSans-44" transform="translate(3010.046875 0)"/>
    <use xlink:href="#DejaVuSans-5c" transform="translate(3071.328125 0)"/>
    <use xlink:href="#DejaVuSans-48" transform="translate(3130.515625 0)"/>
    <use xlink:href="#DejaVuSans-55" transform="translate(3192.046875 0)"/>
    <use xlink:href="#DejaVuSans-3" transform="translate(3233.15625 0)"/>
    <use xlink:href="#DejaVuSans-14" transform="translate(3264.9375 0)"/>
    <use xlink:href="#DejaVuSans-3" transform="translate(3328.5625 0)"/>
    <use xlink:href="#DejaVuSans-e" transform="translate(3360.34375 0)"/>
    <use xlink:href="#DejaVuSans-3" transform="translate(3444.140625 0)"/>
    <use xlink:href="#DejaVuSans-2f" transform="translate(3475.921875 0)"/>
    <use xlink:href="#DejaVuSans-44" transform="translate(3531.640625 0)"/>
    <use xlink:href="#DejaVuSans-5c" transform="translate(3592.921875 0)"/>
    <use xlink:href="#DejaVuSans-48" transform="translate(3652.109375 0)"/>
    <use xlink:href="#DejaVuSans-55" transform="translate(3713.640625 0)"/>
    <use xlink:href="#DejaVuSans-3" transform="translate(3754.75 0)"/>
    <use xlink:href="#DejaVuSans-15" transform="translate(3786.53125 0)"/>
    <use xlink:href="#DejaVuSans-c" transform="translate(3850.15625 0)"/>
   </g>
  </g>
  <g id="legend_1">
   <g id="patch_43">
    <path d="M 140.942422 691.017266 
L 154.942422 691.017266 
L 154.942422 686.117266 
L 140.942422 686.117266 
z
" style="fill: #c8a06a; stroke: #333333; stroke-linejoin: miter"/>
   </g>
   <g id="text_13">
    <!-- normal-hard -->
    <g transform="translate(160.542422 691.017266) scale(0.07 -0.07)">
     <use xlink:href="#DejaVuSans-51"/>
     <use xlink:href="#DejaVuSans-52" transform="translate(63.375 0)"/>
     <use xlink:href="#DejaVuSans-55" transform="translate(124.5625 0)"/>
     <use xlink:href="#DejaVuSans-50" transform="translate(163.921875 0)"/>
     <use xlink:href="#DejaVuSans-44" transform="translate(261.328125 0)"/>
     <use xlink:href="#DejaVuSans-4f" transform="translate(322.609375 0)"/>
     <use xlink:href="#DejaVuSans-10" transform="translate(350.390625 0)"/>
     <use xlink:href="#DejaVuSans-4b" transform="translate(386.46875 0)"/>
     <use xlink:href="#DejaVuSans-44" transform="translate(449.84375 0)"/>
     <use xlink:href="#DejaVuSans-55" transform="translate(511.125 0)"/>
     <use xlink:href="#DejaVuSans-47" transform="translate(550.484375 0)"/>
    </g>
   </g>
   <g id="patch_44">
    <path d="M 140.942422 701.517812 
L 154.942422 701.517812 
L 154.942422 696.617813 
L 140.942422 696.617813 
z
" style="fill: #5b8dd9; stroke: #333333; stroke-linejoin: miter"/>
   </g>
   <g id="text_14">
    <!-- soft -->
    <g transform="translate(160.542422 701.517812) scale(0.07 -0.07)">
     <defs>
      <path id="DejaVuSans-49" d="M 2375 4863 
L 2375 4384 
L 1825 4384 
Q 1516 4384 1395 4259 
Q 1275 4134 1275 3809 
L 1275 3500 
L 2222 3500 
L 2222 3053 
L 1275 3053 
L 1275 0 
L 697 0 
L 697 3053 
L 147 3053 
L 147 3500 
L 697 3500 
L 697 3744 
Q 697 4328 969 4595 
Q 1241 4863 1831 4863 
L 2375 4863 
z
" transform="scale(0.015625)"/>
     </defs>
     <use xlink:href="#DejaVuSans-56"/>
     <use xlink:href="#DejaVuSans-52" transform="translate(52.09375 0)"/>
     <use xlink:href="#DejaVuSans-49" transform="translate(113.28125 0)"/>
     <use xlink:href="#DejaVuSans-57" transform="translate(146.734375 0)"/>
    </g>
   </g>
   <g id="patch_45">
    <path d="M 140.942422 712.018359 
L 154.942422 712.018359 
L 154.942422 707.118359 
L 140.942422 707.118359 
z
" style="fill: #5fbf6a; stroke: #333333; stroke-linejoin: miter"/>
   </g>
   <g id="text_15">
    <!-- priority -->
    <g transform="translate(160.542422 712.018359) scale(0.07 -0.07)">
     <use xlink:href="#DejaVuSans-53"/>
     <use xlink:href="#DejaVuSans-55" transform="translate(63.484375 0)"/>
     <use xlink:href="#DejaVuSans-4c" transform="translate(104.59375 0)"/>
     <use xlink:href="#DejaVuSans-52" transform="translate(132.375 0)"/>
     <use xlink:href="#DejaVuSans-55" transform="translate(193.5625 0)"/>
     <use xlink:href="#DejaVuSans-4c" transform="translate(234.671875 0)"/>
     <use xlink:href="#DejaVuSans-57" transform="translate(262.453125 0)"/>
     <use xlink:href="#DejaVuSans-5c" transform="translate(301.65625 0)"/>
    </g>
   </g>
   <g id="patch_46">
    <path d="M 217.520234 691.017266 
L 231.520234 691.017266 
L 231.520234 686.117266 
L 217.520234 686.117266 
z
" style="fill: #9b6fd0; stroke: #333333; stroke-linejoin: miter"/>
   </g>
   <g id="text_16">
    <!-- soft-priority -->
    <g transform="translate(237.120234 691.017266) scale(0.07 -0.07)">
     <use xlink:href="#DejaVuSans-56"/>
     <use xlink:href="#DejaVuSans-52" transform="translate(52.09375 0)"/>
     <use xlink:href="#DejaVuSans-49" transform="translate(113.28125 0)"/>
     <use xlink:href="#DejaVuSans-57" transform="translate(146.734375 0)"/>
     <use xlink:href="#DejaVuSans-10" transform="translate(185.9375 0)"/>
     <use xlink:href="#DejaVuSans-53" transform="translate(222.015625 0)"/>
     <use xlink:href="#DejaVuSans-55" transform="translate(285.5 0)"/>
     <use xlink:href="#DejaVuSans-4c" transform="translate(326.609375 0)"/>
     <use xlink:href="#DejaVuSans-52" transform="translate(354.390625 0)"/>
     <use xlink:href="#DejaVuSans-55" transform="translate(415.578125 0)"/>
     <use xlink:href="#DejaVuSans-4c" transform="translate(456.6875 0)"/>
     <use xlink:href="#DejaVuSans-57" transform="translate(484.46875 0)"/>
     <use xlink:href="#DejaVuSans-5c" transform="translate(523.671875 0)"/>
    </g>
   </g>
   <g id="line2d_6">
    <path d="M 217.520234 699.067812 
L 224.520234 699.067812 
L 231.520234 699.067812 
" style="fill: none; stroke: #c0392b; stroke-width: 2.4; stroke-linecap: square"/>
   </g>
   <g id="text_17">
    <!-- role: wall-front -->
    <g transform="translate(237.120234 701.517812) scale(0.07 -0.07)">
     <defs>
      <path id="DejaVuSans-1d" d="M 750 794 
L 1409 794 
L 1409 0 
L 750 0 
L 750 794 
z
M 750 3309 
L 1409 3309 
L 1409 2516 
L 750 2516 
L 750 3309 
z
" transform="scale(0.015625)"/>
     </defs>
     <use xlink:href="#DejaVuSans-55"/>
     <use xlink:href="#DejaVuSans-52" transform="translate(38.90625 0)"/>
     <use xlink:href="#DejaVuSans-4f" transform="translate(100.09375 0)"/>
     <use xlink:href="#DejaVuSans-48" transform="translate(127.875 0)"/>
     <use xlink:href="#DejaVuSans-1d" transform="translate(189.40625 0)"/>
     <use xlink:href="#DejaVuSans-3" transform="translate(223.09375 0)"/>
     <use xlink:href="#DejaVuSans-5a" transform="translate(254.875 0)"/>
     <use xlink:href="#DejaVuSans-44" transform="translate(336.65625 0)"/>
     <use xlink:href="#DejaVuSans-4f" transform="translate(397.9375 0)"/>
     <use xlink:href="#DejaVuSans-4f" transform="translate(425.71875 0)"/>
     <use xlink:href="#DejaVuSans-10" transform="translate(453.5 0)"/>
     <use xlink:href="#DejaVuSans-49" transform="translate(489.578125 0)"/>
     <use xlink:href="#DejaVuSans-55" transform="translate(524.78125 0)"/>
     <use xlink:href="#DejaVuSans-52" transform="translate(563.6875 0)"/>
     <use xlink:href="#DejaVuSans-51" transform="translate(624.875 0)"/>
     <use xlink:href="#DejaVuSans-57" transform="translate(688.25 0)"/>
    </g>
   </g>
   <g id="line2d_7">
    <path d="M 302.041953 688.567266 
L 309.041953 688.567266 
L 316.041953 688.567266 
" style="fill: none; stroke-dasharray: 7.4,3.2; stroke-dashoffset: 0; stroke: #e07b00; stroke-width: 2"/>
   </g>
   <g id="text_18">
    <!-- role: elongated -->
    <g transform="translate(321.641953 691.017266) scale(0.07 -0.07)">
     <defs>
      <path id="DejaVuSans-4a" d="M 2906 1791 
Q 2906 2416 2648 2759 
Q 2391 3103 1925 3103 
Q 1463 3103 1205 2759 
Q 947 2416 947 1791 
Q 947 1169 1205 825 
Q 1463 481 1925 481 
Q 2391 481 2648 825 
Q 2906 1169 2906 1791 
z
M 3481 434 
Q 3481 -459 3084 -895 
Q 2688 -1331 1869 -1331 
Q 1566 -1331 1297 -1286 
Q 1028 -1241 775 -1147 
L 775 -588 
Q 1028 -725 1275 -790 
Q 1522 -856 1778 -856 
Q 2344 -856 2625 -561 
Q 2906 -266 2906 331 
L 2906 616 
Q 2728 306 2450 153 
Q 2172 0 1784 0 
Q 1141 0 747 490 
Q 353 981 353 1791 
Q 353 2603 747 3093 
Q 1141 3584 1784 3584 
Q 2172 3584 2450 3431 
Q 2728 3278 2906 2969 
L 2906 3500 
L 3481 3500 
L 3481 434 
z
" transform="scale(0.015625)"/>
     </defs>
     <use xlink:href="#DejaVuSans-55"/>
     <use xlink:href="#DejaVuSans-52" transform="translate(38.90625 0)"/>
     <use xlink:href="#DejaVuSans-4f" transform="translate(100.09375 0)"/>
     <use xlink:href="#DejaVuSans-48" transform="translate(127.875 0)"/>
     <use xlink:href="#DejaVuSans-1d" transform="translate(189.40625 0)"/>
     <use xlink:href="#DejaVuSans-3" transform="translate(223.09375 0)"/>
     <use xlink:href="#DejaVuSans-48" transform="translate(254.875 0)"/>
     <use xlink:href="#DejaVuSans-4f" transform="translate(316.40625 0)"/>
     <use xlink:href="#DejaVuSans-52" transform="translate(344.1875 0)"/>
     <use xlink:href="#DejaVuSans-51" transform="translate(405.375 0)"/>
     <use xlink:href="#DejaVuSans-4a" transform="translate(468.75 0)"/>
     <use xlink:href="#DejaVuSans-44" transform="translate(532.234375 0)"/>
     <use xlink:href="#DejaVuSans-57" transform="translate(593.515625 0)"/>
     <use xlink:href="#DejaVuSans-48" transform="translate(632.71875 0)"/>
     <use xlink:href="#DejaVuSans-47" transform="translate(694.25 0)"/>
    </g>
   </g>
   <g id="line2d_8">
    <path d="M 302.041953 699.067812 
L 309.041953 699.067812 
L 316.041953 699.067812 
" style="fill: none; stroke-dasharray: 14.08,3.52,2.2,3.52; stroke-dashoffset: 0; stroke: #b52ea8; stroke-width: 2.2"/>
   </g>
   <g id="text_19">
    <!-- role: slope-infill -->
    <g transform="translate(321.641953 701.517812) scale(0.07 -0.07)">
     <defs>
      <path id="DejaVuSans-13af" d="M 3431 3500 
L 3431 0 
L 2853 0 
L 2853 3053 
L 1275 3053 
L 1275 0 
L 697 0 
L 697 3053 
L 147 3053 
L 147 3500 
L 697 3500 
L 697 3744 
Q 697 4316 967 4589 
Q 1238 4863 1797 4863 
L 2375 4863 
L 2375 4384 
L 1825 4384 
Q 1516 4384 1395 4259 
Q 1275 4134 1275 3809 
L 1275 3500 
L 3431 3500 
z
M 2853 4856 
L 3431 4856 
L 3431 4128 
L 2853 4128 
L 2853 4856 
z
" transform="scale(0.015625)"/>
     </defs>
     <use xlink:href="#DejaVuSans-55"/>
     <use xlink:href="#DejaVuSans-52" transform="translate(38.90625 0)"/>
     <use xlink:href="#DejaVuSans-4f" transform="translate(100.09375 0)"/>
     <use xlink:href="#DejaVuSans-48" transform="translate(127.875 0)"/>
     <use xlink:href="#DejaVuSans-1d" transform="translate(189.40625 0)"/>
     <use xlink:href="#DejaVuSans-3" transform="translate(223.09375 0)"/>
     <use xlink:href="#DejaVuSans-56" transform="translate(254.875 0)"/>
     <use xlink:href="#DejaVuSans-4f" transform="translate(306.96875 0)"/>
     <use xlink:href="#DejaVuSans-52" transform="translate(334.75 0)"/>
     <use xlink:href="#DejaVuSans-53" transform="translate(395.9375 0)"/>
     <use xlink:href="#DejaVuSans-48" transform="translate(459.421875 0)"/>
     <use xlink:href="#DejaVuSans-10" transform="translate(520.953125 0)"/>
     <use xlink:href="#DejaVuSans-4c" transform="translate(557.03125 0)"/>
     <use xlink:href="#DejaVuSans-51" transform="translate(584.8125 0)"/>
     <use xlink:href="#DejaVuSans-13af" transform="translate(648.1875 0)"/>
     <use xlink:href="#DejaVuSans-4f" transform="translate(711.171875 0)"/>
     <use xlink:href="#DejaVuSans-4f" transform="translate(738.953125 0)"/>
    </g>
   </g>
   <g id="line2d_9">
    <path d="M 389.313359 688.567266 
L 396.313359 688.567266 
L 403.313359 688.567266 
" style="fill: none; stroke: #1f7a8c; stroke-width: 2.2; stroke-linecap: square"/>
   </g>
   <g id="text_20">
    <!-- role: tall-perimeter -->
    <g transform="translate(408.913359 691.017266) scale(0.07 -0.07)">
     <use xlink:href="#DejaVuSans-55"/>
     <use xlink:href="#DejaVuSans-52" transform="translate(38.90625 0)"/>
     <use xlink:href="#DejaVuSans-4f" transform="translate(100.09375 0)"/>
     <use xlink:href="#DejaVuSans-48" transform="translate(127.875 0)"/>
     <use xlink:href="#DejaVuSans-1d" transform="translate(189.40625 0)"/>
     <use xlink:href="#DejaVuSans-3" transform="translate(223.09375 0)"/>
     <use xlink:href="#DejaVuSans-57" transform="translate(254.875 0)"/>
     <use xlink:href="#DejaVuSans-44" transform="translate(294.078125 0)"/>
     <use xlink:href="#DejaVuSans-4f" transform="translate(355.359375 0)"/>
     <use xlink:href="#DejaVuSans-4f" transform="translate(383.140625 0)"/>
     <use xlink:href="#DejaVuSans-10" transform="translate(410.921875 0)"/>
     <use xlink:href="#DejaVuSans-53" transform="translate(447 0)"/>
     <use xlink:href="#DejaVuSans-48" transform="translate(510.484375 0)"/>
     <use xlink:href="#DejaVuSans-55" transform="translate(572.015625 0)"/>
     <use xlink:href="#DejaVuSans-4c" transform="translate(613.125 0)"/>
     <use xlink:href="#DejaVuSans-50" transform="translate(640.90625 0)"/>
     <use xlink:href="#DejaVuSans-48" transform="translate(738.3125 0)"/>
     <use xlink:href="#DejaVuSans-57" transform="translate(799.84375 0)"/>
     <use xlink:href="#DejaVuSans-48" transform="translate(839.046875 0)"/>
     <use xlink:href="#DejaVuSans-55" transform="translate(900.578125 0)"/>
    </g>
   </g>
   <g id="line2d_10">
    <path d="M 389.313359 699.067812 
L 396.313359 699.067812 
L 403.313359 699.067812 
" style="fill: none; stroke-dasharray: 14.08,3.52,2.2,3.52; stroke-dashoffset: 0; stroke: #7a5c00; stroke-width: 2.2"/>
   </g>
   <g id="text_21">
    <!-- role: wedge-step -->
    <g transform="translate(408.913359 701.517812) scale(0.07 -0.07)">
     <use xlink:href="#DejaVuSans-55"/>
     <use xlink:href="#DejaVuSans-52" transform="translate(38.90625 0)"/>
     <use xlink:href="#DejaVuSans-4f" transform="translate(100.09375 0)"/>
     <use xlink:href="#DejaVuSans-48" transform="translate(127.875 0)"/>
     <use xlink:href="#DejaVuSans-1d" transform="translate(189.40625 0)"/>
     <use xlink:href="#DejaVuSans-3" transform="translate(223.09375 0)"/>
     <use xlink:href="#DejaVuSans-5a" transform="translate(254.875 0)"/>
     <use xlink:href="#DejaVuSans-48" transform="translate(336.65625 0)"/>
     <use xlink:href="#DejaVuSans-47" transform="translate(398.1875 0)"/>
     <use xlink:href="#DejaVuSans-4a" transform="translate(461.671875 0)"/>
     <use xlink:href="#DejaVuSans-48" transform="translate(525.15625 0)"/>
     <use xlink:href="#DejaVuSans-10" transform="translate(586.6875 0)"/>
     <use xlink:href="#DejaVuSans-56" transform="translate(622.765625 0)"/>
     <use xlink:href="#DejaVuSans-57" transform="translate(674.859375 0)"/>
     <use xlink:href="#DejaVuSans-48" transform="translate(714.0625 0)"/>
     <use xlink:href="#DejaVuSans-53" transform="translate(775.59375 0)"/>
    </g>
   </g>
   <g id="line2d_11">
    <path d="M 488.831484 688.567266 
L 495.831484 688.567266 
L 502.831484 688.567266 
" style="fill: none; stroke: #00a2a2; stroke-width: 2.6; stroke-linecap: square"/>
   </g>
   <g id="text_22">
    <!-- role: terrace -->
    <g transform="translate(508.431484 691.017266) scale(0.07 -0.07)">
     <use xlink:href="#DejaVuSans-55"/>
     <use xlink:href="#DejaVuSans-52" transform="translate(38.90625 0)"/>
     <use xlink:href="#DejaVuSans-4f" transform="translate(100.09375 0)"/>
     <use xlink:href="#DejaVuSans-48" transform="translate(127.875 0)"/>
     <use xlink:href="#DejaVuSans-1d" transform="translate(189.40625 0)"/>
     <use xlink:href="#DejaVuSans-3" transform="translate(223.09375 0)"/>
     <use xlink:href="#DejaVuSans-57" transform="translate(254.875 0)"/>
     <use xlink:href="#DejaVuSans-48" transform="translate(294.078125 0)"/>
     <use xlink:href="#DejaVuSans-55" transform="translate(355.609375 0)"/>
     <use xlink:href="#DejaVuSans-55" transform="translate(394.96875 0)"/>
     <use xlink:href="#DejaVuSans-44" transform="translate(436.078125 0)"/>
     <use xlink:href="#DejaVuSans-46" transform="translate(497.359375 0)"/>
     <use xlink:href="#DejaVuSans-48" transform="translate(552.34375 0)"/>
    </g>
   </g>
   <g id="line2d_12">
    <path d="M 488.831484 699.067812 
L 495.831484 699.067812 
L 502.831484 699.067812 
" style="fill: none; stroke: #d81b60; stroke-width: 3; stroke-linecap: square"/>
   </g>
   <g id="text_23">
    <!-- role: bridge -->
    <g transform="translate(508.431484 701.517812) scale(0.07 -0.07)">
     <defs>
      <path id="DejaVuSans-45" d="M 3116 1747 
Q 3116 2381 2855 2742 
Q 2594 3103 2138 3103 
Q 1681 3103 1420 2742 
Q 1159 2381 1159 1747 
Q 1159 1113 1420 752 
Q 1681 391 2138 391 
Q 2594 391 2855 752 
Q 3116 1113 3116 1747 
z
M 1159 2969 
Q 1341 3281 1617 3432 
Q 1894 3584 2278 3584 
Q 2916 3584 3314 3078 
Q 3713 2572 3713 1747 
Q 3713 922 3314 415 
Q 2916 -91 2278 -91 
Q 1894 -91 1617 61 
Q 1341 213 1159 525 
L 1159 0 
L 581 0 
L 581 4863 
L 1159 4863 
L 1159 2969 
z
" transform="scale(0.015625)"/>
     </defs>
     <use xlink:href="#DejaVuSans-55"/>
     <use xlink:href="#DejaVuSans-52" transform="translate(38.90625 0)"/>
     <use xlink:href="#DejaVuSans-4f" transform="translate(100.09375 0)"/>
     <use xlink:href="#DejaVuSans-48" transform="translate(127.875 0)"/>
     <use xlink:href="#DejaVuSans-1d" transform="translate(189.40625 0)"/>
     <use xlink:href="#DejaVuSans-3" transform="translate(223.09375 0)"/>
     <use xlink:href="#DejaVuSans-45" transform="translate(254.875 0)"/>
     <use xlink:href="#DejaVuSans-55" transform="translate(318.359375 0)"/>
     <use xlink:href="#DejaVuSans-4c" transform="translate(359.46875 0)"/>
     <use xlink:href="#DejaVuSans-47" transform="translate(387.25 0)"/>
     <use xlink:href="#DejaVuSans-4a" transform="translate(450.734375 0)"/>
     <use xlink:href="#DejaVuSans-48" transform="translate(514.21875 0)"/>
    </g>
   </g>
   <g id="line2d_13">
    <path d="M 565.402734 688.567266 
L 572.402734 688.567266 
L 579.402734 688.567266 
" style="fill: none; stroke-dasharray: 11.1,4.8; stroke-dashoffset: 0; stroke: #8e24aa; stroke-width: 3"/>
   </g>
   <g id="text_24">
    <!-- role: wedge-bridge -->
    <g transform="translate(585.002734 691.017266) scale(0.07 -0.07)">
     <use xlink:href="#DejaVuSans-55"/>
     <use xlink:href="#DejaVuSans-52" transform="translate(38.90625 0)"/>
     <use xlink:href="#DejaVuSans-4f" transform="translate(100.09375 0)"/>
     <use xlink:href="#DejaVuSans-48" transform="translate(127.875 0)"/>
     <use xlink:href="#DejaVuSans-1d" transform="translate(189.40625 0)"/>
     <use xlink:href="#DejaVuSans-3" transform="translate(223.09375 0)"/>
     <use xlink:href="#DejaVuSans-5a" transform="translate(254.875 0)"/>
     <use xlink:href="#DejaVuSans-48" transform="translate(336.65625 0)"/>
     <use xlink:href="#DejaVuSans-47" transform="translate(398.1875 0)"/>
     <use xlink:href="#DejaVuSans-4a" transform="translate(461.671875 0)"/>
     <use xlink:href="#DejaVuSans-48" transform="translate(525.15625 0)"/>
     <use xlink:href="#DejaVuSans-10" transform="translate(586.6875 0)"/>
     <use xlink:href="#DejaVuSans-45" transform="translate(622.765625 0)"/>
     <use xlink:href="#DejaVuSans-55" transform="translate(686.25 0)"/>
     <use xlink:href="#DejaVuSans-4c" transform="translate(727.359375 0)"/>
     <use xlink:href="#DejaVuSans-47" transform="translate(755.140625 0)"/>
     <use xlink:href="#DejaVuSans-4a" transform="translate(818.625 0)"/>
     <use xlink:href="#DejaVuSans-48" transform="translate(882.109375 0)"/>
    </g>
   </g>
   <g id="line2d_14">
    <path d="M 565.402734 699.067812 
L 572.402734 699.067812 
L 579.402734 699.067812 
" style="fill: none; stroke: #7d3cbd; stroke-width: 1.4; stroke-linecap: square"/>
   </g>
   <g id="text_25">
    <!-- shelf -->
    <g transform="translate(585.002734 701.517812) scale(0.07 -0.07)">
     <use xlink:href="#DejaVuSans-56"/>
     <use xlink:href="#DejaVuSans-4b" transform="translate(52.09375 0)"/>
     <use xlink:href="#DejaVuSans-48" transform="translate(115.46875 0)"/>
     <use xlink:href="#DejaVuSans-4f" transform="translate(177 0)"/>
     <use xlink:href="#DejaVuSans-49" transform="translate(204.78125 0)"/>
    </g>
   </g>
  </g>
 </g>
 <defs>
  <clipPath id="p2a445d60f5">
   <rect x="126.098698" y="62.642812" width="539.802604" height="603.357188"/>
  </clipPath>
 </defs>
</svg>
